<svg width="1124" height="641" viewBox="0 0 1124 641" fill="none" xmlns="http://www.w3.org/2000/svg">
<mask id="mask0" mask-type="alpha" maskUnits="userSpaceOnUse" x="0" y="0" width="1124" height="641">
<path d="M279.64 135.684C191.852 147.655 236.5 350.5 126.75 303.263C104.949 292.363 62.9049 300.901 44.8217 316.401C21.1316 336.707 0.574599 365.816 0.133849 398.432C-0.400241 437.955 3.59496 478.197 37.3738 503.531C57.9396 518.956 80.1545 514.752 103.992 513.669C133.253 512.339 167.993 499.754 194.816 488.428C255.701 462.721 310.748 473.823 366.74 505.393C426.941 539.336 475.036 591.854 538.251 621.354C569.477 635.927 604.434 637.439 638.178 639.871C680.614 642.929 726.156 634.688 768.104 629.112C833.3 620.447 897.952 582.934 928.235 523.186C934.708 510.415 940.634 498.249 943.131 483.98C944.917 473.778 943.711 463.411 945.097 453.154C948.123 430.757 945.515 407.754 947.89 385.191C954.932 318.286 1012.33 285.92 1058.16 244.714C1081.65 223.597 1110.5 196.508 1120.85 165.476C1127.73 144.825 1119.72 117.16 1112.57 97.6162C1103.56 72.9829 1091.15 46.5759 1067.68 32.8601C1038.94 16.0667 1009.64 8.2571 976.544 3.58539C922.34 -4.06687 863.241 4.68374 810.723 17.9641C761.769 30.3433 719.36 61.1702 677.487 88.3062C633.796 116.62 586.397 153.153 532.768 157.097C494.023 159.945 456.105 151.534 418.773 142.201C372.989 130.755 326.339 129.316 279.64 135.684Z" fill="#C4C4C4"/>
</mask>
<g mask="url(#mask0)">
<line y1="-1.5" x2="1338.22" y2="-1.5" transform="matrix(0.692051 -0.712325 0.950819 -0.329026 205.972 911.434)" stroke="#FF7B00" stroke-opacity="0.5" stroke-width="3"/>
<line y1="-1.5" x2="1338.22" y2="-1.5" transform="matrix(0.692051 -0.712325 0.950819 -0.329026 210.443 920.178)" stroke="#FF7B00" stroke-opacity="0.5" stroke-width="3"/>
<line y1="-1.5" x2="1338.22" y2="-1.5" transform="matrix(0.692051 -0.712325 0.950819 -0.329026 214.914 928.921)" stroke="#FF7B00" stroke-opacity="0.5" stroke-width="3"/>
<line y1="-1.5" x2="1338.22" y2="-1.5" transform="matrix(0.692051 -0.712325 0.950819 -0.329026 219.384 937.665)" stroke="#FF7B00" stroke-opacity="0.5" stroke-width="3"/>
<line y1="-1.5" x2="1338.22" y2="-1.5" transform="matrix(0.692051 -0.712325 0.950819 -0.329026 223.855 946.409)" stroke="#FF7B00" stroke-opacity="0.5" stroke-width="3"/>
<line y1="-1.5" x2="1338.22" y2="-1.5" transform="matrix(0.692051 -0.712325 0.950819 -0.329026 228.325 955.152)" stroke="#FF7B00" stroke-opacity="0.5" stroke-width="3"/>
<line y1="-1.5" x2="1338.22" y2="-1.5" transform="matrix(0.692051 -0.712325 0.950819 -0.329026 232.796 963.896)" stroke="#FF7B00" stroke-opacity="0.5" stroke-width="3"/>
<line y1="-1.5" x2="1338.22" y2="-1.5" transform="matrix(0.692051 -0.712325 0.950819 -0.329026 237.267 972.64)" stroke="#FF7B00" stroke-opacity="0.5" stroke-width="3"/>
<line y1="-1.5" x2="1338.22" y2="-1.5" transform="matrix(0.692051 -0.712325 0.950819 -0.329026 241.737 981.384)" stroke="#FF7B00" stroke-opacity="0.5" stroke-width="3"/>
<line y1="-1.5" x2="1338.22" y2="-1.5" transform="matrix(0.69205 -0.712325 0.950819 -0.329026 246.208 990.127)" stroke="#FF7B00" stroke-opacity="0.5" stroke-width="3"/>
<line y1="-1.5" x2="1338.22" y2="-1.5" transform="matrix(0.692051 -0.712325 0.950819 -0.329026 250.678 998.871)" stroke="#FF7B00" stroke-opacity="0.5" stroke-width="3"/>
<line y1="-1.5" x2="1338.22" y2="-1.5" transform="matrix(0.692051 -0.712325 0.950819 -0.329026 255.149 1007.61)" stroke="#FF7B00" stroke-opacity="0.5" stroke-width="3"/>
<line y1="-1.5" x2="1338.22" y2="-1.5" transform="matrix(0.692051 -0.712325 0.950819 -0.329026 259.62 1016.36)" stroke="#FF7B00" stroke-opacity="0.5" stroke-width="3"/>
<line y1="-1.5" x2="1338.22" y2="-1.5" transform="matrix(0.692051 -0.712325 0.950819 -0.329026 264.09 1025.1)" stroke="#FF7B00" stroke-opacity="0.5" stroke-width="3"/>
<line y1="-1.5" x2="1338.22" y2="-1.5" transform="matrix(0.692051 -0.712325 0.950819 -0.329026 268.561 1033.85)" stroke="#FF7B00" stroke-opacity="0.5" stroke-width="3"/>
<line y1="-1.5" x2="1338.22" y2="-1.5" transform="matrix(0.692051 -0.712325 0.950819 -0.329026 273.031 1042.59)" stroke="#FF7B00" stroke-opacity="0.5" stroke-width="3"/>
<line y1="-1.5" x2="1338.22" y2="-1.5" transform="matrix(0.692051 -0.712325 0.950819 -0.329026 277.502 1051.33)" stroke="#FF7B00" stroke-opacity="0.5" stroke-width="3"/>
<line y1="-1.5" x2="1338.22" y2="-1.5" transform="matrix(0.692051 -0.712325 0.950819 -0.329026 281.973 1060.08)" stroke="#FF7B00" stroke-opacity="0.5" stroke-width="3"/>
<line y1="-1.5" x2="1338.22" y2="-1.5" transform="matrix(0.692051 -0.712325 0.950819 -0.329026 286.443 1068.82)" stroke="#FF7B00" stroke-opacity="0.5" stroke-width="3"/>
<line y1="-1.5" x2="1338.22" y2="-1.5" transform="matrix(0.692051 -0.712325 0.950819 -0.329026 290.914 1077.56)" stroke="#FF7B00" stroke-opacity="0.5" stroke-width="3"/>
<line y1="-1.5" x2="1338.22" y2="-1.5" transform="matrix(0.692051 -0.712325 0.950819 -0.329026 295.384 1086.31)" stroke="#FF7B00" stroke-opacity="0.5" stroke-width="3"/>
<line y1="-1.5" x2="1338.22" y2="-1.5" transform="matrix(0.69205 -0.712325 0.950819 -0.329026 299.855 1095.05)" stroke="#FF7B00" stroke-opacity="0.5" stroke-width="3"/>
<line y1="-1.5" x2="1338.22" y2="-1.5" transform="matrix(0.69205 -0.712325 0.950819 -0.329026 304.326 1103.79)" stroke="#FF7B00" stroke-opacity="0.5" stroke-width="3"/>
<line y1="-1.5" x2="1338.22" y2="-1.5" transform="matrix(0.692051 -0.712325 0.950819 -0.329026 308.796 1112.54)" stroke="#FF7B00" stroke-opacity="0.5" stroke-width="3"/>
<line y1="-1.5" x2="1338.22" y2="-1.5" transform="matrix(0.692051 -0.712325 0.950819 -0.329026 313.267 1121.28)" stroke="#FF7B00" stroke-opacity="0.5" stroke-width="3"/>
<line y1="-1.5" x2="1338.22" y2="-1.5" transform="matrix(0.692051 -0.712325 0.950819 -0.329026 317.737 1130.03)" stroke="#FF7B00" stroke-opacity="0.5" stroke-width="3"/>
<line y1="-1.5" x2="1338.22" y2="-1.5" transform="matrix(0.692051 -0.712325 0.950819 -0.329026 322.208 1138.77)" stroke="#FF7B00" stroke-opacity="0.5" stroke-width="3"/>
<line y1="-1.5" x2="1338.22" y2="-1.5" transform="matrix(0.692051 -0.712325 0.950819 -0.329026 326.679 1147.51)" stroke="#FF7B00" stroke-opacity="0.5" stroke-width="3"/>
<line y1="-1.5" x2="1338.22" y2="-1.5" transform="matrix(0.692051 -0.712325 0.950819 -0.329026 331.149 1156.26)" stroke="#FF7B00" stroke-opacity="0.5" stroke-width="3"/>
<line y1="-1.5" x2="1338.22" y2="-1.5" transform="matrix(0.692051 -0.712325 0.950819 -0.329026 201.502 902.69)" stroke="#FF7B00" stroke-opacity="0.5" stroke-width="3"/>
<line y1="-1.5" x2="1338.22" y2="-1.5" transform="matrix(0.692051 -0.712325 0.950819 -0.329026 340.027 1173.62)" stroke="#FF7B00" stroke-opacity="0.5" stroke-width="3"/>
<line y1="-1.5" x2="1338.22" y2="-1.5" transform="matrix(0.692051 -0.712325 0.950819 -0.329026 344.498 1182.36)" stroke="#FF7B00" stroke-opacity="0.5" stroke-width="3"/>
<line y1="-1.5" x2="1338.22" y2="-1.5" transform="matrix(0.69205 -0.712325 0.950819 -0.329026 348.968 1191.11)" stroke="#FF7B00" stroke-opacity="0.5" stroke-width="3"/>
<line y1="-1.5" x2="1338.22" y2="-1.5" transform="matrix(0.692051 -0.712325 0.950819 -0.329026 353.439 1199.85)" stroke="#FF7B00" stroke-opacity="0.5" stroke-width="3"/>
<line y1="-1.5" x2="1338.22" y2="-1.5" transform="matrix(0.692051 -0.712325 0.950819 -0.329026 357.91 1208.6)" stroke="#FF7B00" stroke-opacity="0.5" stroke-width="3"/>
<line y1="-1.5" x2="1338.22" y2="-1.5" transform="matrix(0.692051 -0.712325 0.950819 -0.329026 362.38 1217.34)" stroke="#FF7B00" stroke-opacity="0.5" stroke-width="3"/>
<line y1="-1.5" x2="1338.22" y2="-1.5" transform="matrix(0.692051 -0.712325 0.950819 -0.329026 366.851 1226.08)" stroke="#FF7B00" stroke-opacity="0.5" stroke-width="3"/>
<line y1="-1.5" x2="1338.22" y2="-1.5" transform="matrix(0.692051 -0.712325 0.950819 -0.329026 371.321 1234.83)" stroke="#FF7B00" stroke-opacity="0.5" stroke-width="3"/>
<line y1="-1.5" x2="1338.22" y2="-1.5" transform="matrix(0.692051 -0.712325 0.950819 -0.329026 375.792 1243.57)" stroke="#FF7B00" stroke-opacity="0.5" stroke-width="3"/>
<line y1="-1.5" x2="1338.22" y2="-1.5" transform="matrix(0.69205 -0.712325 0.950819 -0.329026 380.262 1252.31)" stroke="#FF7B00" stroke-opacity="0.5" stroke-width="3"/>
<line y1="-1.5" x2="1338.22" y2="-1.5" transform="matrix(0.69205 -0.712325 0.950819 -0.329026 384.733 1261.06)" stroke="#FF7B00" stroke-opacity="0.5" stroke-width="3"/>
<line y1="-1.5" x2="1338.22" y2="-1.5" transform="matrix(0.692051 -0.712325 0.950819 -0.329026 389.204 1269.8)" stroke="#FF7B00" stroke-opacity="0.5" stroke-width="3"/>
<line y1="-1.5" x2="1338.22" y2="-1.5" transform="matrix(0.692051 -0.712325 0.950819 -0.329026 393.675 1278.54)" stroke="#FF7B00" stroke-opacity="0.5" stroke-width="3"/>
<line y1="-1.5" x2="1338.22" y2="-1.5" transform="matrix(0.692051 -0.712325 0.950819 -0.329026 398.145 1287.29)" stroke="#FF7B00" stroke-opacity="0.5" stroke-width="3"/>
<line y1="-1.5" x2="1338.22" y2="-1.5" transform="matrix(0.69205 -0.712325 0.950819 -0.329026 402.616 1296.03)" stroke="#FF7B00" stroke-opacity="0.5" stroke-width="3"/>
<line y1="-1.5" x2="1338.22" y2="-1.5" transform="matrix(0.692051 -0.712325 0.950819 -0.329026 407.086 1304.78)" stroke="#FF7B00" stroke-opacity="0.5" stroke-width="3"/>
<line y1="-1.5" x2="1338.22" y2="-1.5" transform="matrix(0.692051 -0.712325 0.950819 -0.329026 411.557 1313.52)" stroke="#FF7B00" stroke-opacity="0.5" stroke-width="3"/>
<line y1="-1.5" x2="1338.22" y2="-1.5" transform="matrix(0.69205 -0.712325 0.950819 -0.329026 416.027 1322.26)" stroke="#FF7B00" stroke-opacity="0.5" stroke-width="3"/>
<line y1="-1.5" x2="1338.22" y2="-1.5" transform="matrix(0.692051 -0.712325 0.950819 -0.329026 420.498 1331.01)" stroke="#FF7B00" stroke-opacity="0.5" stroke-width="3"/>
<line y1="-1.5" x2="1338.22" y2="-1.5" transform="matrix(0.692051 -0.712325 0.950819 -0.329026 424.969 1339.75)" stroke="#FF7B00" stroke-opacity="0.5" stroke-width="3"/>
<line y1="-1.5" x2="1338.22" y2="-1.5" transform="matrix(0.692051 -0.712325 0.950819 -0.329026 429.439 1348.49)" stroke="#FF7B00" stroke-opacity="0.5" stroke-width="3"/>
<line y1="-1.5" x2="1338.22" y2="-1.5" transform="matrix(0.692051 -0.712325 0.950819 -0.329026 433.91 1357.24)" stroke="#FF7B00" stroke-opacity="0.5" stroke-width="3"/>
<line y1="-1.5" x2="1338.22" y2="-1.5" transform="matrix(0.692051 -0.712325 0.950819 -0.329026 438.381 1365.98)" stroke="#FF7B00" stroke-opacity="0.5" stroke-width="3"/>
<line y1="-1.5" x2="1338.22" y2="-1.5" transform="matrix(0.692051 -0.712325 0.950819 -0.329026 442.851 1374.72)" stroke="#FF7B00" stroke-opacity="0.5" stroke-width="3"/>
<line y1="-1.5" x2="1338.22" y2="-1.5" transform="matrix(0.69205 -0.712325 0.950819 -0.329026 447.322 1383.47)" stroke="#FF7B00" stroke-opacity="0.5" stroke-width="3"/>
<line y1="-1.5" x2="1338.22" y2="-1.5" transform="matrix(0.692051 -0.712325 0.950819 -0.329026 451.792 1392.21)" stroke="#FF7B00" stroke-opacity="0.5" stroke-width="3"/>
<line y1="-1.5" x2="1338.22" y2="-1.5" transform="matrix(0.692051 -0.712325 0.950819 -0.329026 456.263 1400.96)" stroke="#FF7B00" stroke-opacity="0.5" stroke-width="3"/>
<line y1="-1.5" x2="1338.22" y2="-1.5" transform="matrix(0.692051 -0.712325 0.950819 -0.329026 460.733 1409.7)" stroke="#FF7B00" stroke-opacity="0.5" stroke-width="3"/>
<line y1="-1.5" x2="1338.22" y2="-1.5" transform="matrix(0.692051 -0.712325 0.950819 -0.329026 465.204 1418.44)" stroke="#FF7B00" stroke-opacity="0.5" stroke-width="3"/>
<line y1="-1.5" x2="1338.22" y2="-1.5" transform="matrix(0.692051 -0.712325 0.950819 -0.329026 335.556 1164.88)" stroke="#FF7B00" stroke-opacity="0.5" stroke-width="3"/>
<line y1="-1.5" x2="1338.22" y2="-1.5" transform="matrix(0.692051 -0.712325 0.950819 -0.329026 474.082 1435.81)" stroke="#FF7B00" stroke-opacity="0.5" stroke-width="3"/>
<line y1="-1.5" x2="1338.22" y2="-1.5" transform="matrix(0.692051 -0.712325 0.950819 -0.329026 478.553 1444.55)" stroke="#FF7B00" stroke-opacity="0.5" stroke-width="3"/>
<line y1="-1.5" x2="1338.22" y2="-1.5" transform="matrix(0.692051 -0.712325 0.950819 -0.329026 483.023 1453.29)" stroke="#FF7B00" stroke-opacity="0.5" stroke-width="3"/>
<line y1="-1.5" x2="1338.22" y2="-1.5" transform="matrix(0.692051 -0.712325 0.950819 -0.329026 487.494 1462.04)" stroke="#FF7B00" stroke-opacity="0.5" stroke-width="3"/>
<line y1="-1.5" x2="1338.22" y2="-1.5" transform="matrix(0.692051 -0.712325 0.950819 -0.329026 491.965 1470.78)" stroke="#FF7B00" stroke-opacity="0.5" stroke-width="3"/>
<line y1="-1.5" x2="1338.22" y2="-1.5" transform="matrix(0.692051 -0.712325 0.950819 -0.329026 496.435 1479.53)" stroke="#FF7B00" stroke-opacity="0.5" stroke-width="3"/>
<line y1="-1.5" x2="1338.22" y2="-1.5" transform="matrix(0.692051 -0.712325 0.950819 -0.329026 500.906 1488.27)" stroke="#FF7B00" stroke-opacity="0.5" stroke-width="3"/>
<line y1="-1.5" x2="1338.22" y2="-1.5" transform="matrix(0.692051 -0.712325 0.950819 -0.329026 505.376 1497.01)" stroke="#FF7B00" stroke-opacity="0.5" stroke-width="3"/>
<line y1="-1.5" x2="1338.22" y2="-1.5" transform="matrix(0.692051 -0.712325 0.950819 -0.329026 509.847 1505.76)" stroke="#FF7B00" stroke-opacity="0.5" stroke-width="3"/>
<line y1="-1.5" x2="1338.22" y2="-1.5" transform="matrix(0.692051 -0.712325 0.950819 -0.329026 514.317 1514.5)" stroke="#FF7B00" stroke-opacity="0.5" stroke-width="3"/>
<line y1="-1.5" x2="1338.22" y2="-1.5" transform="matrix(0.692051 -0.712325 0.950819 -0.329026 518.788 1523.24)" stroke="#FF7B00" stroke-opacity="0.5" stroke-width="3"/>
<line y1="-1.5" x2="1338.22" y2="-1.5" transform="matrix(0.692051 -0.712325 0.950819 -0.329026 523.259 1531.99)" stroke="#FF7B00" stroke-opacity="0.5" stroke-width="3"/>
<line y1="-1.5" x2="1338.22" y2="-1.5" transform="matrix(0.692051 -0.712325 0.950819 -0.329026 527.729 1540.73)" stroke="#FF7B00" stroke-opacity="0.5" stroke-width="3"/>
<line y1="-1.5" x2="1338.22" y2="-1.5" transform="matrix(0.692051 -0.712325 0.950819 -0.329026 532.2 1549.47)" stroke="#FF7B00" stroke-opacity="0.5" stroke-width="3"/>
<line y1="-1.5" x2="1338.22" y2="-1.5" transform="matrix(0.692051 -0.712325 0.950819 -0.329026 536.67 1558.22)" stroke="#FF7B00" stroke-opacity="0.5" stroke-width="3"/>
<line y1="-1.5" x2="1338.22" y2="-1.5" transform="matrix(0.692051 -0.712325 0.950819 -0.329026 541.141 1566.96)" stroke="#FF7B00" stroke-opacity="0.5" stroke-width="3"/>
<line y1="-1.5" x2="1338.22" y2="-1.5" transform="matrix(0.692051 -0.712325 0.950819 -0.329026 545.612 1575.71)" stroke="#FF7B00" stroke-opacity="0.5" stroke-width="3"/>
<line y1="-1.5" x2="1338.22" y2="-1.5" transform="matrix(0.692051 -0.712325 0.950819 -0.329026 550.082 1584.45)" stroke="#FF7B00" stroke-opacity="0.5" stroke-width="3"/>
<line y1="-1.5" x2="1338.22" y2="-1.5" transform="matrix(0.692051 -0.712325 0.950819 -0.329026 554.553 1593.19)" stroke="#FF7B00" stroke-opacity="0.5" stroke-width="3"/>
<line y1="-1.5" x2="1338.22" y2="-1.5" transform="matrix(0.692051 -0.712325 0.950819 -0.329026 469.612 1427.06)" stroke="#FF7B00" stroke-opacity="0.5" stroke-width="3"/>
<line y1="-1.5" x2="1338.22" y2="-1.5" transform="matrix(0.692051 -0.712325 0.950819 -0.329026 -204.336 132.567)" stroke="#FF7B00" stroke-opacity="0.5" stroke-width="3"/>
<line y1="-1.5" x2="1338.22" y2="-1.5" transform="matrix(0.692051 -0.712325 0.950819 -0.329026 -199.865 141.311)" stroke="#FF7B00" stroke-opacity="0.5" stroke-width="3"/>
<line y1="-1.5" x2="1338.22" y2="-1.5" transform="matrix(0.692051 -0.712325 0.950819 -0.329026 -195.394 150.055)" stroke="#FF7B00" stroke-opacity="0.5" stroke-width="3"/>
<line y1="-1.5" x2="1338.22" y2="-1.5" transform="matrix(0.692051 -0.712325 0.950819 -0.329026 -190.924 158.798)" stroke="#FF7B00" stroke-opacity="0.5" stroke-width="3"/>
<line y1="-1.5" x2="1338.22" y2="-1.5" transform="matrix(0.692051 -0.712325 0.950819 -0.329026 -186.453 167.542)" stroke="#FF7B00" stroke-opacity="0.5" stroke-width="3"/>
<line y1="-1.5" x2="1338.22" y2="-1.5" transform="matrix(0.692051 -0.712325 0.950819 -0.329026 -181.982 176.286)" stroke="#FF7B00" stroke-opacity="0.5" stroke-width="3"/>
<line y1="-1.5" x2="1338.22" y2="-1.5" transform="matrix(0.692051 -0.712325 0.950819 -0.329026 -177.512 185.029)" stroke="#FF7B00" stroke-opacity="0.5" stroke-width="3"/>
<line y1="-1.5" x2="1338.22" y2="-1.5" transform="matrix(0.692051 -0.712325 0.950819 -0.329026 -173.041 193.773)" stroke="#FF7B00" stroke-opacity="0.5" stroke-width="3"/>
<line y1="-1.5" x2="1338.22" y2="-1.5" transform="matrix(0.692051 -0.712325 0.950819 -0.329026 -168.571 202.517)" stroke="#FF7B00" stroke-opacity="0.5" stroke-width="3"/>
<line y1="-1.5" x2="1338.22" y2="-1.5" transform="matrix(0.692051 -0.712325 0.950819 -0.329026 -164.1 211.261)" stroke="#FF7B00" stroke-opacity="0.5" stroke-width="3"/>
<line y1="-1.5" x2="1338.22" y2="-1.5" transform="matrix(0.692051 -0.712325 0.950819 -0.329026 -159.629 220.004)" stroke="#FF7B00" stroke-opacity="0.5" stroke-width="3"/>
<line y1="-1.5" x2="1338.22" y2="-1.5" transform="matrix(0.692051 -0.712325 0.950819 -0.329026 -155.158 228.748)" stroke="#FF7B00" stroke-opacity="0.5" stroke-width="3"/>
<line y1="-1.5" x2="1338.22" y2="-1.5" transform="matrix(0.692051 -0.712325 0.950819 -0.329026 -150.688 237.492)" stroke="#FF7B00" stroke-opacity="0.5" stroke-width="3"/>
<line y1="-1.5" x2="1338.22" y2="-1.5" transform="matrix(0.692051 -0.712325 0.950819 -0.329026 -146.217 246.236)" stroke="#FF7B00" stroke-opacity="0.5" stroke-width="3"/>
<line y1="-1.5" x2="1338.22" y2="-1.5" transform="matrix(0.692051 -0.712325 0.950819 -0.329026 -141.746 254.981)" stroke="#FF7B00" stroke-opacity="0.5" stroke-width="3"/>
<line y1="-1.5" x2="1338.22" y2="-1.5" transform="matrix(0.692051 -0.712325 0.950819 -0.329026 -137.275 263.725)" stroke="#FF7B00" stroke-opacity="0.5" stroke-width="3"/>
<line y1="-1.5" x2="1338.22" y2="-1.5" transform="matrix(0.692051 -0.712325 0.950819 -0.329026 -132.805 272.468)" stroke="#FF7B00" stroke-opacity="0.5" stroke-width="3"/>
<line y1="-1.5" x2="1338.22" y2="-1.5" transform="matrix(0.692051 -0.712325 0.950819 -0.329026 -128.334 281.213)" stroke="#FF7B00" stroke-opacity="0.5" stroke-width="3"/>
<line y1="-1.5" x2="1338.22" y2="-1.5" transform="matrix(0.692051 -0.712325 0.950819 -0.329026 -123.863 289.956)" stroke="#FF7B00" stroke-opacity="0.5" stroke-width="3"/>
<line y1="-1.5" x2="1338.22" y2="-1.5" transform="matrix(0.692051 -0.712325 0.950819 -0.329026 -119.393 298.7)" stroke="#FF7B00" stroke-opacity="0.5" stroke-width="3"/>
<line y1="-1.5" x2="1338.22" y2="-1.5" transform="matrix(0.692051 -0.712325 0.950819 -0.329026 -114.922 307.444)" stroke="#FF7B00" stroke-opacity="0.5" stroke-width="3"/>
<line y1="-1.5" x2="1338.22" y2="-1.5" transform="matrix(0.692051 -0.712325 0.950819 -0.329026 -110.451 316.187)" stroke="#FF7B00" stroke-opacity="0.5" stroke-width="3"/>
<line y1="-1.5" x2="1338.22" y2="-1.5" transform="matrix(0.692051 -0.712325 0.950819 -0.329026 -105.981 324.931)" stroke="#FF7B00" stroke-opacity="0.5" stroke-width="3"/>
<line y1="-1.5" x2="1338.22" y2="-1.5" transform="matrix(0.692051 -0.712325 0.950819 -0.329026 -101.51 333.675)" stroke="#FF7B00" stroke-opacity="0.5" stroke-width="3"/>
<line y1="-1.5" x2="1338.22" y2="-1.5" transform="matrix(0.692051 -0.712325 0.950819 -0.329026 -97.0393 342.419)" stroke="#FF7B00" stroke-opacity="0.5" stroke-width="3"/>
<line y1="-1.5" x2="1338.22" y2="-1.5" transform="matrix(0.692051 -0.712325 0.950819 -0.329026 -92.5686 351.162)" stroke="#FF7B00" stroke-opacity="0.5" stroke-width="3"/>
<line y1="-1.5" x2="1338.22" y2="-1.5" transform="matrix(0.692051 -0.712325 0.950819 -0.329026 -88.0981 359.906)" stroke="#FF7B00" stroke-opacity="0.5" stroke-width="3"/>
<line y1="-1.5" x2="1338.22" y2="-1.5" transform="matrix(0.692051 -0.712325 0.950819 -0.329026 -83.6274 368.65)" stroke="#FF7B00" stroke-opacity="0.5" stroke-width="3"/>
<line y1="-1.5" x2="1338.22" y2="-1.5" transform="matrix(0.692051 -0.712325 0.950819 -0.329026 -79.1567 377.394)" stroke="#FF7B00" stroke-opacity="0.5" stroke-width="3"/>
<line y1="-1.5" x2="1338.22" y2="-1.5" transform="matrix(0.692051 -0.712325 0.950819 -0.329026 -208.806 123.823)" stroke="#FF7B00" stroke-opacity="0.5" stroke-width="3"/>
<line y1="-1.5" x2="1338.22" y2="-1.5" transform="matrix(0.692051 -0.712325 0.950819 -0.329026 -70.2788 394.757)" stroke="#FF7B00" stroke-opacity="0.5" stroke-width="3"/>
<line y1="-1.5" x2="1338.22" y2="-1.5" transform="matrix(0.692051 -0.712325 0.950819 -0.329026 -65.8081 403.501)" stroke="#FF7B00" stroke-opacity="0.5" stroke-width="3"/>
<line y1="-1.5" x2="1338.22" y2="-1.5" transform="matrix(0.692051 -0.712325 0.950819 -0.329026 -61.3374 412.245)" stroke="#FF7B00" stroke-opacity="0.5" stroke-width="3"/>
<line y1="-1.5" x2="1338.22" y2="-1.5" transform="matrix(0.692051 -0.712325 0.950819 -0.329026 -56.8669 420.989)" stroke="#FF7B00" stroke-opacity="0.5" stroke-width="3"/>
<line y1="-1.5" x2="1338.22" y2="-1.5" transform="matrix(0.692051 -0.712325 0.950819 -0.329026 -52.3962 429.733)" stroke="#FF7B00" stroke-opacity="0.5" stroke-width="3"/>
<line y1="-1.5" x2="1338.22" y2="-1.5" transform="matrix(0.692051 -0.712325 0.950819 -0.329026 -47.9258 438.476)" stroke="#FF7B00" stroke-opacity="0.5" stroke-width="3"/>
<line y1="-1.5" x2="1338.22" y2="-1.5" transform="matrix(0.692051 -0.712325 0.950819 -0.329026 -43.4551 447.22)" stroke="#FF7B00" stroke-opacity="0.5" stroke-width="3"/>
<line y1="-1.5" x2="1338.22" y2="-1.5" transform="matrix(0.692051 -0.712325 0.950819 -0.329026 -38.9844 455.964)" stroke="#FF7B00" stroke-opacity="0.5" stroke-width="3"/>
<line y1="-1.5" x2="1338.22" y2="-1.5" transform="matrix(0.692051 -0.712325 0.950819 -0.329026 -34.5142 464.707)" stroke="#FF7B00" stroke-opacity="0.5" stroke-width="3"/>
<line y1="-1.5" x2="1338.22" y2="-1.5" transform="matrix(0.692051 -0.712325 0.950819 -0.329026 -30.0432 473.451)" stroke="#FF7B00" stroke-opacity="0.5" stroke-width="3"/>
<line y1="-1.5" x2="1338.22" y2="-1.5" transform="matrix(0.692051 -0.712325 0.950819 -0.329026 -25.5725 482.195)" stroke="#FF7B00" stroke-opacity="0.5" stroke-width="3"/>
<line y1="-1.5" x2="1338.22" y2="-1.5" transform="matrix(0.692051 -0.712325 0.950819 -0.329026 -21.1018 490.939)" stroke="#FF7B00" stroke-opacity="0.5" stroke-width="3"/>
<line y1="-1.5" x2="1338.22" y2="-1.5" transform="matrix(0.692051 -0.712325 0.950819 -0.329026 -16.6313 499.682)" stroke="#FF7B00" stroke-opacity="0.5" stroke-width="3"/>
<line y1="-1.5" x2="1338.22" y2="-1.5" transform="matrix(0.692051 -0.712325 0.950819 -0.329026 -12.1616 508.424)" stroke="#FF7B00" stroke-opacity="0.5" stroke-width="3"/>
<line y1="-1.5" x2="1338.22" y2="-1.5" transform="matrix(0.692051 -0.712325 0.950819 -0.329026 -7.69067 517.168)" stroke="#FF7B00" stroke-opacity="0.5" stroke-width="3"/>
<line y1="-1.5" x2="1338.22" y2="-1.5" transform="matrix(0.692051 -0.712325 0.950819 -0.329026 -3.2207 525.911)" stroke="#FF7B00" stroke-opacity="0.5" stroke-width="3"/>
<line y1="-1.5" x2="1338.22" y2="-1.5" transform="matrix(0.692051 -0.712325 0.950819 -0.329026 1.25024 534.655)" stroke="#FF7B00" stroke-opacity="0.5" stroke-width="3"/>
<line y1="-1.5" x2="1338.22" y2="-1.5" transform="matrix(0.692051 -0.712325 0.950819 -0.329026 5.72095 543.398)" stroke="#FF7B00" stroke-opacity="0.5" stroke-width="3"/>
<line y1="-1.5" x2="1338.22" y2="-1.5" transform="matrix(0.692051 -0.712325 0.950819 -0.329026 10.1914 552.142)" stroke="#FF7B00" stroke-opacity="0.5" stroke-width="3"/>
<line y1="-1.5" x2="1338.22" y2="-1.5" transform="matrix(0.692051 -0.712325 0.950819 -0.329026 14.6619 560.886)" stroke="#FF7B00" stroke-opacity="0.5" stroke-width="3"/>
<line y1="-1.5" x2="1338.22" y2="-1.5" transform="matrix(0.692051 -0.712325 0.950819 -0.329026 19.1326 569.63)" stroke="#FF7B00" stroke-opacity="0.5" stroke-width="3"/>
<line y1="-1.5" x2="1338.22" y2="-1.5" transform="matrix(0.692051 -0.712325 0.950819 -0.329026 23.6033 578.374)" stroke="#FF7B00" stroke-opacity="0.5" stroke-width="3"/>
<line y1="-1.5" x2="1338.22" y2="-1.5" transform="matrix(0.692051 -0.712325 0.950819 -0.329026 28.0742 587.117)" stroke="#FF7B00" stroke-opacity="0.5" stroke-width="3"/>
<line y1="-1.5" x2="1338.22" y2="-1.5" transform="matrix(0.692051 -0.712325 0.950819 -0.329026 32.5447 595.861)" stroke="#FF7B00" stroke-opacity="0.5" stroke-width="3"/>
<line y1="-1.5" x2="1338.22" y2="-1.5" transform="matrix(0.692051 -0.712325 0.950819 -0.329026 37.0154 604.605)" stroke="#FF7B00" stroke-opacity="0.5" stroke-width="3"/>
<line y1="-1.5" x2="1338.22" y2="-1.5" transform="matrix(0.692051 -0.712325 0.950819 -0.329026 41.4861 613.349)" stroke="#FF7B00" stroke-opacity="0.5" stroke-width="3"/>
<line y1="-1.5" x2="1338.22" y2="-1.5" transform="matrix(0.692051 -0.712325 0.950819 -0.329026 45.9565 622.092)" stroke="#FF7B00" stroke-opacity="0.5" stroke-width="3"/>
<line y1="-1.5" x2="1338.22" y2="-1.5" transform="matrix(0.692051 -0.712325 0.950819 -0.329026 50.427 630.836)" stroke="#FF7B00" stroke-opacity="0.5" stroke-width="3"/>
<line y1="-1.5" x2="1338.22" y2="-1.5" transform="matrix(0.692051 -0.712325 0.950819 -0.329026 54.8975 639.579)" stroke="#FF7B00" stroke-opacity="0.5" stroke-width="3"/>
<line y1="-1.5" x2="1338.22" y2="-1.5" transform="matrix(0.692051 -0.712325 0.950819 -0.329026 -74.7493 386.014)" stroke="#FF7B00" stroke-opacity="0.5" stroke-width="3"/>
<line y1="-1.5" x2="1338.22" y2="-1.5" transform="matrix(0.692051 -0.712325 0.950819 -0.329026 63.7759 656.943)" stroke="#FF7B00" stroke-opacity="0.5" stroke-width="3"/>
<line y1="-1.5" x2="1338.22" y2="-1.5" transform="matrix(0.692051 -0.712325 0.950819 -0.329026 68.2463 665.687)" stroke="#FF7B00" stroke-opacity="0.5" stroke-width="3"/>
<line y1="-1.5" x2="1338.22" y2="-1.5" transform="matrix(0.692051 -0.712325 0.950819 -0.329026 72.717 674.431)" stroke="#FF7B00" stroke-opacity="0.5" stroke-width="3"/>
<line y1="-1.5" x2="1338.22" y2="-1.5" transform="matrix(0.692051 -0.712325 0.950819 -0.329026 77.1877 683.175)" stroke="#FF7B00" stroke-opacity="0.5" stroke-width="3"/>
<line y1="-1.5" x2="1338.22" y2="-1.5" transform="matrix(0.692051 -0.712325 0.950819 -0.329026 81.6582 691.918)" stroke="#FF7B00" stroke-opacity="0.5" stroke-width="3"/>
<line y1="-1.5" x2="1338.22" y2="-1.5" transform="matrix(0.692051 -0.712325 0.950819 -0.329026 86.1287 700.662)" stroke="#FF7B00" stroke-opacity="0.5" stroke-width="3"/>
<line y1="-1.5" x2="1338.22" y2="-1.5" transform="matrix(0.692051 -0.712325 0.950819 -0.329026 90.5996 709.406)" stroke="#FF7B00" stroke-opacity="0.5" stroke-width="3"/>
<line y1="-1.5" x2="1338.22" y2="-1.5" transform="matrix(0.692051 -0.712325 0.950819 -0.329026 95.0703 718.149)" stroke="#FF7B00" stroke-opacity="0.5" stroke-width="3"/>
<line y1="-1.5" x2="1338.22" y2="-1.5" transform="matrix(0.692051 -0.712325 0.950819 -0.329026 99.5408 726.893)" stroke="#FF7B00" stroke-opacity="0.5" stroke-width="3"/>
<line y1="-1.5" x2="1338.22" y2="-1.5" transform="matrix(0.692051 -0.712325 0.950819 -0.329026 104.011 735.637)" stroke="#FF7B00" stroke-opacity="0.5" stroke-width="3"/>
<line y1="-1.5" x2="1338.22" y2="-1.5" transform="matrix(0.692051 -0.712325 0.950819 -0.329026 108.482 744.381)" stroke="#FF7B00" stroke-opacity="0.5" stroke-width="3"/>
<line y1="-1.5" x2="1338.22" y2="-1.5" transform="matrix(0.692051 -0.712325 0.950819 -0.329026 112.953 753.124)" stroke="#FF7B00" stroke-opacity="0.5" stroke-width="3"/>
<line y1="-1.5" x2="1338.22" y2="-1.5" transform="matrix(0.692051 -0.712325 0.950819 -0.329026 117.424 761.868)" stroke="#FF7B00" stroke-opacity="0.5" stroke-width="3"/>
<line y1="-1.5" x2="1338.22" y2="-1.5" transform="matrix(0.692051 -0.712325 0.950819 -0.329026 121.894 770.612)" stroke="#FF7B00" stroke-opacity="0.5" stroke-width="3"/>
<line y1="-1.5" x2="1338.22" y2="-1.5" transform="matrix(0.692051 -0.712325 0.950819 -0.329026 126.364 779.355)" stroke="#FF7B00" stroke-opacity="0.5" stroke-width="3"/>
<line y1="-1.5" x2="1338.22" y2="-1.5" transform="matrix(0.692051 -0.712325 0.950819 -0.329026 130.835 788.099)" stroke="#FF7B00" stroke-opacity="0.5" stroke-width="3"/>
<line y1="-1.5" x2="1338.22" y2="-1.5" transform="matrix(0.69205 -0.712325 0.950819 -0.329026 135.306 796.843)" stroke="#FF7B00" stroke-opacity="0.5" stroke-width="3"/>
<line y1="-1.5" x2="1338.22" y2="-1.5" transform="matrix(0.692051 -0.712325 0.950819 -0.329026 139.776 805.587)" stroke="#FF7B00" stroke-opacity="0.5" stroke-width="3"/>
<line y1="-1.5" x2="1338.22" y2="-1.5" transform="matrix(0.692051 -0.712325 0.950819 -0.329026 144.247 814.331)" stroke="#FF7B00" stroke-opacity="0.5" stroke-width="3"/>
<line y1="-1.5" x2="1338.22" y2="-1.5" transform="matrix(0.692051 -0.712325 0.950819 -0.329026 148.718 823.074)" stroke="#FF7B00" stroke-opacity="0.5" stroke-width="3"/>
<line y1="-1.5" x2="1338.22" y2="-1.5" transform="matrix(0.692051 -0.712325 0.950819 -0.329026 153.188 831.818)" stroke="#FF7B00" stroke-opacity="0.5" stroke-width="3"/>
<line y1="-1.5" x2="1338.22" y2="-1.5" transform="matrix(0.692051 -0.712325 0.950819 -0.329026 157.659 840.562)" stroke="#FF7B00" stroke-opacity="0.5" stroke-width="3"/>
<line y1="-1.5" x2="1338.22" y2="-1.5" transform="matrix(0.692051 -0.712325 0.950819 -0.329026 162.13 849.306)" stroke="#FF7B00" stroke-opacity="0.5" stroke-width="3"/>
<line y1="-1.5" x2="1338.22" y2="-1.5" transform="matrix(0.692051 -0.712325 0.950819 -0.329026 166.6 858.049)" stroke="#FF7B00" stroke-opacity="0.5" stroke-width="3"/>
<line y1="-1.5" x2="1338.22" y2="-1.5" transform="matrix(0.692051 -0.712325 0.950819 -0.329026 171.071 866.793)" stroke="#FF7B00" stroke-opacity="0.5" stroke-width="3"/>
<line y1="-1.5" x2="1338.22" y2="-1.5" transform="matrix(0.692051 -0.712325 0.950819 -0.329026 175.542 875.537)" stroke="#FF7B00" stroke-opacity="0.5" stroke-width="3"/>
<line y1="-1.5" x2="1338.22" y2="-1.5" transform="matrix(0.692051 -0.712325 0.950819 -0.329026 180.012 884.28)" stroke="#FF7B00" stroke-opacity="0.5" stroke-width="3"/>
<line y1="-1.5" x2="1338.22" y2="-1.5" transform="matrix(0.692051 -0.712325 0.950819 -0.329026 184.483 893.024)" stroke="#FF7B00" stroke-opacity="0.5" stroke-width="3"/>
<line y1="-1.5" x2="1338.22" y2="-1.5" transform="matrix(0.692051 -0.712325 0.950819 -0.329026 188.954 901.768)" stroke="#FF7B00" stroke-opacity="0.5" stroke-width="3"/>
<line y1="-1.5" x2="1338.22" y2="-1.5" transform="matrix(0.692051 -0.712325 0.950819 -0.329026 59.3054 648.2)" stroke="#FF7B00" stroke-opacity="0.5" stroke-width="3"/>
</g>
</svg>
