<?xml version="1.0" encoding="UTF-8" standalone="no"?>
<!DOCTYPE svg PUBLIC "-//W3C//DTD SVG 1.1//EN" "http://www.w3.org/Graphics/SVG/1.1/DTD/svg11.dtd">
<svg width="100%" height="100%" viewBox="0 0 204 204" version="1.1" xmlns="http://www.w3.org/2000/svg" xmlns:xlink="http://www.w3.org/1999/xlink" xml:space="preserve" xmlns:serif="http://www.serif.com/" style="fill-rule:evenodd;clip-rule:evenodd;stroke-linejoin:round;stroke-miterlimit:2;">
    <g transform="matrix(1,0,0,1,-1432,-3322)">
        <g transform="matrix(4.16667,0,0,4.16667,0,0)">
            <path d="M380.928,822.124L356.401,822.124L356.401,806.098L380.928,806.098L380.928,822.124ZM381.708,804.537L355.621,804.537C355.19,804.537 354.84,804.887 354.84,805.318L354.84,822.904C354.84,823.335 355.19,823.684 355.621,823.684L381.708,823.684C382.139,823.684 382.488,823.335 382.488,822.904L382.488,805.318C382.488,804.887 382.139,804.537 381.708,804.537Z" style="fill:rgb(255,87,51);fill-rule:nonzero;"/>
            <path d="M391.391,833.413L346.126,833.413L346.126,832.854L391.391,832.854L391.391,833.413ZM351.683,829.72L385.651,829.72L388.834,831.294L348.595,831.294L351.683,829.72ZM352.275,802.873L385.053,802.873L385.053,828.158L352.275,828.158L352.275,802.873ZM392.94,831.946C392.937,831.928 392.933,831.91 392.929,831.893C392.922,831.863 392.913,831.835 392.903,831.807C392.896,831.79 392.891,831.772 392.883,831.756C392.869,831.725 392.853,831.695 392.834,831.667C392.828,831.656 392.823,831.644 392.816,831.634C392.79,831.595 392.76,831.559 392.727,831.526C392.719,831.518 392.709,831.511 392.7,831.503C392.675,831.479 392.648,831.456 392.619,831.436C392.604,831.425 392.588,831.417 392.572,831.407C392.554,831.396 392.537,831.384 392.518,831.375L386.614,828.454L386.614,802.092C386.614,801.661 386.265,801.312 385.833,801.312L351.495,801.312C351.063,801.312 350.714,801.661 350.714,802.092L350.714,828.461L344.992,831.379C344.975,831.387 344.96,831.398 344.944,831.408C344.928,831.418 344.912,831.428 344.896,831.438C344.87,831.457 344.846,831.478 344.822,831.5C344.811,831.51 344.799,831.519 344.789,831.529C344.756,831.562 344.727,831.598 344.7,831.637C344.697,831.641 344.695,831.646 344.692,831.651C344.67,831.686 344.65,831.721 344.633,831.759C344.626,831.774 344.622,831.791 344.616,831.808C344.605,831.836 344.596,831.864 344.588,831.895C344.585,831.912 344.582,831.93 344.579,831.948C344.574,831.979 344.57,832.011 344.569,832.043C344.569,832.053 344.566,832.063 344.566,832.074L344.566,834.193C344.566,834.624 344.915,834.974 345.346,834.974L392.172,834.974C392.603,834.974 392.953,834.624 392.953,834.193L392.953,832.074C392.953,832.063 392.95,832.053 392.949,832.042C392.948,832.01 392.945,831.978 392.94,831.946Z" style="fill:rgb(255,87,51);fill-rule:nonzero;"/>
            <path d="M368.977,826.546C368.568,826.546 368.235,826.213 368.235,825.805C368.235,825.396 368.568,825.063 368.977,825.063C369.385,825.063 369.718,825.396 369.718,825.805C369.718,826.213 369.385,826.546 368.977,826.546ZM368.977,824.126C368.051,824.126 367.299,824.879 367.299,825.805C367.299,826.729 368.051,827.482 368.977,827.482C369.902,827.482 370.654,826.729 370.654,825.805C370.654,824.879 369.902,824.126 368.977,824.126Z" style="fill:rgb(255,87,51);fill-rule:nonzero;"/>
        </g>
    </g>
</svg>
