<?xml version="1.0" encoding="UTF-8" standalone="no"?>
<!DOCTYPE svg PUBLIC "-//W3C//DTD SVG 1.1//EN" "http://www.w3.org/Graphics/SVG/1.1/DTD/svg11.dtd">
<svg width="100%" height="100%" viewBox="0 0 206 206" version="1.1" xmlns="http://www.w3.org/2000/svg" xmlns:xlink="http://www.w3.org/1999/xlink" xml:space="preserve" xmlns:serif="http://www.serif.com/" style="fill-rule:evenodd;clip-rule:evenodd;stroke-linejoin:round;stroke-miterlimit:2;">
    <g transform="matrix(1,0,0,1,-3049,-2506)">
        <g transform="matrix(4.16667,0,0,4.16667,0,0)">
            <path d="M772.739,637.872L760.626,637.872L760.626,622.001L772.739,622.001L772.739,637.872ZM759.117,637.872L742.15,637.872L742.15,604.825L759.117,604.825L759.117,637.872ZM774.043,620.696L760.422,620.696L760.422,603.521L740.846,603.521L740.846,638.433L730.992,638.433L730.992,639.737L781.319,639.737L781.319,638.433L774.043,638.433L774.043,620.696Z" style="fill:rgb(255,87,51);fill-rule:nonzero;"/>
            <path d="M749.069,611.4L746.182,611.4L746.182,609.109L749.069,609.109L749.069,611.4ZM749.722,608.457L745.53,608.457L745.53,612.053L749.722,612.053L749.722,608.457Z" style="fill:rgb(255,87,51);fill-rule:nonzero;"/>
            <path d="M755.085,611.4L752.198,611.4L752.198,609.109L755.085,609.109L755.085,611.4ZM755.737,608.457L751.546,608.457L751.546,612.053L755.737,612.053L755.737,608.457Z" style="fill:rgb(255,87,51);fill-rule:nonzero;"/>
            <path d="M755.085,616.075L752.198,616.075L752.198,613.785L755.085,613.785L755.085,616.075ZM755.737,613.133L751.546,613.133L751.546,616.728L755.737,616.728L755.737,613.133Z" style="fill:rgb(255,87,51);fill-rule:nonzero;"/>
            <path d="M755.085,624.346L752.198,624.346L752.198,622.055L755.085,622.055L755.085,624.346ZM755.737,621.402L751.546,621.402L751.546,624.998L755.737,624.998L755.737,621.402Z" style="fill:rgb(255,87,51);fill-rule:nonzero;"/>
            <path d="M755.085,632.553L752.198,632.553L752.198,630.263L755.085,630.263L755.085,632.553ZM755.737,629.61L751.546,629.61L751.546,633.205L755.737,633.205L755.737,629.61Z" style="fill:rgb(255,87,51);fill-rule:nonzero;"/>
            <path d="M749.069,632.553L746.182,632.553L746.182,630.263L749.069,630.263L749.069,632.553ZM749.722,629.61L745.53,629.61L745.53,633.205L749.722,633.205L749.722,629.61Z" style="fill:rgb(255,87,51);fill-rule:nonzero;"/>
            <path d="M765.78,626.356L762.893,626.356L762.893,624.065L765.78,624.065L765.78,626.356ZM766.433,623.413L762.241,623.413L762.241,627.009L766.433,627.009L766.433,623.413Z" style="fill:rgb(255,87,51);fill-rule:nonzero;"/>
            <path d="M771.038,632.165L768.151,632.165L768.151,629.874L771.038,629.874L771.038,632.165ZM771.69,629.222L767.499,629.222L767.499,632.816L771.69,632.816L771.69,629.222Z" style="fill:rgb(255,87,51);fill-rule:nonzero;"/>
        </g>
    </g>
</svg>
