<?xml version="1.0" encoding="UTF-8" standalone="no"?>
<!DOCTYPE svg PUBLIC "-//W3C//DTD SVG 1.1//EN" "http://www.w3.org/Graphics/SVG/1.1/DTD/svg11.dtd">
<svg width="100%" height="100%" viewBox="0 0 146 146" version="1.1" xmlns="http://www.w3.org/2000/svg" xmlns:xlink="http://www.w3.org/1999/xlink" xml:space="preserve" xmlns:serif="http://www.serif.com/" style="fill-rule:evenodd;clip-rule:evenodd;stroke-linejoin:round;stroke-miterlimit:2;">
    <g transform="matrix(1,0,0,1,-3883,-3605)">
        <g transform="matrix(4.16667,0,0,4.16667,0,0)">
            <path d="M939.483,870.188C940.127,870.015 940.829,869.923 941.558,869.923C944.287,869.923 947.395,871.216 949.252,874.443C949.377,874.66 949.61,874.794 949.859,874.79C950.109,874.788 950.339,874.651 950.46,874.432C952.581,870.587 956.935,869.412 960.138,870.237C963.265,871.042 965.132,873.5 965.132,876.809C965.132,884.412 952.296,894.178 949.853,895.968C947.41,894.178 934.574,884.412 934.574,876.809C934.574,873.484 936.409,871.009 939.483,870.188ZM949.455,897.391C949.574,897.475 949.714,897.517 949.853,897.517C949.992,897.517 950.132,897.475 950.251,897.391C950.915,896.925 966.519,885.887 966.519,876.809C966.519,872.886 964.206,869.853 960.484,868.894C957.043,868.008 952.462,869.108 949.845,872.805C947.029,868.879 942.426,867.966 939.125,868.848C935.463,869.827 933.188,872.877 933.188,876.809C933.188,885.887 948.791,896.925 949.455,897.391Z" style="fill:rgb(255,87,51);fill-rule:nonzero;"/>
            <path d="M945.888,885.055L945.888,883.192L948.978,883.192L948.978,879.974L950.728,879.974L950.728,883.192L953.817,883.192L953.817,885.055L950.728,885.055L950.728,888.275L948.978,888.275L948.978,885.055L945.888,885.055ZM948.053,889.2L951.652,889.2L951.652,885.98L954.741,885.98L954.741,882.268L951.652,882.268L951.652,879.049L948.053,879.049L948.053,882.268L944.964,882.268L944.964,885.98L948.053,885.98L948.053,889.2Z" style="fill:rgb(255,87,51);fill-rule:nonzero;"/>
        </g>
    </g>
</svg>
