<?xml version="1.0" encoding="UTF-8" standalone="no"?>
<!DOCTYPE svg PUBLIC "-//W3C//DTD SVG 1.1//EN" "http://www.w3.org/Graphics/SVG/1.1/DTD/svg11.dtd">
<svg width="100%" height="100%" viewBox="0 0 161 161" version="1.1" xmlns="http://www.w3.org/2000/svg" xmlns:xlink="http://www.w3.org/1999/xlink" xml:space="preserve" xmlns:serif="http://www.serif.com/" style="fill-rule:evenodd;clip-rule:evenodd;stroke-linejoin:round;stroke-miterlimit:2;">
    <g transform="matrix(1,0,0,1,-378,-4152)">
        <g transform="matrix(4.16667,0,0,4.16667,0,0)">
            <path d="M97.678,1020.44L93.632,1020.44L93.632,1012.41L97.678,1012.41L97.678,1020.44ZM98.781,1020.99L98.781,1011.86C98.781,1011.56 98.534,1011.31 98.23,1011.31L93.081,1011.31C92.775,1011.31 92.529,1011.56 92.529,1011.86L92.529,1020.99C92.529,1021.3 92.775,1021.54 93.081,1021.54L98.23,1021.54C98.534,1021.54 98.781,1021.3 98.781,1020.99Z" style="fill:rgb(255,87,51);fill-rule:nonzero;"/>
            <path d="M109.997,1026.74L101.081,1020.7L101.081,1012.11L109.997,1004.15L109.997,1026.74ZM110.181,1002.51L100.161,1011.45C100.044,1011.55 99.977,1011.7 99.977,1011.86L99.977,1020.99C99.977,1021.17 100.067,1021.35 100.219,1021.45L110.239,1028.24C110.332,1028.3 110.44,1028.33 110.548,1028.33C110.637,1028.33 110.726,1028.31 110.807,1028.27C110.987,1028.17 111.1,1027.99 111.1,1027.78L111.1,1002.92C111.1,1002.71 110.972,1002.51 110.774,1002.42C110.575,1002.33 110.343,1002.37 110.181,1002.51Z" style="fill:rgb(255,87,51);fill-rule:nonzero;"/>
            <path d="M121.954,1026.59C124.728,1023.9 126.255,1020.29 126.255,1016.43C126.255,1012.56 124.728,1008.95 121.954,1006.26C121.736,1006.05 121.731,1005.7 121.943,1005.48C122.051,1005.37 122.195,1005.31 122.338,1005.31C122.477,1005.31 122.616,1005.36 122.723,1005.47C125.712,1008.37 127.358,1012.26 127.358,1016.43C127.358,1020.59 125.712,1024.48 122.723,1027.38C122.505,1027.6 122.154,1027.59 121.943,1027.37C121.842,1027.27 121.787,1027.13 121.787,1026.99C121.787,1026.84 121.846,1026.7 121.954,1026.59ZM120.683,1026.99C120.683,1027.42 120.85,1027.83 121.151,1028.14C121.475,1028.48 121.907,1028.64 122.338,1028.64C122.754,1028.64 123.171,1028.49 123.492,1028.18C126.697,1025.06 128.462,1020.89 128.462,1016.43C128.462,1011.96 126.697,1007.79 123.492,1004.68C122.837,1004.04 121.788,1004.06 121.151,1004.71C120.516,1005.36 120.531,1006.41 121.185,1007.05C123.743,1009.54 125.151,1012.87 125.151,1016.43C125.151,1019.99 123.743,1023.32 121.185,1025.8C120.861,1026.12 120.683,1026.54 120.683,1026.99Z" style="fill:rgb(255,87,51);fill-rule:nonzero;"/>
            <path d="M115.447,1022.72C117.186,1021.06 118.143,1018.83 118.143,1016.43C118.143,1014.03 117.186,1011.79 115.447,1010.13C115.34,1010.03 115.279,1009.89 115.276,1009.74C115.273,1009.59 115.327,1009.45 115.429,1009.35C115.531,1009.24 115.667,1009.18 115.815,1009.18L115.828,1009.18C115.971,1009.18 116.105,1009.23 116.209,1009.33C118.167,1011.2 119.247,1013.72 119.247,1016.43C119.247,1019.13 118.167,1021.65 116.208,1023.52C116.102,1023.62 115.96,1023.69 115.815,1023.67C115.667,1023.67 115.531,1023.61 115.429,1023.5C115.331,1023.4 115.276,1023.27 115.276,1023.12C115.276,1022.97 115.336,1022.83 115.447,1022.72ZM114.173,1023.12C114.173,1023.55 114.335,1023.96 114.631,1024.27C114.937,1024.59 115.348,1024.77 115.79,1024.78L115.829,1024.78C116.256,1024.78 116.661,1024.62 116.971,1024.32C119.15,1022.24 120.35,1019.44 120.35,1016.43C120.35,1013.42 119.15,1010.61 116.971,1008.53C116.651,1008.23 116.224,1008.07 115.79,1008.07C115.348,1008.08 114.937,1008.27 114.631,1008.59C114.326,1008.91 114.163,1009.32 114.173,1009.77C114.183,1010.21 114.365,1010.62 114.685,1010.93C116.203,1012.38 117.04,1014.33 117.04,1016.43C117.04,1018.52 116.203,1020.48 114.685,1021.93C114.359,1022.24 114.173,1022.67 114.173,1023.12Z" style="fill:rgb(255,87,51);fill-rule:nonzero;"/>
        </g>
    </g>
</svg>
