<?xml version="1.0" encoding="UTF-8" standalone="no"?>
<!DOCTYPE svg PUBLIC "-//W3C//DTD SVG 1.1//EN" "http://www.w3.org/Graphics/SVG/1.1/DTD/svg11.dtd">
<svg width="100%" height="100%" viewBox="0 0 157 157" version="1.1" xmlns="http://www.w3.org/2000/svg" xmlns:xlink="http://www.w3.org/1999/xlink" xml:space="preserve" xmlns:serif="http://www.serif.com/" style="fill-rule:evenodd;clip-rule:evenodd;stroke-linejoin:round;stroke-miterlimit:2;">
    <g transform="matrix(1,0,0,1,-3072,-1443)">
        <g transform="matrix(4.16667,0,0,4.16667,0,0)">
            <path d="M759.646,365.463L750.138,376.738L739.476,358.342L759.646,365.463ZM763.932,362.22L764.468,369.776L761.303,364.812C761.291,364.793 761.275,364.779 761.262,364.762C761.248,364.743 761.234,364.724 761.218,364.708C761.204,364.693 761.188,364.681 761.174,364.668C761.162,364.659 761.151,364.649 761.138,364.64C761.125,364.63 761.113,364.62 761.099,364.611C761.073,364.595 761.045,364.583 761.018,364.571C761.001,364.563 760.988,364.554 760.971,364.548C760.971,364.548 760.971,364.547 760.97,364.547L745.442,359.064L763.932,362.22ZM771.255,357.956L764.461,360.986L745.958,357.829L771.255,357.956ZM758.37,368.999L758.936,368.329L760.679,366.26L763.721,371.031L758.37,368.999ZM738.024,356.485C738.021,356.485 738.018,356.486 738.015,356.486C738.001,356.486 737.989,356.489 737.977,356.489C737.947,356.492 737.918,356.494 737.89,356.5C737.888,356.5 737.886,356.501 737.884,356.501C737.878,356.503 737.873,356.505 737.867,356.507C737.855,356.509 737.844,356.513 737.833,356.517C737.776,356.534 737.723,356.556 737.674,356.587C737.671,356.589 737.669,356.591 737.666,356.593C737.617,356.625 737.574,356.665 737.535,356.709C737.531,356.714 737.526,356.716 737.522,356.721C737.52,356.724 737.519,356.727 737.517,356.729C737.511,356.737 737.504,356.744 737.499,356.752C737.497,356.754 737.495,356.758 737.493,356.76C737.472,356.79 737.453,356.821 737.437,356.855C737.435,356.859 737.434,356.863 737.432,356.868C737.43,356.872 737.429,356.875 737.427,356.88C737.423,356.89 737.419,356.9 737.415,356.91C737.408,356.93 737.399,356.95 737.394,356.971C737.394,356.972 737.394,356.972 737.393,356.974C737.392,356.98 737.392,356.987 737.39,356.994C737.383,357.022 737.377,357.051 737.374,357.081C737.374,357.084 737.375,357.088 737.374,357.092C737.373,357.104 737.375,357.114 737.375,357.125C737.374,357.155 737.374,357.186 737.377,357.216C737.377,357.222 737.38,357.228 737.381,357.234C737.382,357.243 737.384,357.251 737.386,357.26C737.388,357.27 737.39,357.28 737.393,357.291C737.396,357.305 737.398,357.319 737.402,357.333C737.403,357.336 737.404,357.338 737.405,357.341C737.417,357.376 737.431,357.41 737.448,357.443C737.45,357.445 737.452,357.448 737.454,357.451C737.454,357.452 737.455,357.453 737.456,357.455C737.458,357.458 737.458,357.461 737.46,357.464L749.475,378.195C749.581,378.379 749.77,378.499 749.981,378.518C750,378.52 750.02,378.52 750.039,378.52C750.23,378.52 750.413,378.436 750.537,378.288L757.479,370.056L765.061,372.935C765.065,372.937 765.094,372.948 765.099,372.949C765.174,372.978 765.252,372.991 765.329,372.991C765.522,372.991 765.71,372.905 765.836,372.749C765.978,372.574 766.012,372.344 765.943,372.137L765.229,362.072L774.55,357.915C774.831,357.79 774.986,357.486 774.923,357.185C774.859,356.885 774.595,356.669 774.288,356.667L738.027,356.485L738.024,356.485Z" style="fill:rgb(255,87,51);fill-rule:nonzero;"/>
        </g>
    </g>
</svg>
