<?xml version="1.0" encoding="UTF-8" standalone="no"?>
<!DOCTYPE svg PUBLIC "-//W3C//DTD SVG 1.1//EN" "http://www.w3.org/Graphics/SVG/1.1/DTD/svg11.dtd">
<svg width="100%" height="100%" viewBox="0 0 135 135" version="1.1" xmlns="http://www.w3.org/2000/svg" xmlns:xlink="http://www.w3.org/1999/xlink" xml:space="preserve" xmlns:serif="http://www.serif.com/" style="fill-rule:evenodd;clip-rule:evenodd;stroke-linejoin:round;stroke-miterlimit:2;">
    <g transform="matrix(1,0,0,1,-1207,-3885)">
        <g transform="matrix(4.16667,0,0,4.16667,0,0)">
            <path d="M301.674,945.153C301.564,944.994 301.444,944.843 301.317,944.696L306.758,940.95C306.871,941.107 306.992,941.259 307.121,941.403L301.674,945.153ZM306.803,954.333C306.689,954.488 306.583,954.649 306.486,954.817L301.503,951.389C301.621,951.236 301.73,951.076 301.831,950.911L306.803,954.333ZM311.078,953.459C313.282,953.459 315.076,955.252 315.076,957.457C315.076,959.661 313.282,961.455 311.078,961.455C308.874,961.455 307.08,959.661 307.08,957.457C307.08,955.252 308.874,953.459 311.078,953.459ZM297.309,952.154C295.104,952.154 293.311,950.361 293.311,948.157C293.311,945.952 295.104,944.159 297.309,944.159C299.513,944.159 301.307,945.952 301.307,948.157C301.307,950.361 299.513,952.154 297.309,952.154ZM311.078,933.889C313.282,933.889 315.076,935.682 315.076,937.886C315.076,940.091 313.282,941.885 311.078,941.885C308.874,941.885 307.08,940.091 307.08,937.886C307.08,935.682 308.874,933.889 311.078,933.889ZM311.078,943.188C314.001,943.188 316.38,940.811 316.38,937.886C316.38,934.963 314.001,932.584 311.078,932.584C308.154,932.584 305.776,934.963 305.776,937.886C305.776,938.56 305.907,939.201 306.136,939.794L300.321,943.799C299.465,943.205 298.427,942.854 297.309,942.854C294.385,942.854 292.006,945.233 292.006,948.157C292.006,951.08 294.385,953.459 297.309,953.459C298.539,953.459 299.669,953.034 300.569,952.329L305.972,956.047C305.848,956.496 305.776,956.968 305.776,957.457C305.776,960.381 308.154,962.759 311.078,962.759C314.001,962.759 316.38,960.381 316.38,957.457C316.38,954.533 314.001,952.154 311.078,952.154C309.798,952.154 308.622,952.611 307.705,953.369L302.379,949.706C302.529,949.215 302.611,948.695 302.611,948.157C302.611,947.511 302.49,946.895 302.277,946.322L308.13,942.291C308.974,942.857 309.988,943.188 311.078,943.188Z" style="fill:rgb(255,87,51);fill-rule:nonzero;"/>
        </g>
    </g>
</svg>
