<?xml version="1.0" encoding="UTF-8" standalone="no"?>
<!DOCTYPE svg PUBLIC "-//W3C//DTD SVG 1.1//EN" "http://www.w3.org/Graphics/SVG/1.1/DTD/svg11.dtd">
<svg width="100%" height="100%" viewBox="0 0 170 170" version="1.1" xmlns="http://www.w3.org/2000/svg" xmlns:xlink="http://www.w3.org/1999/xlink" xml:space="preserve" xmlns:serif="http://www.serif.com/" style="fill-rule:evenodd;clip-rule:evenodd;stroke-linejoin:round;stroke-miterlimit:2;">
    <g transform="matrix(1,0,0,1,-1720,-1709)">
        <g transform="matrix(4.16667,0,0,4.16667,0,0)">
            <path d="M447.833,415.649C447.866,415.645 447.899,415.643 447.933,415.643C448.33,415.643 448.675,415.939 448.726,416.344C448.752,416.554 448.693,416.763 448.562,416.933C448.429,417.102 448.241,417.209 448.031,417.236L435.824,418.756L435.226,418.831L434.628,418.905L434.628,440.039L432.238,440.039L432.238,420.407L432.238,419.805L432.238,419.203L431.64,419.277L431.042,419.351L418.818,420.874C418.608,420.9 418.398,420.842 418.229,420.709C418.06,420.578 417.952,420.389 417.926,420.179C417.899,419.968 417.958,419.76 418.089,419.59C418.221,419.421 418.41,419.313 418.621,419.287L431.042,417.74L431.64,417.665L432.238,417.591L432.238,417.332C432.238,417.209 432.261,417.093 432.296,416.981C432.383,416.701 432.568,416.465 432.813,416.315C432.995,416.204 433.206,416.137 433.433,416.137C433.555,416.137 433.669,416.16 433.78,416.194C434.063,416.281 434.3,416.466 434.451,416.713C434.555,416.884 434.618,417.081 434.625,417.294L435.215,417.22L435.815,417.146L447.833,415.649ZM449.93,430.045L441.462,430.045L445.264,418.785L446.094,418.682L449.93,430.045ZM452.102,431.392C451.683,432.701 450.44,433.627 449.054,433.627L442.159,433.627C440.773,433.627 439.53,432.701 439.111,431.392L452.102,431.392ZM440.197,441.235C440.856,441.235 441.393,441.771 441.393,442.43C441.393,443.09 440.856,443.625 440.197,443.625L426.668,443.625C426.009,443.625 425.473,443.09 425.473,442.43C425.473,441.771 426.009,441.235 426.668,441.235L440.197,441.235ZM425.369,433.356L416.9,433.356L420.792,421.832L421.451,421.75L425.369,433.356ZM427.54,434.703C427.122,436.013 425.878,436.939 424.492,436.939L417.597,436.939C416.211,436.939 414.968,436.013 414.549,434.703L427.54,434.703ZM433.433,414.941C432.401,414.941 431.522,415.6 431.188,416.518L418.472,418.101C417.381,418.236 416.604,419.235 416.74,420.327C416.865,421.335 417.727,422.075 418.717,422.075C418.8,422.075 418.882,422.07 418.966,422.06L419.484,421.996L415.676,433.272C415.667,433.3 415.659,433.329 415.654,433.356L413.01,433.356L413.066,434.081C413.245,436.439 415.235,438.286 417.597,438.286L424.492,438.286C426.854,438.286 428.845,436.439 429.024,434.081L429.079,433.356L426.616,433.356C426.61,433.329 426.603,433.3 426.593,433.272L422.653,421.601L431.042,420.556L431.042,440.039L426.668,440.039C425.35,440.039 424.278,441.111 424.278,442.43C424.278,443.749 425.35,444.821 426.668,444.821L440.197,444.821C441.516,444.821 442.588,443.749 442.588,442.43C442.588,441.111 441.516,440.039 440.197,440.039L435.824,440.039L435.824,419.96L443.956,418.948L440.237,429.96C440.228,429.989 440.22,430.017 440.215,430.045L437.572,430.045L437.627,430.77C437.806,433.127 439.797,434.974 442.159,434.974L449.054,434.974C451.417,434.974 453.407,433.127 453.585,430.77L453.641,430.045L451.177,430.045C451.172,430.017 451.165,429.989 451.155,429.96L447.297,418.532L448.178,418.422C449.27,418.286 450.047,417.287 449.912,416.196C449.775,415.104 448.776,414.325 447.686,414.463L435.411,415.991C434.981,415.358 434.255,414.941 433.433,414.941Z" style="fill:rgb(255,87,51);fill-rule:nonzero;"/>
        </g>
    </g>
</svg>
