<?xml version="1.0" encoding="UTF-8" standalone="no"?>
<!DOCTYPE svg PUBLIC "-//W3C//DTD SVG 1.1//EN" "http://www.w3.org/Graphics/SVG/1.1/DTD/svg11.dtd">
<svg width="100%" height="100%" viewBox="0 0 168 168" version="1.1" xmlns="http://www.w3.org/2000/svg" xmlns:xlink="http://www.w3.org/1999/xlink" xml:space="preserve" xmlns:serif="http://www.serif.com/" style="fill-rule:evenodd;clip-rule:evenodd;stroke-linejoin:round;stroke-miterlimit:2;">
    <g transform="matrix(1,0,0,1,-1185,-2506)">
        <g transform="matrix(4.16667,0,0,4.16667,0,0)">
            <path d="M295.804,639.677C294.507,639.677 293.603,638.988 293.603,638.369L293.603,636.162L298.005,636.162L298.005,638.369C298.005,638.988 297.101,639.677 295.804,639.677ZM312.37,639.677C311.073,639.677 310.169,638.988 310.169,638.369L310.169,636.162L314.571,636.162L314.571,638.369C314.571,638.988 313.667,639.677 312.37,639.677ZM320.518,634.858L287.869,634.858C287.363,634.858 286.951,634.427 286.951,633.898C286.951,633.369 287.363,632.938 287.869,632.938L320.518,632.938C321.024,632.938 321.436,633.369 321.436,633.898C321.436,634.427 321.024,634.858 320.518,634.858ZM312.645,610.392L314.447,622.522C314.494,622.842 314.769,623.078 315.092,623.078L317.627,623.078C318.012,623.297 319.356,624.214 319.849,626.587C320.467,629.566 320.643,630.415 320.693,631.643C320.635,631.638 320.577,631.634 320.518,631.634L287.869,631.634C287.698,631.634 287.532,631.656 287.372,631.693C287.419,630.438 287.591,629.606 288.218,626.587C288.71,624.216 290.053,623.299 290.44,623.078L292.975,623.078C293.298,623.078 293.573,622.842 293.62,622.522L295.421,610.392L312.645,610.392ZM310.202,603.256L310.202,609.333L307.521,609.333L307.521,605.808C307.521,605.537 307.302,605.318 307.032,605.318L302.745,605.318L302.745,603.256L310.202,603.256ZM298.774,606.297L306.542,606.297L306.542,609.167L298.774,609.167L298.774,606.297ZM290.283,621.774C290.193,621.774 290.104,621.792 290.022,621.829C289.926,621.871 287.651,622.9 286.941,626.322C286.156,630.102 286.062,630.579 286.051,632.601C285.797,632.968 285.646,633.415 285.646,633.898C285.646,635.146 286.644,636.162 287.869,636.162L292.298,636.162L292.298,638.369C292.298,639.834 293.838,640.981 295.804,640.981C297.77,640.981 299.31,639.834 299.31,638.369L299.31,636.162L308.865,636.162L308.865,638.369C308.865,639.834 310.404,640.981 312.37,640.981C314.336,640.981 315.875,639.834 315.875,638.369L315.875,636.162L320.518,636.162C321.743,636.162 322.74,635.146 322.74,633.898C322.74,633.236 322.458,632.642 322.012,632.228C321.989,630.504 321.859,629.858 321.125,626.322C320.416,622.9 318.141,621.871 318.044,621.829C317.962,621.792 317.874,621.774 317.784,621.774L315.654,621.774L315.436,620.306L316.503,620.306C316.954,620.306 317.319,619.94 317.319,619.49C317.319,619.04 316.954,618.675 316.503,618.675L315.194,618.675L313.853,609.644C313.805,609.324 313.531,609.087 313.208,609.087L311.181,609.087L311.181,602.767C311.181,602.497 310.961,602.277 310.691,602.277L302.256,602.277C301.985,602.277 301.767,602.497 301.767,602.767L301.767,605.318L298.285,605.318C298.015,605.318 297.795,605.537 297.795,605.808L297.795,609.087L294.859,609.087C294.536,609.087 294.261,609.324 294.213,609.644L292.848,618.838L291.318,618.838C290.958,618.838 290.666,619.13 290.666,619.49C290.666,619.851 290.958,620.143 291.318,620.143L292.655,620.143L292.413,621.774L290.283,621.774Z" style="fill:rgb(255,87,51);fill-rule:nonzero;"/>
            <path d="M303.542,613.319L303.542,614.576L301.727,614.576C301.546,614.576 301.4,614.722 301.4,614.902L301.4,616.233C301.4,616.414 301.546,616.56 301.727,616.56L306.944,616.56C307.125,616.56 307.271,616.414 307.271,616.233L307.271,614.902C307.271,614.722 307.125,614.576 306.944,614.576L305.169,614.576L305.169,613.319L310.661,613.319L311.496,620.887L296.728,620.887L297.563,613.319L303.542,613.319ZM304.517,614.576L304.194,614.576L304.194,613.516L304.517,613.516L304.517,614.576ZM303.868,615.228L306.618,615.228L306.618,615.908L302.053,615.908L302.053,615.228L303.868,615.228ZM296,622.191L312.224,622.191C312.409,622.191 312.586,622.112 312.709,621.974C312.833,621.836 312.892,621.652 312.872,621.468L311.894,612.595C311.857,612.265 311.578,612.014 311.246,612.014L296.979,612.014C296.646,612.014 296.367,612.265 296.33,612.595L295.352,621.468C295.332,621.652 295.391,621.836 295.515,621.974C295.638,622.112 295.815,622.191 296,622.191Z" style="fill:rgb(255,87,51);fill-rule:nonzero;"/>
            <path d="M313.326,625.249C314.419,625.249 315.309,626.138 315.309,627.231C315.309,628.324 314.419,629.214 313.326,629.214C312.233,629.214 311.344,628.324 311.344,627.231C311.344,626.138 312.233,625.249 313.326,625.249ZM310.039,627.231C310.039,629.044 311.514,630.519 313.326,630.519C315.139,630.519 316.614,629.044 316.614,627.231C316.614,625.419 315.139,623.944 313.326,623.944C311.514,623.944 310.039,625.419 310.039,627.231Z" style="fill:rgb(255,87,51);fill-rule:nonzero;"/>
            <path d="M295.478,629.214C294.385,629.214 293.496,628.324 293.496,627.231C293.496,626.138 294.385,625.249 295.478,625.249C296.571,625.249 297.46,626.138 297.46,627.231C297.46,628.324 296.571,629.214 295.478,629.214ZM295.478,623.944C293.666,623.944 292.191,625.419 292.191,627.231C292.191,629.044 293.666,630.519 295.478,630.519C297.291,630.519 298.765,629.044 298.765,627.231C298.765,625.419 297.291,623.944 295.478,623.944Z" style="fill:rgb(255,87,51);fill-rule:nonzero;"/>
        </g>
    </g>
</svg>
