<?xml version="1.0" encoding="UTF-8" standalone="no"?>
<!DOCTYPE svg PUBLIC "-//W3C//DTD SVG 1.1//EN" "http://www.w3.org/Graphics/SVG/1.1/DTD/svg11.dtd">
<svg width="100%" height="100%" viewBox="0 0 146 146" version="1.1" xmlns="http://www.w3.org/2000/svg" xmlns:xlink="http://www.w3.org/1999/xlink" xml:space="preserve" xmlns:serif="http://www.serif.com/" style="fill-rule:evenodd;clip-rule:evenodd;stroke-linejoin:round;stroke-miterlimit:2;">
    <g transform="matrix(1,0,0,1,-3888,-1982)">
        <g transform="matrix(4.16667,0,0,4.16667,0,0)">
            <path d="M961.023,491.487C960.942,491.673 960.846,491.819 960.729,491.936L946.273,506.392C946,506.666 945.636,506.816 945.249,506.816C945.104,506.816 944.961,506.795 944.827,506.754C944.691,506.713 944.563,506.652 944.444,506.573C944.366,506.521 944.292,506.46 944.223,506.391L942.889,505.057C942.756,504.924 942.578,504.854 942.398,504.854C942.292,504.854 942.184,504.879 942.084,504.93L941.894,505.026L938.475,501.607L938.571,501.419C938.708,501.15 938.657,500.825 938.444,500.612L937.147,499.315C936.581,498.749 936.58,497.828 937.144,497.264L951.601,482.808C951.771,482.637 952,482.524 952.318,482.454C952.341,482.449 952.364,482.443 952.386,482.436L963.456,478.788C963.473,478.782 963.49,478.776 963.506,478.769C963.548,478.752 963.589,478.737 963.632,478.725C963.644,478.723 963.656,478.72 963.668,478.717C964.018,478.633 964.375,478.732 964.626,478.982C964.861,479.218 964.965,479.553 964.907,479.883C964.905,479.891 964.903,479.898 964.901,479.906C964.885,479.986 964.861,480.06 964.829,480.132C964.818,480.154 964.809,480.178 964.801,480.201L961.069,491.4C961.052,491.429 961.037,491.457 961.023,491.487ZM953.73,507.47C953.71,507.56 953.717,507.655 953.753,507.743C953.952,508.234 953.839,508.791 953.467,509.163C953.22,509.41 952.892,509.547 952.542,509.547L952.54,509.547C952.191,509.547 951.863,509.411 951.618,509.166C951.599,509.147 951.585,509.126 951.57,509.104L951.52,509.039C951.473,508.979 951.414,508.934 951.347,508.903L948.59,506.146L952.846,501.89L953.73,507.47ZM934.79,492.016C934.774,491.991 934.756,491.969 934.736,491.947C934.72,491.93 934.699,491.912 934.678,491.896C934.193,491.384 934.203,490.573 934.705,490.07C935.023,489.752 935.475,489.622 935.912,489.723C935.973,489.737 936.035,489.738 936.095,489.728L941.811,490.637L937.61,494.836L934.79,492.016ZM962.21,492.219C962.263,492.155 962.304,492.081 962.331,492.001L966.105,480.672C966.17,480.524 966.219,480.374 966.253,480.215C966.257,480.202 966.26,480.188 966.262,480.176C966.42,479.384 966.175,478.57 965.606,478.002C965.02,477.416 964.189,477.178 963.376,477.361C963.35,477.365 963.325,477.371 963.299,477.378C963.191,477.407 963.092,477.44 962.998,477.479L951.984,481.108C951.42,481.237 950.975,481.473 950.621,481.826L942.618,489.829L936.091,488.791C936.044,488.784 935.998,488.783 935.952,488.79C935.255,488.685 934.556,488.912 934.051,489.417C933.193,490.275 933.18,491.663 934.015,492.54C934.029,492.56 934.045,492.579 934.063,492.598L936.957,495.49L936.164,496.283C935.059,497.389 935.06,499.188 936.167,500.296L937.107,501.236L937.011,501.425C936.873,501.692 936.925,502.019 937.138,502.231L941.27,506.363C941.483,506.575 941.808,506.627 942.075,506.49L942.265,506.394L943.243,507.372C943.779,507.907 944.491,508.203 945.249,508.203C946.006,508.203 946.718,507.908 947.254,507.372L947.882,506.744L950.809,509.672C950.833,509.697 950.861,509.719 950.89,509.736C950.913,509.765 950.937,509.792 950.963,509.819C951.384,510.239 951.944,510.472 952.54,510.472L952.542,510.472C953.14,510.471 953.7,510.238 954.121,509.816C954.708,509.229 954.917,508.372 954.677,507.586C954.677,507.558 954.676,507.53 954.671,507.502L953.639,500.987L961.71,492.916C961.909,492.717 962.074,492.487 962.21,492.219Z" style="fill:rgb(255,87,51);fill-rule:nonzero;"/>
            <path d="M948.483,498.115L945.395,501.203C945.182,501.417 944.897,501.535 944.594,501.535L944.593,501.535C944.29,501.535 944.005,501.417 943.791,501.203L942.333,499.746C941.891,499.303 941.891,498.583 942.333,498.142L945.421,495.053C945.635,494.839 945.919,494.722 946.223,494.722C946.526,494.722 946.812,494.84 947.026,495.054L948.483,496.512C948.698,496.726 948.816,497.011 948.815,497.313C948.815,497.616 948.698,497.901 948.483,498.115ZM948.006,494.073C947.53,493.598 946.897,493.335 946.223,493.335C945.549,493.335 944.917,493.597 944.441,494.072L941.353,497.161C940.37,498.143 940.37,499.742 941.353,500.727L942.811,502.184C943.286,502.66 943.919,502.922 944.593,502.922L944.595,502.922C945.269,502.921 945.9,502.659 946.375,502.184L949.464,499.096C949.939,498.62 950.202,497.987 950.202,497.314C950.203,496.641 949.94,496.008 949.464,495.531L948.006,494.073Z" style="fill:rgb(255,87,51);fill-rule:nonzero;"/>
            <path d="M955.576,491.63C955.085,492.12 954.434,492.391 953.74,492.392L953.739,492.392C953.047,492.392 952.396,492.121 951.906,491.632C951.415,491.142 951.145,490.489 951.145,489.796C951.146,489.104 951.416,488.451 951.907,487.961C952.397,487.471 953.048,487.2 953.741,487.2C954.434,487.2 955.086,487.471 955.577,487.961C956.067,488.451 956.337,489.103 956.337,489.795C956.337,490.488 956.067,491.14 955.576,491.63ZM955.616,486.281C955.045,485.976 954.406,485.813 953.741,485.813C952.678,485.813 951.678,486.229 950.927,486.98C950.174,487.732 949.759,488.732 949.759,489.796C949.759,490.859 950.173,491.859 950.926,492.612C951.677,493.364 952.676,493.778 953.739,493.778L953.741,493.778C954.804,493.777 955.804,493.362 956.557,492.61C957.309,491.858 957.723,490.858 957.723,489.795C957.723,488.732 957.309,487.732 956.557,486.98C956.275,486.699 955.958,486.464 955.616,486.281Z" style="fill:rgb(255,87,51);fill-rule:nonzero;"/>
        </g>
    </g>
</svg>
