<?xml version="1.0" encoding="UTF-8" standalone="no"?>
<!DOCTYPE svg PUBLIC "-//W3C//DTD SVG 1.1//EN" "http://www.w3.org/Graphics/SVG/1.1/DTD/svg11.dtd">
<svg width="100%" height="100%" viewBox="0 0 161 161" version="1.1" xmlns="http://www.w3.org/2000/svg" xmlns:xlink="http://www.w3.org/1999/xlink" xml:space="preserve" xmlns:serif="http://www.serif.com/" style="fill-rule:evenodd;clip-rule:evenodd;stroke-linejoin:round;stroke-miterlimit:2;">
    <g transform="matrix(1,0,0,1,-378,-2784)">
        <g transform="matrix(4.16667,0,0,4.16667,0,0)">
            <path d="M122.259,692.312L122.833,691.208C122.883,691.112 122.966,691.042 123.068,691.01C123.17,690.978 123.278,690.987 123.374,691.037C123.469,691.086 123.539,691.169 123.571,691.271C123.603,691.374 123.594,691.482 123.544,691.577L122.971,692.682C122.921,692.776 122.838,692.847 122.736,692.879C122.634,692.91 122.525,692.901 122.43,692.853C122.335,692.803 122.265,692.72 122.233,692.617C122.201,692.516 122.21,692.407 122.259,692.312ZM119.426,686.601C119.466,686.588 119.507,686.582 119.547,686.582C119.611,686.582 119.674,686.597 119.732,686.627C119.827,686.677 119.897,686.76 119.929,686.862C119.961,686.964 119.952,687.072 119.903,687.167L119.329,688.272C119.227,688.468 118.984,688.544 118.789,688.442C118.592,688.341 118.516,688.099 118.618,687.902L119.191,686.798C119.24,686.703 119.324,686.633 119.426,686.601ZM107.087,680.682C107.159,680.544 107.299,680.466 107.444,680.466C107.506,680.466 107.569,680.48 107.628,680.511C107.723,680.561 107.793,680.644 107.825,680.746C107.857,680.848 107.848,680.957 107.799,681.052L107.226,682.156C107.176,682.25 107.093,682.321 106.991,682.353C106.889,682.385 106.78,682.376 106.685,682.327C106.489,682.225 106.412,681.982 106.514,681.786L107.087,680.682ZM100.812,681.341L101.386,680.236C101.457,680.099 101.598,680.021 101.743,680.021C101.805,680.021 101.868,680.035 101.927,680.065C102.123,680.167 102.199,680.41 102.097,680.606L101.523,681.71C101.474,681.805 101.391,681.875 101.289,681.908C101.186,681.939 101.078,681.93 100.983,681.881C100.888,681.832 100.818,681.749 100.786,681.646C100.753,681.544 100.763,681.436 100.812,681.341ZM101.856,700.133L104.993,699.141C105.266,699.055 105.473,698.832 105.54,698.553C105.72,697.8 105.861,696.957 106.011,696.063C106.382,693.854 106.803,691.349 107.989,688.736C108.169,688.341 108.007,687.875 107.623,687.676L98.289,682.825L100.05,682.807C100.151,682.895 100.26,682.975 100.382,683.039C100.628,683.167 100.896,683.231 101.166,683.231C101.339,683.231 101.512,683.205 101.682,683.151C101.921,683.076 102.132,682.947 102.312,682.783L105.358,682.752C105.514,683.055 105.759,683.315 106.083,683.484C106.33,683.612 106.598,683.677 106.867,683.677C107.041,683.677 107.214,683.65 107.384,683.597C107.818,683.459 108.173,683.161 108.383,682.757L108.402,682.72L110.515,682.698C110.81,682.694 111.081,682.532 111.222,682.273C115.088,675.188 119.202,671.671 120.26,671.599C120.699,672.411 120.237,677.207 116.472,684.827C116.341,685.092 116.364,685.406 116.531,685.65L117.548,687.131L117.46,687.301C117.25,687.705 117.21,688.167 117.347,688.601C117.484,689.035 117.783,689.39 118.187,689.6C118.438,689.73 118.706,689.792 118.971,689.792C119.097,689.792 119.223,689.774 119.345,689.747L120.962,692.101C120.89,692.398 120.895,692.71 120.99,693.011C121.127,693.445 121.425,693.8 121.829,694.01C122.009,694.103 122.201,694.162 122.396,694.188L123.454,695.728L114.12,690.877C113.735,690.678 113.261,690.813 113.042,691.187C111.354,694.053 109.313,696.277 107.672,698.065C107.315,698.453 106.981,698.818 106.678,699.159C106.488,699.373 106.424,699.672 106.511,699.946L107.535,703.185C105.524,701.505 103.502,700.609 101.856,700.133ZM114.044,692.676L125.598,698.679C125.93,698.851 126.336,698.775 126.584,698.495C126.832,698.215 126.857,697.802 126.646,697.494L123.946,693.563C124.015,693.477 124.076,693.383 124.128,693.283L124.702,692.179C124.912,691.774 124.952,691.313 124.815,690.878C124.677,690.444 124.379,690.089 123.975,689.879C123.571,689.669 123.109,689.628 122.675,689.767C122.309,689.882 122.005,690.117 121.792,690.428L120.588,688.677L121.06,687.769C121.27,687.365 121.311,686.903 121.173,686.469C121.036,686.035 120.737,685.68 120.333,685.47C119.929,685.26 119.467,685.22 119.033,685.357C118.837,685.419 118.66,685.518 118.502,685.64L118.145,685.119C121.271,678.653 123.313,671.322 121.026,670.133C118.729,668.941 113.552,674.761 110.022,681.072L109.13,681.082C109.162,680.84 109.145,680.593 109.069,680.353C108.932,679.918 108.634,679.563 108.229,679.354C107.825,679.144 107.364,679.103 106.929,679.241C106.495,679.378 106.14,679.676 105.93,680.081L105.39,681.121L103.28,681.143C103.666,680.32 103.341,679.331 102.528,678.908C102.124,678.698 101.662,678.657 101.228,678.795C100.793,678.933 100.438,679.23 100.229,679.635L99.654,680.739C99.581,680.881 99.536,681.03 99.504,681.182L95.008,681.229C94.634,681.233 94.311,681.491 94.224,681.855C94.137,682.219 94.309,682.595 94.641,682.768L106.198,688.773C105.153,691.327 104.741,693.786 104.403,695.793C104.288,696.48 104.178,697.137 104.054,697.728L98.001,699.641C97.61,699.765 97.372,700.16 97.445,700.563C97.518,700.968 97.882,701.25 98.29,701.233C98.346,701.229 104.082,701 108.704,706.694C108.863,706.891 109.098,706.996 109.337,706.996C109.469,706.996 109.601,706.964 109.723,706.898C110.068,706.713 110.232,706.309 110.114,705.935L108.206,699.898C108.417,699.665 108.64,699.421 108.874,699.167C110.357,697.55 112.349,695.38 114.044,692.676Z" style="fill:rgb(255,87,51);fill-rule:nonzero;"/>
        </g>
    </g>
</svg>
