<?xml version="1.0" encoding="UTF-8" standalone="no"?>
<!DOCTYPE svg PUBLIC "-//W3C//DTD SVG 1.1//EN" "http://www.w3.org/Graphics/SVG/1.1/DTD/svg11.dtd">
<svg width="100%" height="100%" viewBox="0 0 3086 2703" version="1.1" xmlns="http://www.w3.org/2000/svg" xmlns:xlink="http://www.w3.org/1999/xlink" xml:space="preserve" xmlns:serif="http://www.serif.com/" style="fill-rule:evenodd;clip-rule:evenodd;stroke-linejoin:round;stroke-miterlimit:2;">
    <g transform="matrix(1,0,0,1,-961,-1076)">
        <g transform="matrix(4.16667,0,0,4.16667,0,0)">
            <path d="M771.452,702.909C771.452,718.254 759.014,730.692 743.669,730.692C728.324,730.692 715.885,718.254 715.885,702.909C715.885,687.564 728.324,675.125 743.669,675.125C759.014,675.125 771.452,687.564 771.452,702.909Z" style="fill:rgb(181,183,135);fill-rule:nonzero;"/>
            <path d="M754.188,666.457C739.474,666.457 727.504,678.428 727.504,693.142C727.504,707.855 739.474,719.825 754.188,719.825C768.901,719.825 780.872,707.855 780.872,693.142C780.872,678.428 768.901,666.457 754.188,666.457ZM754.188,722.025C738.262,722.025 725.304,709.067 725.304,693.142C725.304,677.215 738.262,664.258 754.188,664.258C770.114,664.258 783.071,677.215 783.071,693.142C783.071,709.067 770.114,722.025 754.188,722.025Z" style="fill:rgb(32,41,70);fill-rule:nonzero;"/>
            <path d="M791.799,284.67L607.553,284.67C607.553,335.548 648.797,376.793 699.676,376.793C750.554,376.793 791.799,335.548 791.799,284.67Z" style="fill:rgb(30,166,135);fill-rule:nonzero;"/>
            <path d="M699.672,314.794C701.078,314.794 702.21,315.925 702.21,317.332C702.21,318.731 701.078,319.869 699.672,319.869C698.272,319.869 697.142,318.731 697.142,317.332C697.142,315.925 698.272,314.794 699.672,314.794ZM699.672,340.894C701.078,340.894 702.21,342.024 702.21,343.431C702.21,344.83 701.078,345.968 699.672,345.968C698.272,345.968 697.142,344.83 697.142,343.431C697.142,342.024 698.272,340.894 699.672,340.894ZM699.672,366.994C701.078,366.994 702.21,368.124 702.21,369.531C702.21,370.93 701.078,372.068 699.672,372.068C698.272,372.068 697.142,370.93 697.142,369.531C697.142,368.124 698.272,366.994 699.672,366.994ZM699.672,393.085C701.078,393.085 702.21,394.224 702.21,395.63C702.21,397.029 701.078,398.167 699.672,398.167C698.272,398.167 697.142,397.029 697.142,395.63C697.142,394.224 698.272,393.085 699.672,393.085ZM699.672,419.192C701.078,419.192 702.21,420.323 702.21,421.729C702.21,423.129 701.078,424.268 699.672,424.268C698.272,424.268 697.142,423.129 697.142,421.729C697.142,420.323 698.272,419.192 699.672,419.192ZM699.672,445.292C701.078,445.292 702.21,446.423 702.21,447.829C702.21,449.229 701.078,450.367 699.672,450.367C698.272,450.367 697.142,449.229 697.142,447.829C697.142,446.423 698.272,445.292 699.672,445.292ZM699.672,471.391C701.078,471.391 702.21,472.522 702.21,473.929C702.21,475.328 701.078,476.458 699.672,476.458C698.272,476.458 697.142,475.328 697.142,473.929C697.142,472.522 698.272,471.391 699.672,471.391ZM699.672,497.491C701.078,497.491 702.21,498.622 702.21,500.028C702.21,501.427 701.078,502.566 699.672,502.566C698.272,502.566 697.142,501.427 697.142,500.028C697.142,498.622 698.272,497.491 699.672,497.491ZM699.672,523.591C701.078,523.591 702.21,524.721 702.21,526.128C702.21,527.527 701.078,528.666 699.672,528.666C698.272,528.666 697.142,527.527 697.142,526.128C697.142,524.721 698.272,523.591 699.672,523.591ZM699.672,549.69C701.078,549.69 702.21,550.82 702.21,552.228C702.21,553.626 701.078,554.765 699.672,554.765C698.272,554.765 697.142,553.626 697.142,552.228C697.142,550.82 698.272,549.69 699.672,549.69ZM699.672,575.79C701.078,575.79 702.21,576.92 702.21,578.319C702.21,579.726 701.078,580.864 699.672,580.864C698.272,580.864 697.142,579.726 697.142,578.319C697.142,576.92 698.272,575.79 699.672,575.79Z" style="fill:rgb(3,4,4);fill-rule:nonzero;"/>
            <path d="M856.474,688.138L856.474,905.189C916.411,905.189 965,856.602 965,796.664C965,736.727 916.411,688.138 856.474,688.138Z" style="fill:rgb(240,82,71);fill-rule:nonzero;"/>
            <path d="M281.654,586.724L263.097,618.857C267.113,606.891 273.472,595.993 281.654,586.724Z" style="fill:rgb(30,166,135);fill-rule:nonzero;"/>
            <path d="M296.832,572.873L258.754,638.829C259.002,636.441 259.338,634.08 259.772,631.753L291.207,577.322C293.02,575.756 294.895,574.279 296.832,572.873Z" style="fill:rgb(30,166,135);fill-rule:nonzero;"/>
            <path d="M308.092,565.823L258.294,652.07C258.25,650.965 258.232,649.859 258.232,648.744C258.232,648.107 258.241,647.471 258.25,646.834L303.537,568.397C305.031,567.495 306.544,566.637 308.092,565.823Z" style="fill:rgb(30,166,135);fill-rule:nonzero;"/>
            <path d="M317.874,561.321L259.276,662.808C259.064,661.366 258.877,659.916 258.728,658.456L313.832,563.011C315.159,562.418 316.512,561.852 317.874,561.321Z" style="fill:rgb(30,166,135);fill-rule:nonzero;"/>
            <path d="M326.781,558.34L261.143,672.033C260.824,670.777 260.532,669.513 260.267,668.238L323.075,559.464C324.295,559.057 325.534,558.686 326.781,558.34Z" style="fill:rgb(30,166,135);fill-rule:nonzero;"/>
            <path d="M335.069,556.43L263.628,680.171C263.23,679.056 262.85,677.941 262.505,676.81L331.593,557.138C332.743,556.872 333.901,556.633 335.069,556.43Z" style="fill:rgb(30,166,135);fill-rule:nonzero;"/>
            <path d="M342.887,555.333L266.583,687.494C266.123,686.495 265.689,685.478 265.273,684.451L339.606,555.705C340.694,555.563 341.791,555.439 342.887,555.333Z" style="fill:rgb(30,166,135);fill-rule:nonzero;"/>
            <path d="M350.326,554.9L269.935,694.146C269.421,693.234 268.935,692.323 268.458,691.395L347.204,555.006C348.239,554.953 349.283,554.917 350.326,554.9Z" style="fill:rgb(30,166,135);fill-rule:nonzero;"/>
            <path d="M357.429,555.042L273.605,700.23C273.057,699.399 272.517,698.56 271.996,697.701L354.439,554.909C355.438,554.935 356.438,554.979 357.429,555.042Z" style="fill:rgb(30,166,135);fill-rule:nonzero;"/>
            <path d="M364.257,555.661L277.568,705.813C276.975,705.052 276.4,704.273 275.843,703.485L361.374,555.342C362.337,555.431 363.302,555.537 364.257,555.661Z" style="fill:rgb(30,166,135);fill-rule:nonzero;"/>
            <path d="M370.811,556.757L281.796,710.934C281.167,710.234 280.558,709.518 279.965,708.802L368.051,556.235C368.98,556.395 369.9,556.563 370.811,556.757Z" style="fill:rgb(30,166,135);fill-rule:nonzero;"/>
            <path d="M377.126,558.261L286.262,715.647C285.608,715.002 284.962,714.356 284.325,713.692L374.464,557.571C375.357,557.783 376.242,558.013 377.126,558.261Z" style="fill:rgb(30,166,135);fill-rule:nonzero;"/>
            <path d="M383.212,560.171L290.959,719.964C290.269,719.38 289.588,718.778 288.925,718.169L380.638,559.305C381.504,559.579 382.363,559.862 383.212,560.171Z" style="fill:rgb(30,166,135);fill-rule:nonzero;"/>
            <path d="M389.076,562.453L295.859,723.9C295.143,723.369 294.444,722.821 293.745,722.272L386.608,561.427C387.439,561.754 388.262,562.1 389.076,562.453Z" style="fill:rgb(30,166,135);fill-rule:nonzero;"/>
            <path d="M394.737,565.107L300.989,727.482C300.246,727.004 299.503,726.509 298.778,725.996L392.349,563.931C393.153,564.311 393.949,564.7 394.737,565.107Z" style="fill:rgb(30,166,135);fill-rule:nonzero;"/>
            <path d="M400.176,568.123L306.314,730.692C305.535,730.269 304.775,729.826 304.014,729.366L397.876,566.787C398.655,567.221 399.416,567.663 400.176,568.123Z" style="fill:rgb(30,166,135);fill-rule:nonzero;"/>
            <path d="M405.413,571.493L311.851,733.559C311.046,733.178 310.241,732.789 309.454,732.382L403.201,570.007C403.944,570.484 404.687,570.98 405.413,571.493Z" style="fill:rgb(30,166,135);fill-rule:nonzero;"/>
            <path d="M410.454,575.226L317.591,736.062C316.76,735.734 315.928,735.39 315.115,735.036L408.331,573.58C409.047,574.12 409.755,574.668 410.454,575.226Z" style="fill:rgb(30,166,135);fill-rule:nonzero;"/>
            <path d="M415.266,579.321L323.553,738.185C322.695,737.91 321.837,737.627 320.988,737.317L413.24,577.534C413.921,578.109 414.593,578.71 415.266,579.321Z" style="fill:rgb(30,166,135);fill-rule:nonzero;"/>
            <path d="M419.865,583.805L329.727,739.918C328.833,739.706 327.949,739.476 327.064,739.22L417.928,581.841C418.591,582.487 419.237,583.142 419.865,583.805Z" style="fill:rgb(30,166,135);fill-rule:nonzero;"/>
            <path d="M424.226,588.688L336.148,741.254C335.219,741.104 334.299,740.927 333.388,740.741L422.404,586.556C423.023,587.254 423.633,587.971 424.226,588.688Z" style="fill:rgb(30,166,135);fill-rule:nonzero;"/>
            <path d="M428.347,594.003L342.817,742.147C341.853,742.059 340.889,741.952 339.934,741.829L426.623,591.677C427.215,592.438 427.79,593.216 428.347,594.003Z" style="fill:rgb(30,166,135);fill-rule:nonzero;"/>
            <path d="M432.195,599.788L349.751,742.58C348.752,742.554 347.752,742.51 346.762,742.447L430.585,597.258C431.143,598.089 431.682,598.93 432.195,599.788Z" style="fill:rgb(30,166,135);fill-rule:nonzero;"/>
            <path d="M435.733,606.094L356.995,742.483C355.96,742.536 354.917,742.571 353.873,742.589L434.265,603.344C434.778,604.255 435.264,605.165 435.733,606.094Z" style="fill:rgb(30,166,135);fill-rule:nonzero;"/>
            <path d="M438.926,613.028L364.584,741.784C363.496,741.926 362.408,742.05 361.303,742.156L437.608,609.995C438.068,610.994 438.51,612.003 438.926,613.028Z" style="fill:rgb(30,166,135);fill-rule:nonzero;"/>
            <path d="M441.694,620.671L372.598,740.352C371.448,740.617 370.289,740.855 369.122,741.06L440.571,617.318C440.969,618.424 441.341,619.548 441.694,620.671Z" style="fill:rgb(30,166,135);fill-rule:nonzero;"/>
            <path d="M443.932,629.241L381.124,738.025C379.904,738.433 378.666,738.804 377.418,739.148L443.056,625.456C443.375,626.712 443.667,627.968 443.932,629.241Z" style="fill:rgb(30,166,135);fill-rule:nonzero;"/>
            <path d="M445.462,639.024L390.358,734.479C389.023,735.08 387.678,735.638 386.316,736.177L444.923,634.672C445.135,636.114 445.321,637.564 445.462,639.024Z" style="fill:rgb(30,166,135);fill-rule:nonzero;"/>
            <path d="M445.966,648.744C445.966,649.382 445.958,650.019 445.949,650.646L400.654,729.092C399.168,729.994 397.646,730.852 396.099,731.666L445.905,645.41C445.949,646.516 445.966,647.63 445.966,648.744Z" style="fill:rgb(30,166,135);fill-rule:nonzero;"/>
            <path d="M445.445,658.642C445.197,661.03 444.861,663.383 444.427,665.709L412.983,720.177C411.17,721.732 409.287,723.219 407.35,724.625L445.445,658.642Z" style="fill:rgb(30,166,135);fill-rule:nonzero;"/>
            <path d="M441.11,678.605C437.095,690.59 430.718,701.505 422.536,710.783L441.11,678.605Z" style="fill:rgb(30,166,135);fill-rule:nonzero;"/>
            <path d="M799.285,750.453L785.459,774.396C788.451,765.479 793.189,757.359 799.285,750.453Z" style="fill:rgb(181,183,135);fill-rule:nonzero;"/>
            <path d="M810.594,740.133L782.224,789.276C782.408,787.497 782.658,785.737 782.981,784.004L806.402,743.448C807.754,742.281 809.151,741.181 810.594,740.133Z" style="fill:rgb(181,183,135);fill-rule:nonzero;"/>
            <path d="M818.983,734.881L781.881,799.142C781.848,798.318 781.834,797.494 781.834,796.664C781.834,796.189 781.841,795.715 781.848,795.24L815.59,736.799C816.703,736.126 817.83,735.487 818.983,734.881Z" style="fill:rgb(181,183,135);fill-rule:nonzero;"/>
            <path d="M826.272,731.526L782.612,807.143C782.454,806.068 782.315,804.987 782.203,803.899L823.261,732.785C824.249,732.344 825.258,731.922 826.272,731.526Z" style="fill:rgb(181,183,135);fill-rule:nonzero;"/>
            <path d="M832.908,729.306L784.003,814.016C783.766,813.08 783.548,812.138 783.351,811.188L830.147,730.143C831.057,729.839 831.979,729.563 832.908,729.306Z" style="fill:rgb(181,183,135);fill-rule:nonzero;"/>
            <path d="M839.084,727.882L785.854,820.079C785.558,819.248 785.274,818.418 785.018,817.574L836.493,728.409C837.351,728.211 838.214,728.033 839.084,727.882Z" style="fill:rgb(181,183,135);fill-rule:nonzero;"/>
            <path d="M844.909,727.064L788.056,825.535C787.713,824.791 787.39,824.033 787.08,823.269L842.464,727.342C843.274,727.236 844.092,727.144 844.909,727.064Z" style="fill:rgb(181,183,135);fill-rule:nonzero;"/>
            <path d="M850.452,726.742L790.553,830.491C790.171,829.813 789.809,829.134 789.453,828.441L848.125,726.821C848.896,726.781 849.674,726.755 850.452,726.742Z" style="fill:rgb(181,183,135);fill-rule:nonzero;"/>
            <path d="M855.743,726.848L793.288,835.025C792.88,834.406 792.478,833.78 792.089,833.141L853.517,726.748C854.261,726.769 855.006,726.801 855.743,726.848Z" style="fill:rgb(181,183,135);fill-rule:nonzero;"/>
            <path d="M860.831,727.309L796.24,839.184C795.799,838.617 795.371,838.037 794.956,837.45L858.683,727.071C859.401,727.137 860.119,727.216 860.831,727.309Z" style="fill:rgb(181,183,135);fill-rule:nonzero;"/>
            <path d="M865.715,728.126L799.391,842.999C798.923,842.479 798.468,841.945 798.026,841.411L863.658,727.737C864.351,727.855 865.036,727.98 865.715,728.126Z" style="fill:rgb(181,183,135);fill-rule:nonzero;"/>
            <path d="M870.42,729.246L802.719,846.512C802.231,846.031 801.75,845.55 801.275,845.056L868.437,728.732C869.102,728.891 869.761,729.062 870.42,729.246Z" style="fill:rgb(181,183,135);fill-rule:nonzero;"/>
            <path d="M874.954,730.67L806.218,849.729C805.704,849.293 805.196,848.845 804.702,848.391L873.036,730.023C873.683,730.228 874.321,730.438 874.954,730.67Z" style="fill:rgb(181,183,135);fill-rule:nonzero;"/>
            <path d="M879.323,732.37L809.869,852.661C809.335,852.266 808.814,851.856 808.294,851.448L877.484,731.605C878.104,731.85 878.717,732.106 879.323,732.37Z" style="fill:rgb(181,183,135);fill-rule:nonzero;"/>
            <path d="M883.541,734.347L813.691,855.33C813.138,854.974 812.584,854.604 812.044,854.223L881.762,733.471C882.361,733.754 882.954,734.044 883.541,734.347Z" style="fill:rgb(181,183,135);fill-rule:nonzero;"/>
            <path d="M887.594,736.594L817.659,857.722C817.079,857.405 816.512,857.076 815.945,856.733L885.881,735.599C886.46,735.922 887.027,736.251 887.594,736.594Z" style="fill:rgb(181,183,135);fill-rule:nonzero;"/>
            <path d="M891.495,739.104L821.784,859.857C821.185,859.574 820.585,859.284 819.998,858.98L889.848,737.998C890.401,738.354 890.955,738.723 891.495,739.104Z" style="fill:rgb(181,183,135);fill-rule:nonzero;"/>
            <path d="M895.252,741.886L826.062,861.723C825.441,861.479 824.822,861.222 824.216,860.958L893.67,740.66C894.204,741.063 894.731,741.471 895.252,741.886Z" style="fill:rgb(181,183,135);fill-rule:nonzero;"/>
            <path d="M898.837,744.938L830.503,863.304C829.864,863.1 829.225,862.889 828.592,862.658L897.328,743.606C897.835,744.034 898.336,744.482 898.837,744.938Z" style="fill:rgb(181,183,135);fill-rule:nonzero;"/>
            <path d="M902.264,748.278L835.104,864.596C834.438,864.438 833.778,864.266 833.119,864.075L900.82,746.815C901.314,747.297 901.796,747.784 902.264,748.278Z" style="fill:rgb(181,183,135);fill-rule:nonzero;"/>
            <path d="M905.513,751.916L839.888,865.591C839.195,865.479 838.51,865.347 837.831,865.209L904.155,750.328C904.616,750.849 905.071,751.383 905.513,751.916Z" style="fill:rgb(181,183,135);fill-rule:nonzero;"/>
            <path d="M908.584,755.877L844.856,866.256C844.139,866.19 843.42,866.111 842.708,866.02L907.299,754.144C907.74,754.711 908.169,755.291 908.584,755.877Z" style="fill:rgb(181,183,135);fill-rule:nonzero;"/>
            <path d="M911.45,760.187L850.023,866.579C849.278,866.56 848.534,866.526 847.796,866.48L910.251,758.302C910.666,758.922 911.068,759.548 911.45,760.187Z" style="fill:rgb(181,183,135);fill-rule:nonzero;"/>
            <path d="M914.087,764.886L855.421,866.507C854.649,866.546 853.872,866.572 853.095,866.586L912.993,762.836C913.375,763.515 913.737,764.193 914.087,764.886Z" style="fill:rgb(181,183,135);fill-rule:nonzero;"/>
            <path d="M916.466,770.053L861.075,865.986C860.265,866.092 859.454,866.184 858.63,866.263L915.483,767.792C915.826,768.537 916.156,769.288 916.466,770.053Z" style="fill:rgb(181,183,135);fill-rule:nonzero;"/>
            <path d="M918.528,775.747L867.046,864.919C866.188,865.116 865.326,865.294 864.456,865.445L917.691,773.249C917.988,774.072 918.265,774.909 918.528,775.747Z" style="fill:rgb(181,183,135);fill-rule:nonzero;"/>
            <path d="M920.195,782.133L873.398,863.186C872.489,863.488 871.566,863.766 870.638,864.022L919.543,779.312C919.78,780.248 919.998,781.184 920.195,782.133Z" style="fill:rgb(181,183,135);fill-rule:nonzero;"/>
            <path d="M921.336,789.421L880.279,860.543C879.284,860.991 878.282,861.406 877.268,861.808L920.934,786.179C921.092,787.253 921.23,788.334 921.336,789.421Z" style="fill:rgb(181,183,135);fill-rule:nonzero;"/>
            <path d="M921.711,796.664C921.711,797.139 921.705,797.612 921.698,798.081L887.95,856.529C886.843,857.201 885.709,857.841 884.556,858.447L921.665,794.179C921.698,795.003 921.711,795.834 921.711,796.664Z" style="fill:rgb(181,183,135);fill-rule:nonzero;"/>
            <path d="M921.322,804.038C921.139,805.817 920.888,807.57 920.564,809.304L897.137,849.887C895.786,851.046 894.382,852.153 892.938,853.201L921.322,804.038Z" style="fill:rgb(181,183,135);fill-rule:nonzero;"/>
            <path d="M918.094,818.912C915.102,827.842 910.35,835.975 904.254,842.888L918.094,818.912Z" style="fill:rgb(181,183,135);fill-rule:nonzero;"/>
            <path d="M727.063,868.967C727.063,870.853 725.546,872.369 723.659,872.369C721.783,872.369 720.257,870.853 720.257,868.967C720.257,867.09 721.783,865.563 723.659,865.563C725.546,865.563 727.063,867.09 727.063,868.967ZM692.063,868.967C692.063,870.853 690.546,872.369 688.659,872.369C686.783,872.369 685.257,870.853 685.257,868.967C685.257,867.09 686.783,865.563 688.659,865.563C690.546,865.563 692.063,867.09 692.063,868.967ZM657.063,868.967C657.063,870.853 655.547,872.369 653.66,872.369C651.784,872.369 650.258,870.853 650.258,868.967C650.258,867.09 651.784,865.563 653.66,865.563C655.547,865.563 657.063,867.09 657.063,868.967ZM622.074,868.967C622.074,870.853 620.547,872.369 618.66,872.369C616.784,872.369 615.258,870.853 615.258,868.967C615.258,867.09 616.784,865.563 618.66,865.563C620.547,865.563 622.074,867.09 622.074,868.967ZM587.064,868.967C587.064,870.853 585.547,872.369 583.661,872.369C581.785,872.369 580.258,870.853 580.258,868.967C580.258,867.09 581.785,865.563 583.661,865.563C585.547,865.563 587.064,867.09 587.064,868.967ZM552.064,868.967C552.064,870.853 550.548,872.369 548.661,872.369C546.785,872.369 545.258,870.853 545.258,868.967C545.258,867.09 546.785,865.563 548.661,865.563C550.548,865.563 552.064,867.09 552.064,868.967ZM517.064,868.967C517.064,870.853 515.547,872.369 513.662,872.369C511.786,872.369 510.269,870.853 510.269,868.967C510.269,867.09 511.786,865.563 513.662,865.563C515.547,865.563 517.064,867.09 517.064,868.967ZM482.064,868.967C482.064,870.853 480.548,872.369 478.662,872.369C476.786,872.369 475.259,870.853 475.259,868.967C475.259,867.09 476.786,865.563 478.662,865.563C480.548,865.563 482.064,867.09 482.064,868.967ZM447.065,868.967C447.065,870.853 445.549,872.369 443.663,872.369C441.786,872.369 440.259,870.853 440.259,868.967C440.259,867.09 441.786,865.563 443.663,865.563C445.549,865.563 447.065,867.09 447.065,868.967ZM412.065,868.967C412.065,870.853 410.549,872.369 408.663,872.369C406.786,872.369 405.26,870.853 405.26,868.967C405.26,867.09 406.786,865.563 408.663,865.563C410.549,865.563 412.065,867.09 412.065,868.967ZM377.065,868.967C377.065,870.853 375.55,872.369 373.673,872.369C371.787,872.369 370.26,870.853 370.26,868.967C370.26,867.09 371.787,865.563 373.673,865.563C375.55,865.563 377.065,867.09 377.065,868.967Z" style="fill:rgb(32,41,70);fill-rule:nonzero;"/>
            <path d="M727.063,828.522C727.063,830.398 725.546,831.925 723.659,831.925C721.783,831.925 720.257,830.398 720.257,828.522C720.257,826.646 721.783,825.12 723.659,825.12C725.546,825.12 727.063,826.646 727.063,828.522ZM692.063,828.522C692.063,830.398 690.546,831.925 688.659,831.925C686.783,831.925 685.257,830.398 685.257,828.522C685.257,826.646 686.783,825.12 688.659,825.12C690.546,825.12 692.063,826.646 692.063,828.522ZM657.063,828.522C657.063,830.398 655.547,831.925 653.66,831.925C651.784,831.925 650.258,830.398 650.258,828.522C650.258,826.646 651.784,825.12 653.66,825.12C655.547,825.12 657.063,826.646 657.063,828.522ZM622.074,828.522C622.074,830.398 620.547,831.925 618.66,831.925C616.784,831.925 615.258,830.398 615.258,828.522C615.258,826.646 616.784,825.12 618.66,825.12C620.547,825.12 622.074,826.646 622.074,828.522ZM587.064,828.522C587.064,830.398 585.547,831.925 583.661,831.925C581.785,831.925 580.258,830.398 580.258,828.522C580.258,826.646 581.785,825.12 583.661,825.12C585.547,825.12 587.064,826.646 587.064,828.522ZM552.064,828.522C552.064,830.398 550.548,831.925 548.661,831.925C546.785,831.925 545.258,830.398 545.258,828.522C545.258,826.646 546.785,825.12 548.661,825.12C550.548,825.12 552.064,826.646 552.064,828.522ZM517.064,828.522C517.064,830.398 515.547,831.925 513.662,831.925C511.786,831.925 510.269,830.398 510.269,828.522C510.269,826.646 511.786,825.12 513.662,825.12C515.547,825.12 517.064,826.646 517.064,828.522ZM482.064,828.522C482.064,830.398 480.548,831.925 478.662,831.925C476.786,831.925 475.259,830.398 475.259,828.522C475.259,826.646 476.786,825.12 478.662,825.12C480.548,825.12 482.064,826.646 482.064,828.522ZM447.065,828.522C447.065,830.398 445.549,831.925 443.663,831.925C441.786,831.925 440.259,830.398 440.259,828.522C440.259,826.646 441.786,825.12 443.663,825.12C445.549,825.12 447.065,826.646 447.065,828.522ZM412.065,828.522C412.065,830.398 410.549,831.925 408.663,831.925C406.786,831.925 405.26,830.398 405.26,828.522C405.26,826.646 406.786,825.12 408.663,825.12C410.549,825.12 412.065,826.646 412.065,828.522ZM377.065,828.522C377.065,830.398 375.55,831.925 373.673,831.925C371.787,831.925 370.26,830.398 370.26,828.522C370.26,826.646 371.787,825.12 373.673,825.12C375.55,825.12 377.065,826.646 377.065,828.522Z" style="fill:rgb(32,41,70);fill-rule:nonzero;"/>
            <path d="M727.063,788.068C727.063,789.955 725.546,791.472 723.659,791.472C721.783,791.472 720.257,789.955 720.257,788.068C720.257,786.192 721.783,784.676 723.659,784.676C725.546,784.676 727.063,786.192 727.063,788.068ZM692.063,788.068C692.063,789.955 690.546,791.472 688.659,791.472C686.783,791.472 685.257,789.955 685.257,788.068C685.257,786.192 686.783,784.676 688.659,784.676C690.546,784.676 692.063,786.192 692.063,788.068ZM657.063,788.068C657.063,789.955 655.547,791.472 653.66,791.472C651.784,791.472 650.258,789.955 650.258,788.068C650.258,786.192 651.784,784.676 653.66,784.676C655.547,784.676 657.063,786.192 657.063,788.068ZM622.074,788.068C622.074,789.955 620.547,791.472 618.66,791.472C616.784,791.472 615.258,789.955 615.258,788.068C615.258,786.192 616.784,784.676 618.66,784.676C620.547,784.676 622.074,786.192 622.074,788.068ZM587.064,788.068C587.064,789.955 585.547,791.472 583.661,791.472C581.785,791.472 580.258,789.955 580.258,788.068C580.258,786.192 581.785,784.676 583.661,784.676C585.547,784.676 587.064,786.192 587.064,788.068ZM552.064,788.068C552.064,789.955 550.548,791.472 548.661,791.472C546.785,791.472 545.258,789.955 545.258,788.068C545.258,786.192 546.785,784.676 548.661,784.676C550.548,784.676 552.064,786.192 552.064,788.068ZM517.064,788.068C517.064,789.955 515.547,791.472 513.662,791.472C511.786,791.472 510.269,789.955 510.269,788.068C510.269,786.192 511.786,784.676 513.662,784.676C515.547,784.676 517.064,786.192 517.064,788.068ZM482.064,788.068C482.064,789.955 480.548,791.472 478.662,791.472C476.786,791.472 475.259,789.955 475.259,788.068C475.259,786.192 476.786,784.676 478.662,784.676C480.548,784.676 482.064,786.192 482.064,788.068ZM447.065,788.068C447.065,789.955 445.549,791.472 443.663,791.472C441.786,791.472 440.259,789.955 440.259,788.068C440.259,786.192 441.786,784.676 443.663,784.676C445.549,784.676 447.065,786.192 447.065,788.068ZM412.065,788.068C412.065,789.955 410.549,791.472 408.663,791.472C406.786,791.472 405.26,789.955 405.26,788.068C405.26,786.192 406.786,784.676 408.663,784.676C410.549,784.676 412.065,786.192 412.065,788.068ZM377.065,788.068C377.065,789.955 375.55,791.472 373.673,791.472C371.787,791.472 370.26,789.955 370.26,788.068C370.26,786.192 371.787,784.676 373.673,784.676C375.55,784.676 377.065,786.192 377.065,788.068Z" style="fill:rgb(32,41,70);fill-rule:nonzero;"/>
            <path d="M299.056,756.318L281.982,795.751L316.131,795.751L299.056,756.318Z" style="fill:rgb(32,41,70);fill-rule:nonzero;"/>
            <path d="M299.056,801.293L281.982,840.725L316.131,840.725L299.056,801.293Z" style="fill:rgb(32,41,70);fill-rule:nonzero;"/>
            <path d="M299.056,846.268L281.982,885.699L316.131,885.699L299.056,846.268Z" style="fill:rgb(32,41,70);fill-rule:nonzero;"/>
            <path d="M643.567,642.664L482.16,642.664C482.16,537.6 397.23,452.38 292.29,451.924L292.29,290.516C486.344,290.972 643.567,448.485 643.567,642.664Z" style="fill:rgb(32,41,70);fill-rule:nonzero;"/>
            <path d="M787.473,479.332L787.473,595.686C711.734,595.686 650.303,656.909 649.974,732.558L533.62,732.558C533.948,592.669 647.495,479.332 787.473,479.332Z" style="fill:rgb(253,211,98);fill-rule:nonzero;"/>
            <path d="M520.296,291.919L520.296,413.677C553.919,413.677 581.175,386.421 581.175,352.798C581.175,319.176 553.919,291.919 520.296,291.919Z" style="fill:rgb(240,82,71);fill-rule:nonzero;"/>
            <path d="M401.98,711.492L384.36,696.252L385.852,694.527L401.98,708.477L418.855,693.882L435.73,708.477L452.605,693.882L469.482,708.478L485.614,694.527L487.105,696.252L469.482,711.492L452.605,696.897L435.73,711.492L418.855,696.897L401.98,711.492Z" style="fill:rgb(3,4,4);fill-rule:nonzero;"/>
            <path d="M401.98,727.684L384.36,712.443L385.852,710.719L401.98,724.669L418.855,710.073L435.73,724.669L452.605,710.073L469.482,724.669L485.614,710.719L487.105,712.443L469.482,727.684L452.605,713.089L435.73,727.684L418.855,713.089L401.98,727.684Z" style="fill:rgb(3,4,4);fill-rule:nonzero;"/>
            <rect x="812.405" y="258.292" width="140.396" height="385.778" style="fill:rgb(32,41,70);fill-rule:nonzero;"/>
            <rect x="660.276" y="258.292" width="131.523" height="7.078" style="fill:rgb(32,41,70);fill-rule:nonzero;"/>
            <path d="M237.709,370.672L235,367.963L277.613,325.35L280.322,328.059L237.709,370.672Z" style="fill:rgb(181,183,135);fill-rule:nonzero;"/>
            <path d="M280.322,370.672L277.613,367.963L320.226,325.35L322.935,328.059L280.322,370.672Z" style="fill:rgb(181,183,135);fill-rule:nonzero;"/>
            <path d="M322.935,370.672L320.226,367.963L362.839,325.35L365.548,328.059L322.935,370.672Z" style="fill:rgb(181,183,135);fill-rule:nonzero;"/>
            <path d="M365.548,370.672L362.839,367.963L405.453,325.35L408.161,328.059L365.548,370.672Z" style="fill:rgb(181,183,135);fill-rule:nonzero;"/>
            <path d="M408.161,370.672L405.453,367.963L448.066,325.35L450.775,328.059L408.161,370.672Z" style="fill:rgb(181,183,135);fill-rule:nonzero;"/>
        </g>
    </g>
</svg>
