<?xml version="1.0" encoding="UTF-8" standalone="no"?>
<!DOCTYPE svg PUBLIC "-//W3C//DTD SVG 1.1//EN" "http://www.w3.org/Graphics/SVG/1.1/DTD/svg11.dtd">
<svg width="100%" height="100%" viewBox="0 0 606 486" version="1.1" xmlns="http://www.w3.org/2000/svg" xmlns:xlink="http://www.w3.org/1999/xlink" xml:space="preserve" xmlns:serif="http://www.serif.com/" style="fill-rule:evenodd;clip-rule:evenodd;stroke-linejoin:round;stroke-miterlimit:2;">
    <g transform="matrix(1,0,0,1,-900,-166)">
        <g transform="matrix(2,0,0,2,0,0)">
            <g transform="matrix(1,0,0,1,6.0933,32.3334)">
                <path d="M516.844,252.334L501.104,243.248L501.104,241.514L501.104,240.755L501.104,222.961L516.844,232.048L516.844,252.334ZM500.776,261.99L485.037,252.903L500.449,244.006L500.776,243.815L501.104,244.006L516.516,252.903L500.776,261.99ZM484.709,232.986L484.709,232.426L484.709,232.048L500.449,222.961L500.449,243.248L484.709,252.334L484.709,232.986ZM516.844,231.29L501.104,222.205L501.014,222.152C500.867,222.067 500.686,222.067 500.54,222.152L500.449,222.205L484.709,231.29L484.29,231.532C484.144,231.616 484.054,231.772 484.054,231.941L484.054,252.82C484.054,252.989 484.144,253.145 484.29,253.229L484.709,253.471L500.489,262.581C500.667,262.683 500.886,262.683 501.064,262.581L516.844,253.471L517.263,253.229C517.409,253.145 517.5,252.989 517.5,252.82L517.5,252.713L517.5,232.048L517.5,231.941C517.5,231.772 517.409,231.616 517.263,231.532L516.844,231.29Z" style="fill:rgb(247,173,188);fill-rule:nonzero;"/>
            </g>
            <path d="M753.3,232.571L753.3,275C725.682,275 703.279,297.326 703.159,324.911L660.73,324.911C660.851,273.9 702.256,232.571 753.3,232.571Z" style="fill:rgb(81,193,215);fill-rule:nonzero;"/>
            <path d="M526.713,119.881L603.16,119.881C603.16,170.864 643.386,212.217 693.089,212.438L693.089,290.762C601.179,290.541 526.713,214.107 526.713,119.881Z" style="fill:rgb(254,203,92);fill-rule:nonzero;"/>
            <path d="M539.978,109.931L539.212,109.165L551.257,97.121L552.022,97.887L539.978,109.931Z" style="fill-rule:nonzero;"/>
            <path d="M552.022,109.931L551.257,109.165L563.301,97.121L564.067,97.887L552.022,109.931Z" style="fill-rule:nonzero;"/>
            <path d="M564.067,109.931L563.301,109.165L575.345,97.121L576.111,97.887L564.067,109.931Z" style="fill-rule:nonzero;"/>
            <path d="M576.111,109.931L575.345,109.165L587.39,97.121L588.155,97.887L576.111,109.931Z" style="fill-rule:nonzero;"/>
            <path d="M588.155,109.931L587.39,109.165L599.434,97.121L600.2,97.887L588.155,109.931Z" style="fill-rule:nonzero;"/>
            <path d="M711.3,118.776C711.3,125.929 705.502,131.727 698.35,131.727C691.197,131.727 685.398,125.929 685.398,118.776C685.398,111.624 691.197,105.826 698.35,105.826C705.502,105.826 711.3,111.624 711.3,118.776Z" style="fill:rgb(81,193,215);fill-rule:nonzero;"/>
            <path d="M706.815,101.145C699.998,101.145 694.451,106.691 694.451,113.508C694.451,120.325 699.998,125.871 706.815,125.871C713.633,125.871 719.179,120.325 719.179,113.508C719.179,106.691 713.633,101.145 706.815,101.145ZM706.815,127.045C699.351,127.045 693.277,120.973 693.277,113.508C693.277,106.043 699.351,99.971 706.815,99.971C714.28,99.971 720.353,106.043 720.353,113.508C720.353,120.973 714.28,127.045 706.815,127.045Z" style="fill-rule:nonzero;"/>
            <g transform="matrix(1,0,0,1,-16.5577,-284.279)">
                <path d="M472,503.707C471.3,503.707 470.737,503.144 470.737,502.443C470.737,501.747 471.3,501.18 472,501.18C472.697,501.18 473.264,501.747 473.264,502.443C473.264,503.144 472.697,503.707 472,503.707ZM472,490.711C471.3,490.711 470.737,490.147 470.737,489.447C470.737,488.75 471.3,488.184 472,488.184C472.697,488.184 473.264,488.75 473.264,489.447C473.264,490.147 472.697,490.711 472,490.711ZM472,477.714C471.3,477.714 470.737,477.151 470.737,476.45C470.737,475.754 471.3,475.188 472,475.188C472.697,475.188 473.264,475.754 473.264,476.45C473.264,477.151 472.697,477.714 472,477.714ZM472,464.722C471.3,464.722 470.737,464.154 470.737,463.454C470.737,462.758 471.3,462.19 472,462.19C472.697,462.19 473.264,462.758 473.264,463.454C473.264,464.154 472.697,464.722 472,464.722ZM472,451.722C471.3,451.722 470.737,451.158 470.737,450.458C470.737,449.762 471.3,449.194 472,449.194C472.697,449.194 473.264,449.762 473.264,450.458C473.264,451.158 472.697,451.722 472,451.722ZM472,438.726C471.3,438.726 470.737,438.162 470.737,437.462C470.737,436.765 471.3,436.198 472,436.198C472.697,436.198 473.264,436.765 473.264,437.462C473.264,438.162 472.697,438.726 472,438.726ZM472,425.729C471.3,425.729 470.737,425.166 470.737,424.466C470.737,423.769 471.3,423.206 472,423.206C472.697,423.206 473.264,423.769 473.264,424.466C473.264,425.166 472.697,425.729 472,425.729ZM472,412.732C471.3,412.732 470.737,412.17 470.737,411.469C470.737,410.772 471.3,410.205 472,410.205C472.697,410.205 473.264,410.772 473.264,411.469C473.264,412.17 472.697,412.732 472,412.732ZM472,399.736C471.3,399.736 470.737,399.173 470.737,398.473C470.737,397.776 471.3,397.209 472,397.209C472.697,397.209 473.264,397.776 473.264,398.473C473.264,399.173 472.697,399.736 472,399.736ZM472,386.74C471.3,386.74 470.737,386.177 470.737,385.477C470.737,384.779 471.3,384.213 472,384.213C472.697,384.213 473.264,384.779 473.264,385.477C473.264,386.177 472.697,386.74 472,386.74ZM472,373.743C471.3,373.743 470.737,373.181 470.737,372.483C470.737,371.783 471.3,371.217 472,371.217C472.697,371.217 473.264,371.783 473.264,372.483C473.264,373.181 472.697,373.743 472,373.743Z" style="fill:rgb(255,136,69);fill-rule:nonzero;"/>
                <path d="M487.019,503.707C486.322,503.707 485.755,503.144 485.755,502.443C485.755,501.747 486.322,501.18 487.019,501.18C487.715,501.18 488.282,501.747 488.282,502.443C488.282,503.144 487.715,503.707 487.019,503.707ZM487.019,490.711C486.322,490.711 485.755,490.147 485.755,489.447C485.755,488.75 486.322,488.184 487.019,488.184C487.715,488.184 488.282,488.75 488.282,489.447C488.282,490.147 487.715,490.711 487.019,490.711ZM487.019,477.714C486.322,477.714 485.755,477.151 485.755,476.45C485.755,475.754 486.322,475.188 487.019,475.188C487.715,475.188 488.282,475.754 488.282,476.45C488.282,477.151 487.715,477.714 487.019,477.714ZM487.019,464.722C486.322,464.722 485.755,464.154 485.755,463.454C485.755,462.758 486.322,462.19 487.019,462.19C487.715,462.19 488.282,462.758 488.282,463.454C488.282,464.154 487.715,464.722 487.019,464.722ZM487.019,451.722C486.322,451.722 485.755,451.158 485.755,450.458C485.755,449.762 486.322,449.194 487.019,449.194C487.715,449.194 488.282,449.762 488.282,450.458C488.282,451.158 487.715,451.722 487.019,451.722ZM487.019,438.726C486.322,438.726 485.755,438.162 485.755,437.462C485.755,436.765 486.322,436.198 487.019,436.198C487.715,436.198 488.282,436.765 488.282,437.462C488.282,438.162 487.715,438.726 487.019,438.726ZM487.019,425.729C486.322,425.729 485.755,425.166 485.755,424.466C485.755,423.769 486.322,423.206 487.019,423.206C487.715,423.206 488.282,423.769 488.282,424.466C488.282,425.166 487.715,425.729 487.019,425.729ZM487.019,412.732C486.322,412.732 485.755,412.17 485.755,411.469C485.755,410.772 486.322,410.205 487.019,410.205C487.715,410.205 488.282,410.772 488.282,411.469C488.282,412.17 487.715,412.732 487.019,412.732ZM487.019,399.736C486.322,399.736 485.755,399.173 485.755,398.473C485.755,397.776 486.322,397.209 487.019,397.209C487.715,397.209 488.282,397.776 488.282,398.473C488.282,399.173 487.715,399.736 487.019,399.736ZM487.019,386.74C486.322,386.74 485.755,386.177 485.755,385.477C485.755,384.779 486.322,384.213 487.019,384.213C487.715,384.213 488.282,384.779 488.282,385.477C488.282,386.177 487.715,386.74 487.019,386.74ZM487.019,373.743C486.322,373.743 485.755,373.181 485.755,372.483C485.755,371.783 486.322,371.217 487.019,371.217C487.715,371.217 488.282,371.783 488.282,372.483C488.282,373.181 487.715,373.743 487.019,373.743Z" style="fill:rgb(255,136,69);fill-rule:nonzero;"/>
                <path d="M502.04,503.707C501.34,503.707 500.776,503.144 500.776,502.443C500.776,501.747 501.34,501.18 502.04,501.18C502.737,501.18 503.3,501.747 503.3,502.443C503.3,503.144 502.737,503.707 502.04,503.707ZM502.04,490.711C501.34,490.711 500.776,490.147 500.776,489.447C500.776,488.75 501.34,488.184 502.04,488.184C502.737,488.184 503.3,488.75 503.3,489.447C503.3,490.147 502.737,490.711 502.04,490.711ZM502.04,477.714C501.34,477.714 500.776,477.151 500.776,476.45C500.776,475.754 501.34,475.188 502.04,475.188C502.737,475.188 503.3,475.754 503.3,476.45C503.3,477.151 502.737,477.714 502.04,477.714ZM502.04,464.722C501.34,464.722 500.776,464.154 500.776,463.454C500.776,462.758 501.34,462.19 502.04,462.19C502.737,462.19 503.3,462.758 503.3,463.454C503.3,464.154 502.737,464.722 502.04,464.722ZM502.04,451.722C501.34,451.722 500.776,451.158 500.776,450.458C500.776,449.762 501.34,449.194 502.04,449.194C502.737,449.194 503.3,449.762 503.3,450.458C503.3,451.158 502.737,451.722 502.04,451.722ZM502.04,438.726C501.34,438.726 500.776,438.162 500.776,437.462C500.776,436.765 501.34,436.198 502.04,436.198C502.737,436.198 503.3,436.765 503.3,437.462C503.3,438.162 502.737,438.726 502.04,438.726ZM502.04,425.729C501.34,425.729 500.776,425.166 500.776,424.466C500.776,423.769 501.34,423.206 502.04,423.206C502.737,423.206 503.3,423.769 503.3,424.466C503.3,425.166 502.737,425.729 502.04,425.729ZM502.04,412.732C501.34,412.732 500.776,412.17 500.776,411.469C500.776,410.772 501.34,410.205 502.04,410.205C502.737,410.205 503.3,410.772 503.3,411.469C503.3,412.17 502.737,412.732 502.04,412.732ZM502.04,399.736C501.34,399.736 500.776,399.173 500.776,398.473C500.776,397.776 501.34,397.209 502.04,397.209C502.737,397.209 503.3,397.776 503.3,398.473C503.3,399.173 502.737,399.736 502.04,399.736ZM502.04,386.74C501.34,386.74 500.776,386.177 500.776,385.477C500.776,384.779 501.34,384.213 502.04,384.213C502.737,384.213 503.3,384.779 503.3,385.477C503.3,386.177 502.737,386.74 502.04,386.74ZM502.04,373.743C501.34,373.743 500.776,373.181 500.776,372.483C500.776,371.783 501.34,371.217 502.04,371.217C502.737,371.217 503.3,371.783 503.3,372.483C503.3,373.181 502.737,373.743 502.04,373.743Z" style="fill:rgb(255,136,69);fill-rule:nonzero;"/>
            </g>
            <path d="M592.201,237.801L585.508,249.391C586.957,245.075 589.25,241.144 592.201,237.801Z" style="fill:rgb(247,173,188);fill-rule:nonzero;"/>
            <path d="M597.676,232.805L583.942,256.594C584.031,255.733 584.152,254.881 584.309,254.042L595.647,234.41C596.301,233.845 596.977,233.312 597.676,232.805Z" style="fill:rgb(247,173,188);fill-rule:nonzero;"/>
            <path d="M601.737,230.262L583.776,261.37C583.76,260.972 583.753,260.573 583.753,260.17C583.753,259.941 583.757,259.711 583.76,259.481L600.094,231.19C600.633,230.865 601.179,230.556 601.737,230.262Z" style="fill:rgb(247,173,188);fill-rule:nonzero;"/>
            <path d="M605.266,228.638L584.13,265.243C584.054,264.723 583.986,264.2 583.932,263.673L603.808,229.248C604.286,229.034 604.774,228.83 605.266,228.638Z" style="fill:rgb(247,173,188);fill-rule:nonzero;"/>
            <path d="M608.478,227.563L584.803,268.571C584.688,268.118 584.583,267.661 584.487,267.202L607.142,227.968C607.582,227.822 608.028,227.688 608.478,227.563Z" style="fill:rgb(247,173,188);fill-rule:nonzero;"/>
            <path d="M611.467,226.874L585.7,271.505C585.556,271.104 585.419,270.702 585.294,270.293L610.214,227.129C610.628,227.034 611.046,226.948 611.467,226.874Z" style="fill:rgb(247,173,188);fill-rule:nonzero;"/>
            <path d="M614.287,226.479L586.765,274.147C586.6,273.787 586.443,273.42 586.293,273.05L613.104,226.613C613.496,226.562 613.892,226.517 614.287,226.479Z" style="fill:rgb(247,173,188);fill-rule:nonzero;"/>
            <path d="M616.971,226.322L587.974,276.546C587.79,276.218 587.614,275.889 587.441,275.554L615.844,226.36C616.218,226.341 616.594,226.329 616.971,226.322Z" style="fill:rgb(247,173,188);fill-rule:nonzero;"/>
            <path d="M619.532,226.374L589.298,278.741C589.101,278.441 588.906,278.138 588.718,277.829L618.454,226.326C618.814,226.335 619.175,226.351 619.532,226.374Z" style="fill:rgb(247,173,188);fill-rule:nonzero;"/>
            <path d="M621.995,226.597L590.728,280.754C590.514,280.48 590.307,280.199 590.105,279.915L620.955,226.482C621.303,226.514 621.65,226.552 621.995,226.597Z" style="fill:rgb(247,173,188);fill-rule:nonzero;"/>
            <path d="M624.359,226.992L592.252,282.601C592.026,282.349 591.806,282.091 591.592,281.833L623.363,226.804C623.698,226.861 624.03,226.922 624.359,226.992Z" style="fill:rgb(247,173,188);fill-rule:nonzero;"/>
            <path d="M626.637,227.535L593.864,284.302C593.627,284.069 593.395,283.836 593.165,283.597L625.677,227.286C625.999,227.362 626.317,227.445 626.637,227.535Z" style="fill:rgb(247,173,188);fill-rule:nonzero;"/>
            <path d="M628.832,228.224L595.558,285.858C595.309,285.648 595.063,285.431 594.824,285.211L627.903,227.911C628.216,228.01 628.525,228.112 628.832,228.224Z" style="fill:rgb(247,173,188);fill-rule:nonzero;"/>
            <path d="M630.947,229.047L597.325,287.278C597.066,287.087 596.814,286.889 596.563,286.691L630.057,228.677C630.356,228.795 630.653,228.919 630.947,229.047Z" style="fill:rgb(247,173,188);fill-rule:nonzero;"/>
            <path d="M632.988,230.004L599.175,288.57C598.907,288.398 598.639,288.219 598.377,288.034L632.127,229.58C632.418,229.717 632.705,229.857 632.988,230.004Z" style="fill:rgb(247,173,188);fill-rule:nonzero;"/>
            <path d="M634.95,231.092L601.096,289.728C600.815,289.575 600.541,289.416 600.266,289.25L634.121,230.61C634.401,230.766 634.676,230.926 634.95,231.092Z" style="fill:rgb(247,173,188);fill-rule:nonzero;"/>
            <path d="M636.839,232.307L603.093,290.762C602.803,290.625 602.513,290.484 602.229,290.337L636.042,231.771C636.31,231.943 636.577,232.122 636.839,232.307Z" style="fill:rgb(247,173,188);fill-rule:nonzero;"/>
            <path d="M638.657,233.653L605.163,291.665C604.863,291.547 604.563,291.422 604.271,291.294L637.892,233.06C638.15,233.255 638.405,233.453 638.657,233.653Z" style="fill:rgb(247,173,188);fill-rule:nonzero;"/>
            <path d="M640.393,235.13L607.313,292.43C607.004,292.332 606.694,292.229 606.389,292.118L639.662,234.486C639.908,234.693 640.15,234.91 640.393,235.13Z" style="fill:rgb(247,173,188);fill-rule:nonzero;"/>
            <path d="M642.052,236.748L609.54,293.056C609.218,292.979 608.899,292.896 608.58,292.804L641.354,236.04C641.593,236.272 641.825,236.509 642.052,236.748Z" style="fill:rgb(247,173,188);fill-rule:nonzero;"/>
            <path d="M643.625,238.509L611.856,293.537C611.521,293.483 611.189,293.419 610.861,293.353L642.968,237.74C643.191,237.992 643.411,238.25 643.625,238.509Z" style="fill:rgb(247,173,188);fill-rule:nonzero;"/>
            <path d="M645.111,240.426L614.262,293.859C613.914,293.828 613.566,293.79 613.222,293.745L644.489,239.587C644.703,239.862 644.91,240.143 645.111,240.426Z" style="fill:rgb(247,173,188);fill-rule:nonzero;"/>
            <path d="M646.499,242.513L616.763,294.016C616.402,294.006 616.042,293.99 615.685,293.968L645.919,241.6C646.119,241.9 646.314,242.203 646.499,242.513Z" style="fill:rgb(247,173,188);fill-rule:nonzero;"/>
            <path d="M647.775,244.787L619.376,293.981C619.003,294 618.626,294.013 618.25,294.019L647.246,243.795C647.431,244.124 647.606,244.452 647.775,244.787Z" style="fill:rgb(247,173,188);fill-rule:nonzero;"/>
            <path d="M648.927,247.289L622.113,293.729C621.721,293.78 621.328,293.825 620.93,293.863L648.451,246.194C648.617,246.555 648.777,246.918 648.927,247.289Z" style="fill:rgb(247,173,188);fill-rule:nonzero;"/>
            <path d="M649.926,250.045L625.004,293.212C624.589,293.308 624.171,293.394 623.75,293.467L649.521,248.836C649.664,249.234 649.798,249.64 649.926,250.045Z" style="fill:rgb(247,173,188);fill-rule:nonzero;"/>
            <path d="M650.732,253.136L628.079,292.373C627.639,292.52 627.192,292.654 626.742,292.778L650.417,251.771C650.531,252.224 650.637,252.677 650.732,253.136Z" style="fill:rgb(247,173,188);fill-rule:nonzero;"/>
            <path d="M651.284,256.665L631.409,291.094C630.928,291.311 630.442,291.512 629.951,291.706L651.09,255.095C651.167,255.615 651.233,256.138 651.284,256.665Z" style="fill:rgb(247,173,188);fill-rule:nonzero;"/>
            <path d="M651.467,260.17C651.467,260.4 651.463,260.63 651.46,260.856L635.123,289.151C634.587,289.476 634.038,289.786 633.479,290.079L651.444,258.968C651.46,259.367 651.467,259.769 651.467,260.17Z" style="fill:rgb(247,173,188);fill-rule:nonzero;"/>
            <path d="M651.278,263.741C651.188,264.602 651.067,265.451 650.911,266.29L639.57,285.935C638.916,286.497 638.236,287.033 637.538,287.54L651.278,263.741Z" style="fill:rgb(247,173,188);fill-rule:nonzero;"/>
            <path d="M649.715,270.941C648.267,275.264 645.967,279.2 643.016,282.547L649.715,270.941Z" style="fill:rgb(247,173,188);fill-rule:nonzero;"/>
        </g>
    </g>
</svg>
