<?xml version="1.0" encoding="UTF-8" standalone="no"?>
<!DOCTYPE svg PUBLIC "-//W3C//DTD SVG 1.1//EN" "http://www.w3.org/Graphics/SVG/1.1/DTD/svg11.dtd">
<svg width="100%" height="100%" viewBox="0 0 16667 16667" version="1.1" xmlns="http://www.w3.org/2000/svg" xmlns:xlink="http://www.w3.org/1999/xlink" xml:space="preserve" xmlns:serif="http://www.serif.com/" style="fill-rule:evenodd;clip-rule:evenodd;stroke-linejoin:round;stroke-miterlimit:2;">
    <g transform="matrix(4.16667,0,0,4.16667,0,0)">
        <path d="M1271.65,621.312L1509.44,985.355L1747.23,621.312L1271.65,621.312Z" style="fill:rgb(205,197,190);fill-rule:nonzero;"/>
        <path d="M2470.98,612.691C2458.98,599.181 2444.04,582.368 2415.15,582.368C2386.25,582.368 2371.32,599.181 2359.32,612.691C2348.6,624.76 2340.13,634.293 2322.9,634.293C2305.69,634.293 2297.22,624.763 2286.51,612.695C2274.52,599.184 2259.59,582.368 2230.71,582.368C2201.82,582.368 2186.89,599.181 2174.89,612.695C2164.18,624.76 2155.71,634.293 2138.5,634.293C2121.29,634.293 2112.82,624.763 2102.11,612.695C2090.12,599.184 2075.19,582.368 2046.31,582.368L2046.31,608.331C2063.52,608.331 2071.99,617.864 2082.7,629.929C2094.69,643.44 2109.62,660.256 2138.5,660.256C2167.38,660.256 2182.31,643.443 2194.31,629.932C2205.02,617.864 2213.49,608.331 2230.71,608.331C2247.92,608.331 2256.39,617.864 2267.1,629.929C2279.09,643.44 2294.02,660.256 2322.9,660.256C2351.79,660.256 2366.73,643.443 2378.73,629.932C2389.45,617.864 2397.92,608.331 2415.15,608.331C2432.38,608.331 2440.85,617.864 2451.57,629.932C2463.57,643.443 2478.5,660.256 2507.4,660.256L2507.4,634.293C2490.17,634.293 2481.7,624.76 2470.98,612.691Z" style="fill:rgb(240,86,102);fill-rule:nonzero;"/>
        <path d="M3039.24,2612.41C3021.96,2592.95 3000.45,2568.74 2958.84,2568.74C2917.24,2568.74 2895.73,2592.95 2878.45,2612.41C2863.01,2629.78 2850.82,2643.51 2826.01,2643.51C2801.23,2643.51 2789.04,2629.79 2773.62,2612.41C2756.35,2592.96 2734.85,2568.74 2693.26,2568.74C2651.67,2568.74 2630.17,2592.95 2612.89,2612.41C2597.46,2629.78 2585.27,2643.51 2560.48,2643.51C2535.7,2643.51 2523.51,2629.79 2508.09,2612.41C2490.82,2592.96 2469.32,2568.74 2427.74,2568.74L2427.74,2606.13C2452.52,2606.13 2464.71,2619.85 2480.13,2637.23C2497.4,2656.68 2518.89,2680.9 2560.48,2680.9C2602.08,2680.9 2623.57,2656.69 2640.85,2637.23C2656.28,2619.85 2668.47,2606.13 2693.26,2606.13C2718.05,2606.13 2730.23,2619.85 2745.66,2637.23C2762.93,2656.68 2784.42,2680.9 2826.01,2680.9C2867.61,2680.9 2889.12,2656.69 2906.4,2637.23C2921.84,2619.85 2934.03,2606.13 2958.84,2606.13C2983.66,2606.13 2995.85,2619.85 3011.29,2637.23C3028.57,2656.69 3050.08,2680.9 3091.68,2680.9L3091.68,2643.51C3066.87,2643.51 3054.67,2629.78 3039.24,2612.41Z" style="fill:rgb(205,197,190);fill-rule:nonzero;"/>
        <path d="M1022.73,947.149C1005.45,927.694 983.944,903.484 942.337,903.484C900.731,903.484 879.223,927.694 861.945,947.149C846.506,964.527 834.313,978.254 809.5,978.254C784.72,978.254 772.535,964.532 757.11,947.153C739.841,927.699 718.347,903.484 676.759,903.484C635.162,903.484 613.662,927.694 596.384,947.153C580.955,964.527 568.766,978.254 543.972,978.254C519.19,978.254 507.006,964.532 491.582,947.153C474.313,927.699 452.818,903.484 411.23,903.484L411.23,940.87C436.015,940.87 448.2,954.597 463.625,971.97C480.894,991.425 502.388,1015.64 543.972,1015.64C585.569,1015.64 607.063,991.43 624.341,971.975C639.771,954.597 651.96,940.87 676.759,940.87C701.543,940.87 713.729,954.597 729.153,971.97C746.422,991.425 767.917,1015.64 809.5,1015.64C851.106,1015.64 872.615,991.43 889.893,971.975C905.331,954.597 917.525,940.87 942.337,940.87C967.15,940.87 979.344,954.597 994.782,971.975C1012.06,991.43 1033.57,1015.64 1075.17,1015.64L1075.17,978.254C1050.36,978.254 1038.17,964.527 1022.73,947.149Z" style="fill:rgb(240,86,102);fill-rule:nonzero;"/>
        <path d="M1120.1,493.465L1316.39,793.967L1512.68,493.465L1120.1,493.465ZM1316.39,825.88L1087.85,476.008L1544.93,476.008L1316.39,825.88Z" style="fill:rgb(240,86,102);fill-rule:nonzero;"/>
        <path d="M2335.87,1918.06L2630.59,2369.25L2925.32,1918.06L2335.87,1918.06ZM2630.59,2417.17L2287.44,1891.84L2973.75,1891.84L2630.59,2417.17Z" style="fill:rgb(205,197,190);fill-rule:nonzero;"/>
        <path d="M787.181,2072.27L1723.94,2072.27L1739.2,2047.08L771.923,2047.08L787.181,2072.27Z" style="fill:rgb(205,197,190);fill-rule:nonzero;"/>
        <path d="M1016.94,2451.6L1494.18,2451.6L1509.44,2426.41L1001.69,2426.41L1016.94,2451.6Z" style="fill:rgb(205,197,190);fill-rule:nonzero;"/>
        <path d="M758.46,2024.85L1752.66,2024.85L1767.92,1999.66L743.203,1999.66L758.46,2024.85Z" style="fill:rgb(205,197,190);fill-rule:nonzero;"/>
        <path d="M1045.66,2499.01L1465.46,2499.01L1480.72,2473.82L1030.41,2473.82L1045.66,2499.01Z" style="fill:rgb(205,197,190);fill-rule:nonzero;"/>
        <path d="M1103.11,2593.84L1408.02,2593.84L1423.27,2568.66L1087.85,2568.66L1103.11,2593.84Z" style="fill:rgb(205,197,190);fill-rule:nonzero;"/>
        <path d="M988.224,2404.18L1522.9,2404.18L1538.16,2378.99L972.966,2378.99L988.224,2404.18Z" style="fill:rgb(205,197,190);fill-rule:nonzero;"/>
        <path d="M1074.39,2546.43L1436.74,2546.43L1452,2521.24L1059.13,2521.24L1074.39,2546.43Z" style="fill:rgb(205,197,190);fill-rule:nonzero;"/>
        <path d="M714.482,1952.25L729.74,1977.44L1781.38,1977.44L1796.64,1952.25L714.482,1952.25Z" style="fill:rgb(205,197,190);fill-rule:nonzero;"/>
        <path d="M873.342,2214.52L1637.78,2214.52L1653.04,2189.33L858.084,2189.33L873.342,2214.52Z" style="fill:rgb(205,197,190);fill-rule:nonzero;"/>
        <path d="M844.621,2167.1L1666.5,2167.1L1681.76,2141.91L829.364,2141.91L844.621,2167.1Z" style="fill:rgb(205,197,190);fill-rule:nonzero;"/>
        <path d="M902.063,2261.93L1609.06,2261.93L1624.32,2236.74L886.805,2236.74L902.063,2261.93Z" style="fill:rgb(205,197,190);fill-rule:nonzero;"/>
        <path d="M959.503,2356.76L1551.62,2356.76L1566.88,2331.58L944.246,2331.58L959.503,2356.76Z" style="fill:rgb(205,197,190);fill-rule:nonzero;"/>
        <path d="M930.783,2309.35L1580.34,2309.35L1595.6,2284.16L915.525,2284.16L930.783,2309.35Z" style="fill:rgb(205,197,190);fill-rule:nonzero;"/>
        <path d="M815.901,2119.69L1695.22,2119.69L1710.48,2094.5L800.643,2094.5L815.901,2119.69Z" style="fill:rgb(205,197,190);fill-rule:nonzero;"/>
        <path d="M1217.99,2783.51L1293.14,2783.51L1308.39,2758.32L1202.73,2758.32L1217.99,2783.51Z" style="fill:rgb(205,197,190);fill-rule:nonzero;"/>
        <path d="M1131.83,2641.26L1379.3,2641.26L1394.56,2616.07L1116.57,2616.07L1131.83,2641.26Z" style="fill:rgb(205,197,190);fill-rule:nonzero;"/>
        <path d="M1189.27,2736.09L1321.86,2736.09L1337.11,2710.9L1174.01,2710.9L1189.27,2736.09Z" style="fill:rgb(205,197,190);fill-rule:nonzero;"/>
        <path d="M1160.55,2688.68L1350.58,2688.68L1365.83,2663.49L1145.29,2663.49L1160.55,2688.68Z" style="fill:rgb(205,197,190);fill-rule:nonzero;"/>
        <path d="M1255.56,2845.54L1279.67,2805.73L1231.45,2805.73L1255.56,2845.54Z" style="fill:rgb(205,197,190);fill-rule:nonzero;"/>
        <path d="M2222.08,975.74L2823.69,975.74L2833.49,959.562L2212.28,959.562L2222.08,975.74Z" style="fill:rgb(205,197,190);fill-rule:nonzero;"/>
        <path d="M2369.64,1219.35L2676.13,1219.35L2685.93,1203.18L2359.84,1203.18L2369.64,1219.35Z" style="fill:rgb(205,197,190);fill-rule:nonzero;"/>
        <path d="M2203.63,945.288L2842.13,945.288L2851.93,929.111L2193.83,929.11L2203.63,945.288Z" style="fill:rgb(205,197,190);fill-rule:nonzero;"/>
        <path d="M2388.08,1249.8L2657.68,1249.8L2667.48,1233.63L2378.28,1233.63L2388.08,1249.8Z" style="fill:rgb(205,197,190);fill-rule:nonzero;"/>
        <path d="M2424.97,1310.71L2620.79,1310.71L2630.59,1294.53L2415.17,1294.53L2424.97,1310.71Z" style="fill:rgb(205,197,190);fill-rule:nonzero;"/>
        <path d="M2351.19,1188.9L2694.57,1188.9L2704.37,1172.72L2341.39,1172.72L2351.19,1188.9Z" style="fill:rgb(205,197,190);fill-rule:nonzero;"/>
        <path d="M2406.53,1280.26L2639.24,1280.26L2649.04,1264.08L2396.73,1264.08L2406.53,1280.26Z" style="fill:rgb(205,197,190);fill-rule:nonzero;"/>
        <path d="M2175.39,898.659L2185.19,914.836L2860.58,914.836L2870.38,898.659L2175.39,898.659Z" style="fill:rgb(205,197,190);fill-rule:nonzero;"/>
        <path d="M2277.41,1067.09L2768.35,1067.09L2778.15,1050.92L2267.61,1050.92L2277.41,1067.09Z" style="fill:rgb(205,197,190);fill-rule:nonzero;"/>
        <path d="M2258.97,1036.64L2786.8,1036.64L2796.6,1020.47L2249.17,1020.47L2258.97,1036.64Z" style="fill:rgb(205,197,190);fill-rule:nonzero;"/>
        <path d="M2295.86,1097.55L2749.91,1097.55L2759.71,1081.37L2286.06,1081.37L2295.86,1097.55Z" style="fill:rgb(205,197,190);fill-rule:nonzero;"/>
        <path d="M2332.75,1158.45L2713.02,1158.45L2722.82,1142.27L2322.95,1142.27L2332.75,1158.45Z" style="fill:rgb(205,197,190);fill-rule:nonzero;"/>
        <path d="M2314.3,1128L2731.46,1128L2741.26,1111.82L2304.5,1111.82L2314.3,1128Z" style="fill:rgb(205,197,190);fill-rule:nonzero;"/>
        <path d="M2240.52,1006.19L2805.25,1006.19L2815.04,990.014L2230.72,990.014L2240.52,1006.19Z" style="fill:rgb(205,197,190);fill-rule:nonzero;"/>
        <path d="M2498.75,1432.52L2547.01,1432.52L2556.81,1416.34L2488.95,1416.34L2498.75,1432.52Z" style="fill:rgb(205,197,190);fill-rule:nonzero;"/>
        <path d="M2443.42,1341.16L2602.35,1341.16L2612.15,1324.98L2433.62,1324.98L2443.42,1341.16Z" style="fill:rgb(205,197,190);fill-rule:nonzero;"/>
        <path d="M2480.31,1402.06L2565.46,1402.06L2575.26,1385.89L2470.51,1385.89L2480.31,1402.06Z" style="fill:rgb(205,197,190);fill-rule:nonzero;"/>
        <path d="M2461.86,1371.61L2583.9,1371.61L2593.7,1355.43L2452.06,1355.43L2461.86,1371.61Z" style="fill:rgb(205,197,190);fill-rule:nonzero;"/>
        <path d="M2522.88,1472.35L2538.37,1446.79L2507.4,1446.79L2522.88,1472.35Z" style="fill:rgb(205,197,190);fill-rule:nonzero;"/>
        <path d="M3180.58,838.641L3194.22,847.003L3884.79,-279.452L3871.15,-287.814L3180.58,838.641Z" style="fill:rgb(192,73,86);fill-rule:nonzero;"/>
        <path d="M3180.58,1016.28L3187.4,1020.47L4376.87,-919.774L4370.04,-923.956L3180.58,1016.28Z" style="fill:rgb(192,73,86);fill-rule:nonzero;"/>
        <path d="M821.902,4350.09L835.542,4358.45L1526.12,3232L1512.48,3223.63L821.902,4350.09Z" style="fill:rgb(192,73,86);fill-rule:nonzero;"/>
        <path d="M2349.77,3527.62L2360.55,3534.23L2800.75,2816.19L2789.96,2809.58L2349.77,3527.62Z" style="fill:rgb(205,197,190);fill-rule:nonzero;"/>
        <path d="M1822.07,472.56L1832.85,479.169L2273.05,-238.866L2262.26,-245.476L1822.07,472.56Z" style="fill:rgb(205,197,190);fill-rule:nonzero;"/>
        <path d="M374.823,4641.82L381.643,4646L1571.11,2705.77L1564.29,2701.58L374.823,4641.82Z" style="fill:rgb(192,73,86);fill-rule:nonzero;"/>
        <path d="M1642.24,3047.58L1662.21,3027.6C1667.14,3022.67 1667.14,3014.61 1662.21,3009.68C1657.29,3004.75 1649.22,3004.75 1644.3,3009.68L1624.32,3029.66L1604.34,3009.68C1599.41,3004.75 1591.35,3004.75 1586.42,3009.68C1581.5,3014.61 1581.5,3022.67 1586.42,3027.6L1606.4,3047.58L1586.42,3067.56C1581.5,3072.48 1581.5,3080.54 1586.42,3085.47C1591.35,3090.4 1599.41,3090.4 1604.34,3085.47L1624.32,3065.49L1644.3,3085.47C1649.23,3090.4 1657.29,3090.4 1662.21,3085.47C1667.14,3080.54 1667.14,3072.48 1662.21,3067.56L1642.24,3047.58Z" style="fill:rgb(240,86,102);fill-rule:nonzero;"/>
        <path d="M3113.96,1573.65L3138.8,1548.8C3144.93,1542.68 3144.93,1532.65 3138.8,1526.53C3132.67,1520.4 3122.65,1520.4 3116.52,1526.53L3091.68,1551.37L3066.84,1526.53C3060.71,1520.4 3050.69,1520.4 3044.56,1526.53C3038.43,1532.65 3038.43,1542.68 3044.56,1548.8L3069.4,1573.65L3044.56,1598.49C3038.43,1604.62 3038.43,1614.64 3044.56,1620.77C3050.69,1626.89 3060.71,1626.89 3066.84,1620.77L3091.68,1595.92L3116.52,1620.77C3122.65,1626.89 3132.67,1626.89 3138.8,1620.77C3144.93,1614.64 3144.93,1604.62 3138.8,1598.49L3113.96,1573.65Z" style="fill:rgb(240,86,102);fill-rule:nonzero;"/>
        <path d="M3017.83,2440.05L2932.3,2295.55L2846.78,2440.05L3017.83,2440.05Z" style="fill:rgb(240,86,102);fill-rule:nonzero;"/>
        <path d="M1918.27,3353.12L1832.74,3208.62L1747.22,3353.12L1918.27,3353.12Z" style="fill:rgb(205,197,190);fill-rule:nonzero;"/>
        <path d="M982.171,1212.26L2000,2932.03L3017.83,1212.26L982.171,1212.26Z" style="fill:rgb(240,86,102);fill-rule:nonzero;"/>
        <path d="M919.258,2845.54C919.258,2868.14 900.937,2886.46 878.336,2886.46C855.736,2886.46 837.415,2868.14 837.415,2845.54C837.415,2822.94 855.736,2804.62 878.336,2804.62C900.937,2804.62 919.258,2822.94 919.258,2845.54Z" style="fill:rgb(240,86,102);fill-rule:nonzero;"/>
        <path d="M3345.33,1219.35C3345.33,1230.4 3336.38,1239.35 3325.33,1239.35C3314.29,1239.35 3305.33,1230.4 3305.33,1219.35C3305.33,1208.31 3314.29,1199.35 3325.33,1199.35C3336.38,1199.35 3345.33,1208.31 3345.33,1219.35Z" style="fill:rgb(240,86,102);fill-rule:nonzero;"/>
    </g>
</svg>
