<?xml version="1.0" encoding="UTF-8" standalone="no"?>
<!DOCTYPE svg PUBLIC "-//W3C//DTD SVG 1.1//EN" "http://www.w3.org/Graphics/SVG/1.1/DTD/svg11.dtd">
<svg width="100%" height="100%" viewBox="0 0 480 340" version="1.1" xmlns="http://www.w3.org/2000/svg" xmlns:xlink="http://www.w3.org/1999/xlink" xml:space="preserve" xmlns:serif="http://www.serif.com/" style="fill-rule:evenodd;clip-rule:evenodd;stroke-linejoin:round;stroke-miterlimit:2;">
    <g transform="matrix(1,0,0,1,-1,-60)">
        <g>
            <rect x="0.433" y="0.032" width="480" height="480" style="fill:rgb(255,117,112);"/>
            <path d="M195.9,347.941L185.516,347.941L185.516,332.366L195.9,332.366L195.9,334.962L188.113,334.962L188.113,338.856L192.006,338.856L192.006,341.452L188.113,341.452L188.113,345.345L195.9,345.345L195.9,347.941Z" style="fill:rgb(231,231,231);fill-rule:nonzero;"/>
            <path d="M250.751,332.366L247.117,340.154L247.117,347.941L244.521,347.941L244.521,340.154L240.887,332.366L243.743,332.366L245.819,336.805L247.896,332.366L250.751,332.366Z" style="fill:rgb(231,231,231);fill-rule:nonzero;"/>
            <path d="M295.349,338.856L292.648,341.452L295.349,347.941L292.519,347.941L289.767,341.452L287.561,341.452L287.561,347.941L284.965,347.941L284.965,332.366L292.753,332.366L295.349,334.962L295.349,338.856ZM292.753,337.791L292.753,336.026L291.688,334.962L287.561,334.962L287.561,338.856L291.688,338.856L292.753,337.791Z" style="fill:rgb(231,231,231);fill-rule:nonzero;"/>
            <path d="M173.732,347.941L171.135,347.941L165.944,338.025L165.944,347.941L163.348,347.941L163.348,332.366L165.944,332.392L171.135,342.308L171.135,332.366L173.732,332.366L173.732,347.941Z" style="fill:white;fill-rule:nonzero;"/>
            <path d="M223.156,332.366L220.689,347.941L218.069,347.941L215.472,337.532L212.876,347.941L210.254,347.941L207.788,332.366L210.41,332.366L211.838,341.373L214.097,332.366L216.848,332.366L219.106,341.373L220.534,332.366L223.156,332.366Z" style="fill:white;fill-rule:nonzero;"/>
            <path d="M273.18,345.345L270.48,347.941L265.393,347.941L262.797,345.345L262.797,334.962L265.393,332.366L270.584,332.366L273.18,334.962L273.18,345.345ZM270.584,344.281L270.584,336.026L269.519,334.962L266.457,334.962L265.393,336.026L265.393,344.281L266.457,345.345L269.519,345.345L270.584,344.281Z" style="fill:white;fill-rule:nonzero;"/>
            <path d="M317.517,347.941L314.558,347.941L310.819,341.244L309.73,342.697L309.73,347.941L307.134,347.941L307.134,332.366L309.73,332.366L309.73,338.389L314.272,332.366L317.517,332.366L312.532,338.96L317.517,347.941Z" style="fill:white;fill-rule:nonzero;"/>
            <path d="M131.263,315.222L131.15,314.93L131.426,315.222L131.263,315.222ZM177.285,139.854C181.127,144.467 187.653,144.248 193.595,149.418L193.595,149.34L194.077,149.852C194.552,150.292 195.023,150.767 195.488,151.286L195.465,151.325L274.042,234.699L273.288,236.79L193.595,152.232L193.595,152.19C187.944,146.369 181.998,146.457 177.285,142.593L177.285,142.655L177.002,142.354C176.466,141.892 175.947,141.375 175.446,140.788L175.487,140.746L167.36,132.124L170.084,132.124L177.285,139.764L177.285,139.854ZM308.891,163.433C311.796,166.886 320.329,168.945 326.095,174.025L326.095,174.006L326.21,174.127C326.66,174.529 327.092,174.949 327.502,175.39L327.463,175.456L359.906,209.881L359.906,212.773L326.095,176.898L326.095,176.852C319.477,170.378 312.567,169.23 308.558,165.935L308.482,165.935L308.145,165.578C307.904,165.359 307.676,165.132 307.46,164.892L307.48,164.872L304.768,161.994L304.666,161.886L304.601,161.757C303.425,159.401 302.421,157.237 301.508,155.266C296.863,145.24 294.612,140.384 280.368,135.92L280.119,135.842L279.941,135.653L276.614,132.124L279.338,132.124L281.208,134.107C296.067,138.814 298.443,143.931 303.31,154.435C304.188,156.334 305.155,158.42 306.315,160.745L308.869,163.455L308.891,163.433ZM406.014,308.101L405.984,308.03L380.897,281.41L383.622,281.41L407.618,306.872C407.678,306.922 407.733,306.981 407.782,307.046L409.32,308.677C411.856,311.155 416.35,315.68 416.94,321.107C417.283,324.272 415.934,326.743 414.644,329.102C413.099,331.93 411.653,334.58 414.331,337.976C414.683,338.422 414.608,339.071 414.161,339.424C413.716,339.775 413.066,339.7 412.715,339.253C409.189,334.785 410.951,331.558 412.832,328.114C413.97,326.032 415.159,323.855 414.885,321.325C414.358,316.474 409.952,312.177 407.651,309.934C406.813,309.118 406.216,308.534 406.014,308.101ZM85.556,312.79L85.999,313.238L85.997,313.24C90.041,317.347 93.92,322.157 96.538,327.107L94.71,328.07C92.312,323.524 88.774,319.083 85.044,315.222L85,315.222L84.035,314.199C83.616,313.78 83.197,313.37 82.775,312.967L82.869,312.961L53.133,281.41L55.858,281.41L85.44,312.797L85.556,312.79ZM283.321,205.824C283.34,205.842 289.757,212.87 296.288,214.222L296.397,214.243L296.397,214.241C297.208,214.383 298.011,214.202 298.755,213.799C298.457,213.602 298.173,213.399 297.898,213.192C296.037,211.785 294.641,210.083 294.199,208.259C293.642,205.976 294.487,204.312 295.913,203.333C296.797,202.722 297.907,202.401 299.023,202.376C300.134,202.353 301.272,202.626 302.217,203.204C303.818,204.185 304.873,205.986 304.41,208.638L304.407,208.657L304.355,208.925L304.35,208.937C304.022,210.541 303.281,212.123 302.28,213.403C303.298,213.876 304.361,214.265 305.408,214.542C314.314,216.903 317.773,211.117 328.617,222.805L328.495,222.919L359.906,256.247L359.906,259.139L326.095,223.264L326.095,223.159C316.77,213.707 313.208,218.752 304.882,216.539C303.488,216.17 302.071,215.626 300.741,214.952C299.378,216.019 297.752,216.578 296.04,216.28L296.028,216.275L295.896,216.248L295.881,216.246C290.749,215.187 285.811,211.086 283.384,208.803L283.368,208.845L282.817,208.259C282.185,207.642 281.829,207.252 281.824,207.247L281.844,207.228L258.333,182.281L259.043,180.144L283.281,205.862L283.321,205.824ZM300.423,212.409C301.348,211.344 302.032,209.951 302.326,208.536L302.324,208.536L302.374,208.284C302.663,206.622 302.06,205.533 301.139,204.968C300.534,204.599 299.793,204.424 299.064,204.439C298.339,204.453 297.631,204.654 297.084,205.03C296.326,205.552 295.886,206.471 296.204,207.776C296.524,209.091 297.639,210.402 299.145,211.541C299.548,211.845 299.975,212.135 300.423,212.409ZM167.336,191.015C175.427,200.632 211.021,210.007 226.474,223.03L226.383,222.771L227.321,223.766C228.459,224.784 229.471,225.825 230.334,226.89L230.294,226.922L269.332,268.342L269.332,271.233L228.752,228.178L228.734,228.193C228.645,228.082 228.547,227.972 228.455,227.862L228.004,227.383L227.979,227.313C215.646,213.559 180.005,205.183 167.5,194.048L167.5,194.098L167.163,193.74C166.71,193.322 166.29,192.9 165.907,192.474L165.939,192.441L124.142,148.093L124.142,145.202L167.328,191.023L167.336,191.015ZM127.998,306.748L126.113,301.857L138.709,315.222L135.984,315.222L127.998,306.748ZM122.961,293.675L121.075,288.784L145.993,315.222L143.268,315.222L122.961,293.675ZM117.923,280.603L116.039,275.712L153.276,315.222L150.551,315.222L117.923,280.603ZM112.886,267.531L111.002,262.64L160.559,315.222L157.834,315.222L112.886,267.531ZM107.849,254.456L105.964,249.565L167.5,314.858L167.5,315.222L165.118,315.222L107.849,254.456ZM102.813,241.387L100.928,236.496L167.5,307.131L167.5,310.022L102.813,241.387ZM97.774,228.311L95.89,223.42L167.5,299.402L167.5,302.293L97.774,228.311ZM94.309,221.742L94.309,224.634L60.616,188.885L60.616,185.994L94.309,221.742ZM94.309,229.472L94.309,232.363L60.616,196.614L60.616,193.723L94.309,229.472ZM94.309,237.199L94.309,240.09L60.616,204.341L60.616,201.449L94.309,237.199ZM94.309,244.928L94.309,247.82L60.616,212.071L60.616,209.179L94.309,244.928ZM94.309,252.656L94.309,255.548L60.616,219.798L60.616,216.907L94.309,252.656ZM94.309,260.383L94.309,263.275L60.616,227.526L60.616,224.634L94.309,260.383ZM94.309,268.112L94.309,271.003L60.616,235.254L60.616,232.362L94.309,268.112ZM94.309,275.84L94.309,278.732L60.616,242.982L60.616,240.091L94.309,275.84ZM96.834,281.41L99.559,281.41L104.095,286.223L104.095,289.115L96.834,281.41ZM104.095,293.951L104.095,296.843L60.616,250.711L60.616,247.819L104.095,293.951ZM104.095,301.679L104.095,304.571L60.616,258.438L60.616,255.546L104.095,301.679ZM104.095,309.407L104.095,312.299L60.616,266.166L60.616,263.275L104.095,309.407ZM102.291,315.222L99.566,315.222L60.616,273.894L60.616,271.003L102.291,315.222ZM95.008,315.222L92.283,315.222L60.417,281.41L60.616,281.41L60.616,278.73L95.008,315.222ZM80.441,315.222L77.716,315.222L50.832,286.697L50.832,283.806L80.441,315.222ZM73.156,315.222L70.431,315.222L50.832,294.426L50.832,291.534L73.156,315.222ZM65.874,315.222L63.149,315.222L50.832,302.153L50.832,299.262L65.874,315.222ZM58.589,315.222L55.864,315.222L50.832,309.882L50.832,306.99L58.589,315.222ZM51.305,315.222L50.832,315.222L50.832,314.72L51.305,315.222ZM60.616,181.158L60.616,178.266L167.5,291.675L167.5,294.566L60.616,181.158ZM60.616,173.429L60.616,170.538L167.5,283.946L167.5,286.837L60.616,173.429ZM56.279,165.935L53.554,165.935L50.95,163.173L50.95,160.282L56.279,165.935ZM50.95,155.446L50.95,152.554L100.643,205.279C109.633,210.553 113.225,215.795 117.263,221.688C120.501,226.413 124.038,231.574 130.996,237.497L131.059,237.551L131.078,237.571L167.5,276.217L167.5,279.11L129.65,238.949C122.517,232.863 118.919,227.614 115.625,222.806C111.706,217.085 108.222,212.001 99.521,206.923L99.402,206.853L99.299,206.745L50.95,155.446ZM50.95,147.717L50.95,144.827L100.631,197.54C108.518,202.402 113.755,209.401 119.368,216.901C124.626,223.929 130.223,231.409 138.634,237.879L138.7,237.929L138.751,237.983L167.5,268.488L167.5,271.379L137.356,239.395C128.775,232.778 123.108,225.205 117.784,218.089C112.264,210.713 107.115,203.831 99.483,199.161L99.369,199.091L99.277,198.994L50.95,147.717ZM50.95,139.989L50.95,137.098L99.405,188.511C108.14,191.092 112.666,198.006 118.527,206.963C122.343,212.795 126.741,219.517 133.267,226.437L133.928,228.147L133.928,227.131C137.15,230.48 140.881,233.87 145.294,237.223L145.372,237.281L145.419,237.332L167.5,260.762L167.5,263.652L144.02,238.739C129.928,228.013 122.719,216.997 116.866,208.049C111.175,199.351 106.794,192.655 98.6,190.342L98.336,190.267L98.146,190.067L50.95,139.989ZM50.95,132.259L50.95,132.124L53.547,132.124L126.906,209.959L128.796,214.857L50.95,132.259ZM58.106,132.124L60.831,132.124L121.852,196.868L123.742,201.766L58.106,132.124ZM65.389,132.124L68.115,132.124L116.797,183.777L118.688,188.675L65.389,132.124ZM72.674,132.124L75.399,132.124L111.743,170.685L113.633,175.583L72.674,132.124ZM79.958,132.124L82.682,132.124L106.689,157.595L108.579,162.493L79.958,132.124ZM87.241,132.124L89.966,132.124L101.635,144.504L103.526,149.403L87.241,132.124ZM94.524,132.124L96.854,132.124L98.471,136.311L94.524,132.124ZM133.928,220.301L133.928,217.41L167.5,253.032L167.5,255.923L133.928,220.301ZM133.928,212.573L133.928,209.682L167.5,245.304L167.5,248.195L133.928,212.573ZM133.928,204.845L133.928,201.954L167.5,237.576L167.5,240.466L133.928,204.845ZM133.928,197.116L133.928,194.225L167.5,229.848L167.5,232.738L133.928,197.116ZM133.928,189.388L133.928,186.497L167.5,222.119L167.5,225.01L133.928,189.388ZM133.928,181.661L133.928,178.769L167.5,214.391L167.5,217.282L133.928,181.661ZM133.928,173.932L133.928,171.041L167.5,206.662L167.5,209.554L133.928,173.932ZM133.928,166.205L133.928,165.935L133.673,165.935L124.142,155.822L124.142,152.931L167.5,198.936L167.5,201.827L133.928,166.205ZM129.116,165.935L126.391,165.935L124.142,163.549L124.142,160.657L129.116,165.935ZM124.142,140.365L124.142,137.474L167.5,183.479L167.5,186.37L124.142,140.365ZM124.142,132.191L124.142,132.124L126.627,132.124L127.9,133.734L167.5,175.751L167.5,178.642L126.421,135.055L126.386,135.017L126.363,134.989C125.596,134.013 124.857,133.083 124.142,132.191ZM130.941,132.124L133.666,132.124L167.5,168.024L167.5,170.915L130.941,132.124ZM138.226,132.124L140.951,132.124L172.819,165.935L170.094,165.935L138.226,132.124ZM145.509,132.124L148.234,132.124L177.285,162.947L177.285,165.838L145.509,132.124ZM152.793,132.124L155.518,132.124L177.285,155.219L177.285,158.111L152.793,132.124ZM160.077,132.124L162.802,132.124L177.285,147.491L177.285,150.383L160.077,132.124ZM174.643,132.124L177.285,132.124L177.285,134.927L174.643,132.124ZM269.332,247.758L269.332,248.047L215.004,190.404L213.383,185.794L270.01,245.876L269.332,247.758ZM269.332,252.886L269.332,255.777L219.338,202.732L217.717,198.121L269.332,252.886ZM269.332,260.613L269.332,263.503L223.671,215.056L222.05,210.446L269.332,260.613ZM269.332,276.067L269.332,278.959L232.336,239.705L230.714,235.093L269.332,276.067ZM271.641,281.41L274.367,281.41L278.799,286.113L278.799,289.004L271.641,281.41ZM278.799,293.843L278.799,296.734L235.083,250.349L235.083,247.52L235.048,247.421L278.799,293.843ZM278.799,301.571L278.799,304.462L235.083,258.078L235.083,255.186L278.799,301.571ZM278.799,309.298L278.799,312.19L235.083,265.806L235.083,262.915L278.799,309.298ZM277.098,315.222L274.373,315.222L235.083,273.534L235.083,270.643L277.098,315.222ZM269.814,315.222L267.089,315.222L235.083,281.261L235.083,278.37L269.814,315.222ZM262.532,315.222L259.807,315.222L227.94,281.41L230.665,281.41L262.532,315.222ZM255.248,315.222L252.523,315.222L225.537,286.589L225.537,283.697L255.248,315.222ZM247.964,315.222L245.239,315.222L225.537,294.317L225.537,291.425L247.964,315.222ZM240.68,315.222L237.955,315.222L225.537,302.045L225.537,299.154L240.68,315.222ZM233.397,315.222L230.672,315.222L225.537,309.774L225.537,306.882L233.397,315.222ZM226.113,315.222L225.537,315.222L225.537,314.61L226.113,315.222ZM210.672,178.08L209.051,173.469L272.026,240.288L271.272,242.379L210.672,178.08ZM202.643,165.935L193.595,165.935L193.595,164.57C195.239,164.437 196.673,164.44 197.931,164.561L193.595,159.96L193.595,157.069L201.381,165.33C201.837,165.507 202.256,165.709 202.643,165.935ZM193.595,144.504L193.595,141.613L276.058,229.11L275.304,231.201L193.595,144.504ZM193.595,136.776L193.595,133.884L250.184,193.928L251.716,198.445L193.595,136.776ZM196.494,132.124L199.219,132.124L246.09,181.857L247.622,186.373L196.494,132.124ZM203.778,132.124L206.503,132.124L241.996,169.784L243.528,174.301L203.778,132.124ZM211.06,132.124L213.785,132.124L245.651,165.935L242.926,165.935L211.06,132.124ZM218.343,132.124L221.069,132.124L246.858,159.487L246.858,162.378L218.343,132.124ZM225.631,132.124L228.355,132.124L246.858,151.756L246.858,154.647L225.631,132.124ZM232.913,132.124L235.637,132.124L246.858,144.028L246.858,146.919L232.913,132.124ZM241.899,132.124L244.814,132.124C245.516,132.811 246.191,133.528 246.858,134.309L246.858,137.518C245.264,135.342 243.7,133.723 241.899,132.124ZM252.638,199.424L253.349,197.286L278.075,223.521L277.321,225.612L252.638,199.424ZM254.536,193.71L255.247,191.571L280.091,217.932L279.337,220.023L254.536,193.71ZM256.435,187.995L257.145,185.857L282.107,212.343L281.352,214.433L256.435,187.995ZM260.231,176.568L260.941,174.43L286.138,201.166L285.384,203.256L260.231,176.568ZM262.13,170.852L262.84,168.713L288.155,195.575L287.401,197.665L262.13,170.852ZM260.221,165.935L257.915,165.935L257.915,163.488L260.221,165.935ZM257.915,158.651L257.915,155.761L290.171,189.986L289.417,192.077L257.915,158.651ZM257.915,150.922L257.915,148.031L292.188,184.396L291.434,186.487L257.915,150.922ZM257.915,143.194L257.915,140.302L294.204,178.807L293.449,180.898L257.915,143.194ZM257.915,135.468L257.915,132.124L258.426,132.124L258.573,133.275L296.22,173.22L295.465,175.311L257.915,135.468ZM262.044,132.124L264.769,132.124L275.771,143.795C279.96,145.941 284.142,149.161 288.311,153.548C291.723,157.14 295.136,161.529 298.547,166.768L297.701,169.11C294.091,163.423 290.481,158.713 286.874,154.915C282.812,150.64 278.76,147.529 274.72,145.484L274.564,145.405L274.445,145.279L262.044,132.124ZM269.332,132.124L272.057,132.124L277.383,137.774C285.649,142.746 290.486,146.535 293.858,150.396C297.241,154.269 299.116,158.152 301.466,163.331L303.92,165.935L301.196,165.935L299.909,164.569L299.796,164.448L299.726,164.298C297.411,159.194 295.593,155.392 292.368,151.7C289.118,147.978 284.393,144.293 276.244,139.401L276.122,139.327L276.03,139.23L269.332,132.124ZM283.898,132.124L292.283,132.124C299.872,134.001 300.89,137.569 302.955,144.839C303.518,146.824 304.166,149.104 305.06,151.688L309.786,156.701L309.786,159.593L303.473,152.895L303.33,152.742L303.259,152.541C302.299,149.787 301.626,147.425 301.045,145.375C298.734,137.237 297.893,134.279 285.033,132.972L284.662,132.933L284.408,132.665L283.898,132.124ZM297.657,132.124L301.191,132.124L309.786,141.243L309.786,144.133L304.499,138.524C304.72,139.099 304.934,139.691 305.155,140.293L305.155,140.297C305.967,142.514 306.845,144.911 308.257,147.35L309.786,148.972L309.786,151.863L306.73,148.622L306.649,148.534L306.595,148.443C305.073,145.837 304.147,143.312 303.292,140.976L303.291,140.976C301.971,137.371 300.824,134.245 297.657,132.124ZM305.748,132.124L308.474,132.124L309.786,133.515L309.786,136.407L305.748,132.124ZM428.155,297.752L426.653,299.049L396.263,266.805L396.263,266.613L398.807,266.613L428.155,297.752ZM424.138,301.219L422.636,302.516L396.263,274.534L396.263,271.642L424.138,301.219ZM420.122,304.686L418.62,305.983L395.461,281.41L396.263,281.41L396.263,279.371L420.122,304.686ZM416.108,308.152L414.605,309.45L388.179,281.41L390.905,281.41L416.108,308.152ZM408.076,315.086L407.918,315.222L405.478,315.222L373.612,281.41L376.336,281.41L408.076,315.086ZM400.919,315.222L398.194,315.222L366.328,281.41L369.053,281.41L400.919,315.222ZM393.634,315.222L390.909,315.222L326.095,246.452L326.095,243.561L359.906,279.436L359.906,281.41L361.768,281.41L393.634,315.222ZM386.35,315.222L383.626,315.222L326.095,254.18L326.095,251.288L386.35,315.222ZM379.068,315.222L376.343,315.222L326.095,261.907L326.095,259.015L379.068,315.222ZM371.783,315.222L369.059,315.222L326.095,269.637L326.095,266.745L371.783,315.222ZM364.501,315.222L361.776,315.222L326.095,277.364L326.095,274.472L364.501,315.222ZM357.216,315.222L354.492,315.222L326.095,285.092L326.095,282.201L357.216,315.222ZM349.933,315.222L347.655,315.222L344.954,312.831L326.095,292.82L326.095,289.929L349.933,315.222ZM326.095,238.721L326.095,235.83L359.906,271.705L359.906,274.597L326.095,238.721ZM326.095,230.993L326.095,228.102L359.906,263.978L359.906,266.868L326.095,230.993ZM326.095,215.537L326.095,212.645L359.906,248.52L359.906,251.412L326.095,215.537ZM326.095,207.81L326.095,204.919L359.906,240.794L359.906,243.685L326.095,207.81ZM326.095,200.083L326.095,197.192L359.906,233.067L359.906,235.958L326.095,200.083ZM326.095,192.354L326.095,189.463L359.906,225.338L359.906,228.23L326.095,192.354ZM326.095,184.624L326.095,181.732L359.906,217.608L359.906,220.499L326.095,184.624ZM326.095,169.168L326.095,166.277L359.906,202.152L359.906,205.044L326.095,169.168ZM326.095,161.439L326.095,158.548L359.906,194.424L359.906,197.314L326.095,161.439ZM326.095,153.712L326.095,151.376L326.38,151.122L332.327,157.432L340.634,164.818L340.689,164.866L340.753,164.95L347.345,173.369L359.906,186.697L359.906,189.588L345.882,174.708L345.863,174.687L345.824,174.638L339.259,166.252L330.984,158.896L330.963,158.875L330.923,158.834L326.095,153.712ZM328.858,148.909L330.338,147.588L332.993,150.405L334.555,151.623C343.873,158.887 345.3,160 352.299,170.898L359.906,178.97L359.906,181.86L350.792,172.19L350.729,172.123L350.68,172.046C343.814,161.353 342.44,160.281 333.336,153.183L331.706,151.912L331.64,151.86L331.594,151.812L328.858,148.909ZM332.809,145.38L334.289,144.059L334.295,144.064C335.91,145.026 337.459,145.926 338.872,146.747C349.764,153.075 352.736,154.804 356.667,167.805L359.906,171.242L359.906,174.133L355.062,168.993L354.9,168.82L354.832,168.597C351.093,156.139 348.296,154.514 337.877,148.461C336.479,147.65 334.942,146.756 333.157,145.693L333.037,145.621L332.944,145.523L332.809,145.38ZM336.764,141.849L338.244,140.527L338.967,141.294C341.448,142.485 343.806,143.571 345.856,144.515C358.539,150.355 360.029,151.044 359.348,162.919L362.191,165.935L359.906,165.935L359.906,166.402L357.612,163.967L357.319,163.655L357.344,163.229C358.001,152.292 356.747,151.713 345.025,146.317C343.042,145.403 340.769,144.357 337.94,142.997L337.768,142.914L337.645,142.784L336.764,141.849ZM340.782,138.261L342.371,136.841L344.346,137.824C354.246,142.732 361.641,146.402 362.6,158.643L369.473,165.935L366.748,165.935L360.916,159.747L360.672,159.488L360.648,159.134C359.883,147.741 352.877,144.265 343.469,139.601C342.571,139.156 341.643,138.695 340.782,138.261ZM344.674,134.786L346.153,133.465L346.445,133.774C348.564,135.215 350.327,136.344 351.813,137.296C358.554,141.613 359.803,142.413 364.549,152.98L376.759,165.935L374.033,165.935L362.993,154.221L362.882,154.102L362.811,153.945C358.251,143.773 357.1,143.037 350.741,138.964C349.233,137.999 347.441,136.852 345.238,135.35L345.15,135.289L345.075,135.211L344.674,134.786ZM349.45,132.124L352.175,132.124L384.042,165.935L381.317,165.935L349.45,132.124ZM356.585,132.124L359.374,132.124C360.687,133.461 361.982,134.801 363.248,136.144L391.325,165.935L388.6,165.935L361.804,137.504C360.109,135.705 358.363,133.911 356.585,132.124ZM364.018,132.124L366.743,132.124L412.555,180.732L409.83,180.732L396.263,166.338L396.263,165.935L395.884,165.935L364.018,132.124ZM371.35,132.124L374.075,132.124L419.887,180.732L417.162,180.732L371.35,132.124ZM378.584,132.124L381.308,132.124L427.12,180.732L424.395,180.732L378.584,132.124ZM385.866,132.124L388.591,132.124L430.035,176.096L430.035,178.988L385.866,132.124ZM393.15,132.124L395.875,132.124L430.035,168.368L430.035,171.26L393.15,132.124ZM400.436,132.124L403.161,132.124L430.035,160.638L430.035,163.53L400.436,132.124ZM407.719,132.124L407.918,132.124L422.401,144.809L430.035,152.909L430.035,155.8L407.719,132.124ZM405.271,180.732L402.546,180.732L396.263,174.066L396.263,171.174L405.271,180.732ZM397.988,180.732L396.263,180.732L396.263,178.902L397.988,180.732ZM403.367,266.613L406.092,266.613L430.035,292.018L430.035,294.909L403.367,266.613ZM410.65,266.613L413.376,266.613L430.035,284.289L430.035,287.181L410.65,266.613ZM417.934,266.613L420.66,266.613L430.035,276.561L430.035,279.452L417.934,266.613ZM425.218,266.613L427.943,266.613L430.035,268.834L430.035,271.724L425.218,266.613Z" style="fill:white;fill-rule:nonzero;"/>
        </g>
    </g>
</svg>
