<svg width="80" height="80" viewBox="0 0 80 80" fill="none" xmlns="http://www.w3.org/2000/svg">
<path fill-rule="evenodd" clip-rule="evenodd" d="M40 80C62.0914 80 80 62.0914 80 40C80 17.9086 62.0914 0 40 0C17.9086 0 0 17.9086 0 40C0 62.0914 17.9086 80 40 80ZM52.7071 39.2929L46.3431 32.9289C45.9526 32.5384 45.3195 32.5384 44.9289 32.9289C44.5384 33.3195 44.5384 33.9526 44.9289 34.3431L49.5858 39H28V41H49.5858L44.9289 45.6569C44.5384 46.0474 44.5384 46.6805 44.9289 47.0711C45.3195 47.4616 45.9526 47.4616 46.3431 47.0711L52.7071 40.7071C53.0976 40.3166 53.0976 39.6834 52.7071 39.2929Z" fill="#FF5733"/>
</svg>
