<?xml version="1.0" encoding="UTF-8" standalone="no"?>
<!DOCTYPE svg PUBLIC "-//W3C//DTD SVG 1.1//EN" "http://www.w3.org/Graphics/SVG/1.1/DTD/svg11.dtd">
<svg width="100%" height="100%" viewBox="0 0 3016 2936" version="1.1" xmlns="http://www.w3.org/2000/svg" xmlns:xlink="http://www.w3.org/1999/xlink" xml:space="preserve" xmlns:serif="http://www.serif.com/" style="fill-rule:evenodd;clip-rule:evenodd;stroke-linejoin:round;stroke-miterlimit:2;">
    <g transform="matrix(1,0,0,1,-1067,-1323)">
        <g transform="matrix(4.16667,0,0,4.16667,0,0)">
            <path d="M817.946,894.827L817.946,436.536C691.393,436.536 588.801,539.127 588.801,665.682C588.801,792.234 691.393,894.827 817.946,894.827Z" style="fill:rgb(240,82,71);fill-rule:nonzero;"/>
            <path d="M885.126,414.13L894.379,404.876L930.069,440.567L920.816,449.82L885.126,414.13Z" style="fill:rgb(225,225,225);fill-rule:nonzero;"/>
            <path d="M885.126,440.567L894.379,449.82L930.069,414.13L920.816,404.876L885.126,440.567Z" style="fill:rgb(225,225,225);fill-rule:nonzero;"/>
            <path d="M295.126,983.13L304.379,973.877L340.07,1009.57L330.816,1018.82L295.126,983.13Z" style="fill:rgb(225,225,225);fill-rule:nonzero;"/>
            <path d="M295.126,1009.57L304.379,1018.82L340.07,983.13L330.816,973.877L295.126,1009.57Z" style="fill:rgb(225,225,225);fill-rule:nonzero;"/>
            <path d="M529.137,726.879L529.137,814.75L617.008,814.75L529.137,726.879Z" style="fill:rgb(225,225,225);fill-rule:nonzero;"/>
            <path d="M383.505,577.139L626.282,577.139L626.282,334.361L383.505,577.139Z" style="fill:rgb(41,51,128);fill-rule:nonzero;"/>
            <path d="M946.598,783.681L946.598,547.682C881.429,547.682 828.599,600.512 828.599,665.682C828.599,730.851 881.429,783.681 946.598,783.681Z" style="fill:rgb(252,208,193);fill-rule:nonzero;"/>
            <path d="M908.013,665.677C908.013,667.478 906.564,668.927 904.762,668.927C902.97,668.927 901.512,667.478 901.512,665.677C901.512,663.884 902.97,662.436 904.762,662.436C906.564,662.436 908.013,663.884 908.013,665.677ZM874.582,665.677C874.582,667.478 873.134,668.927 871.332,668.927C869.54,668.927 868.082,667.478 868.082,665.677C868.082,663.884 869.54,662.436 871.332,662.436C873.134,662.436 874.582,663.884 874.582,665.677ZM841.151,665.677C841.151,667.478 839.703,668.927 837.901,668.927C836.109,668.927 834.651,667.478 834.651,665.677C834.651,663.884 836.109,662.436 837.901,662.436C839.703,662.436 841.151,663.884 841.151,665.677ZM807.731,665.677C807.731,667.478 806.272,668.927 804.471,668.927C802.679,668.927 801.221,667.478 801.221,665.677C801.221,663.884 802.679,662.436 804.471,662.436C806.272,662.436 807.731,663.884 807.731,665.677ZM774.291,665.677C774.291,667.478 772.843,668.927 771.041,668.927C769.249,668.927 767.79,667.478 767.79,665.677C767.79,663.884 769.249,662.436 771.041,662.436C772.843,662.436 774.291,663.884 774.291,665.677ZM740.86,665.677C740.86,667.478 739.412,668.927 737.61,668.927C735.818,668.927 734.359,667.478 734.359,665.677C734.359,663.884 735.818,662.436 737.61,662.436C739.412,662.436 740.86,663.884 740.86,665.677ZM707.43,665.677C707.43,667.478 705.981,668.927 704.18,668.927C702.388,668.927 700.939,667.478 700.939,665.677C700.939,663.884 702.388,662.436 704.18,662.436C705.981,662.436 707.43,663.884 707.43,665.677ZM674,665.677C674,667.478 672.551,668.927 670.749,668.927C668.957,668.927 667.499,667.478 667.499,665.677C667.499,663.884 668.957,662.436 670.749,662.436C672.551,662.436 674,663.884 674,665.677ZM640.568,665.677C640.568,667.478 639.121,668.927 637.318,668.927C635.526,668.927 634.068,667.478 634.068,665.677C634.068,663.884 635.526,662.436 637.318,662.436C639.121,662.436 640.568,663.884 640.568,665.677ZM607.139,665.677C607.139,667.478 605.69,668.927 603.889,668.927C602.097,668.927 600.638,667.478 600.638,665.677C600.638,663.884 602.097,662.436 603.889,662.436C605.69,662.436 607.139,663.884 607.139,665.677ZM573.708,665.677C573.708,667.478 572.26,668.927 570.468,668.927C568.666,668.927 567.208,667.478 567.208,665.677C567.208,663.884 568.666,662.436 570.468,662.436C572.26,662.436 573.708,663.884 573.708,665.677Z" style="fill:rgb(3,4,4);fill-rule:nonzero;"/>
            <path d="M533.934,982.29L531.074,979.431L576.062,934.442L578.921,937.303L533.934,982.29Z" style="fill:rgb(225,225,225);fill-rule:nonzero;"/>
            <path d="M578.921,982.29L576.062,979.431L621.049,934.442L623.909,937.303L578.921,982.29Z" style="fill:rgb(225,225,225);fill-rule:nonzero;"/>
            <path d="M623.909,982.29L621.049,979.431L666.036,934.442L668.896,937.303L623.909,982.29Z" style="fill:rgb(225,225,225);fill-rule:nonzero;"/>
            <path d="M668.896,982.29L666.036,979.431L711.024,934.442L713.884,937.303L668.896,982.29Z" style="fill:rgb(225,225,225);fill-rule:nonzero;"/>
            <path d="M713.884,982.29L711.024,979.431L756.012,934.442L758.872,937.303L713.884,982.29Z" style="fill:rgb(225,225,225);fill-rule:nonzero;"/>
            <path d="M335.023,926.294L333.052,928.266L302.049,897.263L304.02,895.292L335.023,926.294Z" style="fill:rgb(41,51,128);fill-rule:nonzero;"/>
            <path d="M335.023,895.292L333.052,897.263L302.049,866.26L304.02,864.289L335.023,895.292Z" style="fill:rgb(41,51,128);fill-rule:nonzero;"/>
            <path d="M335.023,864.289L333.052,866.26L302.049,835.257L304.02,833.286L335.023,864.289Z" style="fill:rgb(41,51,128);fill-rule:nonzero;"/>
            <path d="M335.023,833.286L333.052,835.257L302.049,804.254L304.02,802.283L335.023,833.286Z" style="fill:rgb(41,51,128);fill-rule:nonzero;"/>
            <path d="M335.023,802.283L333.052,804.254L302.049,773.251L304.02,771.28L335.023,802.283Z" style="fill:rgb(41,51,128);fill-rule:nonzero;"/>
            <path d="M766.566,800.136L746.976,834.06C751.215,821.426 757.929,809.922 766.566,800.136Z" style="fill:rgb(41,52,129);fill-rule:nonzero;"/>
            <path d="M782.59,785.514L742.391,855.145C742.652,852.623 743.007,850.131 743.465,847.675L776.651,790.21C778.565,788.557 780.545,786.998 782.59,785.514Z" style="fill:rgb(41,52,129);fill-rule:nonzero;"/>
            <path d="M794.477,778.07L741.905,869.123C741.858,867.956 741.84,866.789 741.84,865.612C741.84,864.94 741.85,864.268 741.858,863.596L789.668,780.788C791.246,779.836 792.843,778.93 794.477,778.07Z" style="fill:rgb(41,52,129);fill-rule:nonzero;"/>
            <path d="M804.805,773.318L742.941,880.459C742.718,878.938 742.521,877.406 742.363,875.865L800.537,775.102C801.938,774.476 803.366,773.878 804.805,773.318Z" style="fill:rgb(41,52,129);fill-rule:nonzero;"/>
            <path d="M814.207,770.171L744.912,890.198C744.576,888.873 744.268,887.537 743.987,886.192L810.295,771.357C811.584,770.928 812.891,770.535 814.207,770.171Z" style="fill:rgb(41,52,129);fill-rule:nonzero;"/>
            <path d="M822.957,768.154L747.536,898.789C747.116,897.613 746.715,896.437 746.351,895.241L819.287,768.901C820.502,768.621 821.725,768.369 822.957,768.154Z" style="fill:rgb(41,52,129);fill-rule:nonzero;"/>
            <path d="M831.212,766.996L750.655,906.521C750.169,905.466 749.712,904.393 749.272,903.309L827.747,767.389C828.896,767.239 830.054,767.108 831.212,766.996Z" style="fill:rgb(41,52,129);fill-rule:nonzero;"/>
            <path d="M839.064,766.539L754.193,913.543C753.652,912.581 753.139,911.619 752.635,910.64L835.769,766.65C836.861,766.595 837.963,766.558 839.064,766.539Z" style="fill:rgb(41,52,129);fill-rule:nonzero;"/>
            <path d="M846.563,766.688L758.069,919.968C757.49,919.09 756.921,918.203 756.369,917.297L843.407,766.548C844.462,766.576 845.518,766.623 846.563,766.688Z" style="fill:rgb(41,52,129);fill-rule:nonzero;"/>
            <path d="M853.771,767.342L762.252,925.859C761.627,925.057 761.02,924.235 760.432,923.403L850.728,767.006C851.745,767.099 852.764,767.211 853.771,767.342Z" style="fill:rgb(41,52,129);fill-rule:nonzero;"/>
            <path d="M860.691,768.5L766.716,931.267C766.053,930.528 765.408,929.772 764.783,929.016L857.777,767.948C858.758,768.117 859.729,768.294 860.691,768.5Z" style="fill:rgb(41,52,129);fill-rule:nonzero;"/>
            <path d="M867.358,770.087L771.432,936.243C770.74,935.562 770.059,934.88 769.387,934.18L864.548,769.358C865.49,769.583 866.425,769.825 867.358,770.087Z" style="fill:rgb(41,52,129);fill-rule:nonzero;"/>
            <path d="M873.782,772.104L776.39,940.8C775.661,940.184 774.942,939.549 774.242,938.904L871.065,771.188C871.98,771.479 872.886,771.777 873.782,772.104Z" style="fill:rgb(41,52,129);fill-rule:nonzero;"/>
            <path d="M879.974,774.513L781.563,944.955C780.807,944.396 780.069,943.816 779.331,943.237L877.368,773.43C878.246,773.775 879.114,774.14 879.974,774.513Z" style="fill:rgb(41,52,129);fill-rule:nonzero;"/>
            <path d="M885.95,777.314L786.979,948.737C786.194,948.232 785.41,947.71 784.645,947.168L883.429,776.072C884.278,776.474 885.119,776.885 885.95,777.314Z" style="fill:rgb(41,52,129);fill-rule:nonzero;"/>
            <path d="M891.692,780.499L792.601,952.127C791.778,951.679 790.976,951.212 790.172,950.727L889.265,779.089C890.086,779.546 890.89,780.013 891.692,780.499Z" style="fill:rgb(41,52,129);fill-rule:nonzero;"/>
            <path d="M897.221,784.057L798.445,955.152C797.596,954.751 796.746,954.34 795.915,953.91L894.886,782.487C895.671,782.992 896.455,783.515 897.221,784.057Z" style="fill:rgb(41,52,129);fill-rule:nonzero;"/>
            <path d="M902.543,787.997L804.506,957.795C803.628,957.449 802.75,957.085 801.892,956.712L900.302,786.26C901.058,786.83 901.806,787.408 902.543,787.997Z" style="fill:rgb(41,52,129);fill-rule:nonzero;"/>
            <path d="M907.623,792.32L810.8,960.036C809.894,959.746 808.988,959.447 808.092,959.121L905.484,790.435C906.203,791.041 906.913,791.676 907.623,792.32Z" style="fill:rgb(41,52,129);fill-rule:nonzero;"/>
            <path d="M912.479,797.055L817.317,961.866C816.374,961.642 815.44,961.399 814.507,961.128L910.434,794.981C911.134,795.663 911.815,796.354 912.479,797.055Z" style="fill:rgb(41,52,129);fill-rule:nonzero;"/>
            <path d="M917.082,802.209L824.097,963.276C823.116,963.117 822.145,962.931 821.183,962.734L915.158,799.959C915.812,800.696 916.456,801.452 917.082,802.209Z" style="fill:rgb(41,52,129);fill-rule:nonzero;"/>
            <path d="M921.434,807.821L831.137,964.219C830.119,964.126 829.102,964.014 828.093,963.883L919.612,805.365C920.238,806.168 920.845,806.99 921.434,807.821Z" style="fill:rgb(41,52,129);fill-rule:nonzero;"/>
            <path d="M925.495,813.928L838.458,964.677C837.402,964.648 836.348,964.603 835.302,964.536L923.796,811.257C924.384,812.135 924.953,813.022 925.495,813.928Z" style="fill:rgb(41,52,129);fill-rule:nonzero;"/>
            <path d="M929.23,820.586L846.105,964.574C845.013,964.63 843.911,964.667 842.81,964.687L927.681,817.682C928.222,818.644 928.735,819.605 929.23,820.586Z" style="fill:rgb(41,52,129);fill-rule:nonzero;"/>
            <path d="M932.602,827.906L854.117,963.836C852.969,963.985 851.82,964.116 850.653,964.229L931.21,824.703C931.695,825.759 932.162,826.823 932.602,827.906Z" style="fill:rgb(41,52,129);fill-rule:nonzero;"/>
            <path d="M935.524,835.975L862.577,962.323C861.363,962.604 860.141,962.855 858.907,963.07L934.338,832.436C934.758,833.603 935.15,834.789 935.524,835.975Z" style="fill:rgb(41,52,129);fill-rule:nonzero;"/>
            <path d="M937.887,845.022L871.579,959.868C870.29,960.297 868.983,960.689 867.666,961.054L936.962,841.026C937.298,842.352 937.606,843.678 937.887,845.022Z" style="fill:rgb(41,52,129);fill-rule:nonzero;"/>
            <path d="M939.502,855.351L881.327,956.123C879.918,956.758 878.498,957.347 877.061,957.916L938.933,850.756C939.156,852.278 939.353,853.81 939.502,855.351Z" style="fill:rgb(41,52,129);fill-rule:nonzero;"/>
            <path d="M940.034,865.612C940.034,866.285 940.024,866.957 940.016,867.62L892.196,950.437C890.628,951.389 889.021,952.295 887.388,953.154L939.969,862.092C940.016,863.259 940.034,864.436 940.034,865.612Z" style="fill:rgb(41,52,129);fill-rule:nonzero;"/>
            <path d="M939.483,876.062C939.222,878.582 938.866,881.066 938.409,883.522L905.213,941.024C903.299,942.668 901.311,944.236 899.266,945.721L939.483,876.062Z" style="fill:rgb(41,52,129);fill-rule:nonzero;"/>
            <path d="M934.907,897.137C930.668,909.789 923.936,921.313 915.298,931.107L934.907,897.137Z" style="fill:rgb(41,52,129);fill-rule:nonzero;"/>
            <path d="M760.281,497.548L741.68,481.458L743.255,479.637L760.281,494.364L778.097,478.956L795.912,494.364L813.728,478.956L831.545,494.365L848.575,479.637L850.15,481.458L831.545,497.547L813.728,482.14L795.912,497.548L778.097,482.14L760.281,497.548Z" style="fill:rgb(3,4,4);fill-rule:nonzero;"/>
            <path d="M760.281,514.642L741.68,498.552L743.255,496.731L760.281,511.458L778.097,496.05L795.912,511.458L813.728,496.05L831.545,511.458L848.575,496.731L850.15,498.552L831.545,514.641L813.728,499.233L795.912,514.642L778.097,499.233L760.281,514.642Z" style="fill:rgb(3,4,4);fill-rule:nonzero;"/>
            <path d="M614.18,859.665L595.578,843.575L597.152,841.755L614.18,856.481L631.994,841.073L649.811,856.481L667.626,841.073L685.443,856.482L702.474,841.755L704.048,843.575L685.443,859.665L667.626,844.257L649.811,859.665L631.994,844.257L614.18,859.665Z" style="fill:rgb(3,4,4);fill-rule:nonzero;"/>
            <path d="M614.18,876.759L595.578,860.669L597.152,858.849L614.18,873.575L631.994,858.167L649.811,873.575L667.626,858.167L685.443,873.576L702.474,858.849L704.048,860.669L685.443,876.759L667.626,861.351L649.811,876.759L631.994,861.351L614.18,876.759Z" style="fill:rgb(3,4,4);fill-rule:nonzero;"/>
            <path d="M469.096,605.607C471.087,605.607 472.688,607.209 472.688,609.2C472.688,611.181 471.087,612.793 469.096,612.793C467.115,612.793 465.504,611.181 465.504,609.2C465.504,607.209 467.115,605.607 469.096,605.607ZM469.096,642.558C471.087,642.558 472.688,644.158 472.688,646.15C472.688,648.131 471.087,649.742 469.096,649.742C467.115,649.742 465.504,648.131 465.504,646.15C465.504,644.158 467.115,642.558 469.096,642.558ZM469.096,679.507C471.087,679.507 472.688,681.108 472.688,683.1C472.688,685.08 471.087,686.692 469.096,686.692C467.115,686.692 465.504,685.08 465.504,683.1C465.504,681.108 467.115,679.507 469.096,679.507ZM469.096,716.446C471.087,716.446 472.688,718.058 472.688,720.05C472.688,722.03 471.087,723.642 469.096,723.642C467.115,723.642 465.504,722.03 465.504,720.05C465.504,718.058 467.115,716.446 469.096,716.446ZM469.096,753.407C471.087,753.407 472.688,755.008 472.688,756.999C472.688,758.979 471.087,760.592 469.096,760.592C467.115,760.592 465.504,758.979 465.504,756.999C465.504,755.008 467.115,753.407 469.096,753.407ZM469.096,790.356C471.087,790.356 472.688,791.957 472.688,793.949C472.688,795.93 471.087,797.542 469.096,797.542C467.115,797.542 465.504,795.93 465.504,793.949C465.504,791.957 467.115,790.356 469.096,790.356ZM469.096,827.307C471.087,827.307 472.688,828.907 472.688,830.898C472.688,832.879 471.087,834.48 469.096,834.48C467.115,834.48 465.504,832.879 465.504,830.898C465.504,828.907 467.115,827.307 469.096,827.307ZM469.096,864.257C471.087,864.257 472.688,865.857 472.688,867.849C472.688,869.83 471.087,871.441 469.096,871.441C467.115,871.441 465.504,869.83 465.504,867.849C465.504,865.857 467.115,864.257 469.096,864.257ZM469.096,901.206C471.087,901.206 472.688,902.807 472.688,904.798C472.688,906.779 471.087,908.391 469.096,908.391C467.115,908.391 465.504,906.779 465.504,904.798C465.504,902.807 467.115,901.206 469.096,901.206ZM469.096,938.156C471.087,938.156 472.688,939.757 472.688,941.748C472.688,943.729 471.087,945.341 469.096,945.341C467.115,945.341 465.504,943.729 465.504,941.748C465.504,939.757 467.115,938.156 469.096,938.156ZM469.096,975.105C471.087,975.105 472.688,976.706 472.688,978.688C472.688,980.679 471.087,982.29 469.096,982.29C467.115,982.29 465.504,980.679 465.504,978.688C465.504,976.706 467.115,975.105 469.096,975.105Z" style="fill:rgb(3,4,4);fill-rule:nonzero;"/>
            <path d="M426.398,605.607C428.379,605.607 429.991,607.209 429.991,609.2C429.991,611.181 428.379,612.793 426.398,612.793C424.417,612.793 422.806,611.181 422.806,609.2C422.806,607.209 424.417,605.607 426.398,605.607ZM426.398,642.558C428.379,642.558 429.991,644.158 429.991,646.15C429.991,648.131 428.379,649.742 426.398,649.742C424.417,649.742 422.806,648.131 422.806,646.15C422.806,644.158 424.417,642.558 426.398,642.558ZM426.398,679.507C428.379,679.507 429.991,681.108 429.991,683.1C429.991,685.08 428.379,686.692 426.398,686.692C424.417,686.692 422.806,685.08 422.806,683.1C422.806,681.108 424.417,679.507 426.398,679.507ZM426.398,716.446C428.379,716.446 429.991,718.058 429.991,720.05C429.991,722.03 428.379,723.642 426.398,723.642C424.417,723.642 422.806,722.03 422.806,720.05C422.806,718.058 424.417,716.446 426.398,716.446ZM426.398,753.407C428.379,753.407 429.991,755.008 429.991,756.999C429.991,758.979 428.379,760.592 426.398,760.592C424.417,760.592 422.806,758.979 422.806,756.999C422.806,755.008 424.417,753.407 426.398,753.407ZM426.398,790.356C428.379,790.356 429.991,791.957 429.991,793.949C429.991,795.93 428.379,797.542 426.398,797.542C424.417,797.542 422.806,795.93 422.806,793.949C422.806,791.957 424.417,790.356 426.398,790.356ZM426.398,827.307C428.379,827.307 429.991,828.907 429.991,830.898C429.991,832.879 428.379,834.48 426.398,834.48C424.417,834.48 422.806,832.879 422.806,830.898C422.806,828.907 424.417,827.307 426.398,827.307ZM426.398,864.257C428.379,864.257 429.991,865.857 429.991,867.849C429.991,869.83 428.379,871.441 426.398,871.441C424.417,871.441 422.806,869.83 422.806,867.849C422.806,865.857 424.417,864.257 426.398,864.257ZM426.398,901.206C428.379,901.206 429.991,902.807 429.991,904.798C429.991,906.779 428.379,908.391 426.398,908.391C424.417,908.391 422.806,906.779 422.806,904.798C422.806,902.807 424.417,901.206 426.398,901.206ZM426.398,938.156C428.379,938.156 429.991,939.757 429.991,941.748C429.991,943.729 428.379,945.341 426.398,945.341C424.417,945.341 422.806,943.729 422.806,941.748C422.806,939.757 424.417,938.156 426.398,938.156ZM426.398,975.105C428.379,975.105 429.991,976.706 429.991,978.688C429.991,980.679 428.379,982.29 426.398,982.29C424.417,982.29 422.806,980.679 422.806,978.688C422.806,976.706 424.417,975.105 426.398,975.105Z" style="fill:rgb(3,4,4);fill-rule:nonzero;"/>
            <path d="M383.691,605.607C385.682,605.607 387.283,607.209 387.283,609.2C387.283,611.181 385.682,612.793 383.691,612.793C381.71,612.793 380.108,611.181 380.108,609.2C380.108,607.209 381.71,605.607 383.691,605.607ZM383.691,642.558C385.682,642.558 387.283,644.158 387.283,646.15C387.283,648.131 385.682,649.742 383.691,649.742C381.71,649.742 380.108,648.131 380.108,646.15C380.108,644.158 381.71,642.558 383.691,642.558ZM383.691,679.507C385.682,679.507 387.283,681.108 387.283,683.1C387.283,685.08 385.682,686.692 383.691,686.692C381.71,686.692 380.108,685.08 380.108,683.1C380.108,681.108 381.71,679.507 383.691,679.507ZM383.691,716.446C385.682,716.446 387.283,718.058 387.283,720.05C387.283,722.03 385.682,723.642 383.691,723.642C381.71,723.642 380.108,722.03 380.108,720.05C380.108,718.058 381.71,716.446 383.691,716.446ZM383.691,753.407C385.682,753.407 387.283,755.008 387.283,756.999C387.283,758.979 385.682,760.592 383.691,760.592C381.71,760.592 380.108,758.979 380.108,756.999C380.108,755.008 381.71,753.407 383.691,753.407ZM383.691,790.356C385.682,790.356 387.283,791.957 387.283,793.949C387.283,795.93 385.682,797.542 383.691,797.542C381.71,797.542 380.108,795.93 380.108,793.949C380.108,791.957 381.71,790.356 383.691,790.356ZM383.691,827.307C385.682,827.307 387.283,828.907 387.283,830.898C387.283,832.879 385.682,834.48 383.691,834.48C381.71,834.48 380.108,832.879 380.108,830.898C380.108,828.907 381.71,827.307 383.691,827.307ZM383.691,864.257C385.682,864.257 387.283,865.857 387.283,867.849C387.283,869.83 385.682,871.441 383.691,871.441C381.71,871.441 380.108,869.83 380.108,867.849C380.108,865.857 381.71,864.257 383.691,864.257ZM383.691,901.206C385.682,901.206 387.283,902.807 387.283,904.798C387.283,906.779 385.682,908.391 383.691,908.391C381.71,908.391 380.108,906.779 380.108,904.798C380.108,902.807 381.71,901.206 383.691,901.206ZM383.691,938.156C385.682,938.156 387.283,939.757 387.283,941.748C387.283,943.729 385.682,945.341 383.691,945.341C381.71,945.341 380.108,943.729 380.108,941.748C380.108,939.757 381.71,938.156 383.691,938.156ZM383.691,975.105C385.682,975.105 387.283,976.706 387.283,978.688C387.283,980.679 385.682,982.29 383.691,982.29C381.71,982.29 380.108,980.679 380.108,978.688C380.108,976.706 381.71,975.105 383.691,975.105Z" style="fill:rgb(3,4,4);fill-rule:nonzero;"/>
            <path d="M626.282,383.227L577.417,383.227L626.282,334.361L626.282,383.227Z" style="fill:rgb(93,83,144);fill-rule:nonzero;"/>
            <path d="M373.708,496.799C373.708,527.491 348.827,552.372 318.135,552.372C287.442,552.372 262.562,527.491 262.562,496.799C262.562,466.106 287.442,441.226 318.135,441.226C348.827,441.226 373.708,466.106 373.708,496.799Z" style="fill:rgb(225,225,225);fill-rule:nonzero;"/>
            <path d="M336.161,626.328L300.109,626.328L318.135,584.699L336.161,626.328Z" style="fill:rgb(251,207,194);fill-rule:nonzero;"/>
            <path d="M336.161,673.809L300.109,673.809L318.135,632.18L336.161,673.809Z" style="fill:rgb(251,207,194);fill-rule:nonzero;"/>
            <path d="M336.161,721.289L300.109,721.289L318.135,679.659L336.161,721.289Z" style="fill:rgb(251,207,194);fill-rule:nonzero;"/>
        </g>
    </g>
</svg>
