<?xml version="1.0" encoding="UTF-8" standalone="no"?>
<!DOCTYPE svg PUBLIC "-//W3C//DTD SVG 1.1//EN" "http://www.w3.org/Graphics/SVG/1.1/DTD/svg11.dtd">
<svg width="100%" height="100%" viewBox="0 0 143 143" version="1.1" xmlns="http://www.w3.org/2000/svg" xmlns:xlink="http://www.w3.org/1999/xlink" xml:space="preserve" xmlns:serif="http://www.serif.com/" style="fill-rule:evenodd;clip-rule:evenodd;stroke-linejoin:round;stroke-miterlimit:2;">
    <g transform="matrix(1,0,0,1,-2273,-1716)">
        <g transform="matrix(4.16667,0,0,4.16667,0,0)">
            <path d="M557.413,424.205L567.503,424.205C572.127,426.11 575.874,432.498 575.874,438.51C575.874,440.559 575.416,442.004 574.474,442.927C572.725,444.643 569.259,444.574 565.248,444.494C564.347,444.477 563.415,444.458 562.458,444.458C561.219,444.458 560.031,444.501 558.882,444.542C555.181,444.674 551.983,444.789 550.37,443.232C549.476,442.37 549.042,440.981 549.042,438.986C549.042,432.188 553.351,425.892 557.413,424.205ZM547.915,438.986C547.915,441.304 548.462,442.957 549.587,444.043C551.042,445.446 553.301,445.74 555.99,445.739C556.921,445.739 557.904,445.704 558.922,445.668C560.062,445.627 561.239,445.585 562.458,445.585C563.404,445.585 564.33,445.604 565.226,445.621C569.491,445.705 573.175,445.778 575.263,443.731C576.432,442.585 577,440.877 577,438.51C577,432.861 573.491,425.37 567.821,423.118C567.755,423.092 567.684,423.078 567.613,423.078L557.302,423.078C557.231,423.078 557.16,423.092 557.094,423.118C551.604,425.3 547.915,433.084 547.915,438.986Z" style="fill:rgb(255,87,51);fill-rule:nonzero;"/>
            <path d="M568.706,414.655C568.578,416.721 567.786,419.469 566.561,420.93L558.236,420.93C557.011,419.47 556.219,416.721 556.092,414.655L568.706,414.655ZM557.983,422.056L566.814,422.056C566.971,422.056 567.119,421.991 567.226,421.878C568.869,420.122 569.851,416.541 569.851,414.092C569.851,413.781 569.598,413.529 569.287,413.529L555.51,413.529C555.199,413.529 554.947,413.781 554.947,414.092C554.947,416.541 555.929,420.123 557.572,421.878C557.678,421.991 557.827,422.056 557.983,422.056Z" style="fill:rgb(255,87,51);fill-rule:nonzero;"/>
            <path d="M559.606,437.253C559.935,437.387 560.367,437.539 560.833,437.634C562.01,437.877 563.867,437.773 564.155,436.494C564.494,434.992 563.064,434.583 562.296,434.363C561.377,434.101 559.601,433.29 559.462,432.104C559.284,430.598 560.021,429.723 561.78,429.35C562.041,429.295 562.227,429.064 562.227,428.799L562.227,427.636L562.826,427.636L562.826,428.586C562.826,428.88 563.052,429.125 563.345,429.147C563.873,429.189 564.669,429.309 565.173,429.473L564.988,430.293C564.361,430.125 563.355,429.907 562.554,429.963C561.828,430.013 561.28,430.423 561.125,431.032C560.963,431.67 561.267,432.363 561.883,432.756C562.562,433.189 563.435,433.537 564.071,433.791C564.354,433.903 564.621,434.01 564.746,434.075C564.934,434.176 565.864,434.749 565.723,436.26C565.592,437.652 564.408,438.496 563.36,438.583C563.067,438.607 562.842,438.854 562.843,439.147L562.85,440.369L562.254,440.369L562.254,439.287C562.254,438.986 562.019,438.739 561.72,438.724C561.287,438.701 560.131,438.567 559.297,438.212L559.606,437.253ZM558.317,438.973C559.172,439.502 560.421,439.717 561.127,439.801L561.127,440.933C561.127,441.244 561.379,441.496 561.69,441.496L563.416,441.496C563.565,441.496 563.709,441.437 563.815,441.33C563.921,441.224 563.98,441.079 563.979,440.93L563.973,439.621C565.325,439.294 566.678,438.14 566.844,436.365C567.053,434.142 565.572,433.238 565.273,433.08C565.094,432.985 564.827,432.879 564.488,432.744C563.893,432.507 563.079,432.183 562.489,431.806C562.264,431.662 562.182,431.448 562.217,431.311C562.261,431.138 562.496,431.096 562.632,431.087C563.645,431.016 565.213,431.531 565.229,431.537C565.379,431.587 565.545,431.57 565.684,431.493C565.822,431.414 565.922,431.281 565.957,431.126L566.373,429.271C566.425,429.04 566.327,428.802 566.127,428.674C565.588,428.329 564.587,428.156 563.953,428.078L563.953,427.072C563.953,426.762 563.701,426.509 563.389,426.509L561.664,426.509C561.353,426.509 561.1,426.762 561.1,427.072L561.1,428.357C559.09,428.929 558.114,430.293 558.343,432.236C558.594,434.373 561.422,435.286 561.987,435.447C563.161,435.782 563.117,435.978 563.057,436.246C562.991,436.536 562.011,436.727 561.06,436.531C560.255,436.365 559.54,435.984 559.533,435.98C559.386,435.901 559.211,435.892 559.055,435.954C558.9,436.017 558.78,436.145 558.729,436.304L558.078,438.321C557.999,438.567 558.098,438.837 558.317,438.973Z" style="fill:rgb(255,87,51);fill-rule:nonzero;"/>
        </g>
    </g>
</svg>
