<?xml version="1.0" encoding="UTF-8" standalone="no"?>
<!DOCTYPE svg PUBLIC "-//W3C//DTD SVG 1.1//EN" "http://www.w3.org/Graphics/SVG/1.1/DTD/svg11.dtd">
<svg width="100%" height="100%" viewBox="0 0 168 168" version="1.1" xmlns="http://www.w3.org/2000/svg" xmlns:xlink="http://www.w3.org/1999/xlink" xml:space="preserve" xmlns:serif="http://www.serif.com/" style="fill-rule:evenodd;clip-rule:evenodd;stroke-linejoin:round;stroke-miterlimit:2;">
    <g transform="matrix(1,0,0,1,-2266,-2506)">
        <g transform="matrix(4.16667,0,0,4.16667,0,0)">
            <path d="M566.713,637.644C566.56,636.659 566.275,635.47 565.748,634.303C565.938,633.994 566.123,633.743 566.273,633.563C568.368,634.922 570.604,634.288 571.865,633.548C572.982,634.845 573.267,636.687 573.338,637.643L566.713,637.644ZM552.561,639.274C552.791,635.795 554.384,633.613 555.113,632.786C558.502,635.148 561.959,633.509 563.203,632.761C565.125,634.827 565.497,637.947 565.566,639.272L552.561,639.274ZM574.664,638.316C574.669,638.157 574.765,634.395 572.396,632.224C572.163,632.012 571.81,631.997 571.559,632.187C571.454,632.266 568.961,634.112 566.606,632.194C566.36,631.994 566.006,631.999 565.767,632.207C565.733,632.237 565.429,632.51 565.048,633.017C564.684,632.456 564.25,631.923 563.728,631.446C563.496,631.232 563.143,631.218 562.892,631.409C562.735,631.528 559.004,634.302 555.458,631.413C555.211,631.213 554.857,631.218 554.618,631.426C554.483,631.544 551.31,634.364 551.23,639.918C551.228,640.092 551.295,640.261 551.418,640.385C551.541,640.509 551.708,640.579 551.882,640.579L566.232,640.576C566.583,640.576 566.872,640.297 566.884,639.946C566.885,639.89 566.895,639.52 566.857,638.948L574.013,638.947C574.364,638.947 574.653,638.668 574.664,638.316Z" style="fill:rgb(255,87,51);fill-rule:nonzero;"/>
            <path d="M570.125,613.188L570.125,610.653L573.174,610.653C573.435,610.653 573.647,610.865 573.647,611.125L573.647,616.86C573.647,617.121 573.435,617.333 573.174,617.333L570.321,617.333C570.185,617.333 570.055,617.391 569.962,617.49C569.87,617.591 569.823,617.725 569.833,617.861L569.847,618.029L569.388,617.502C569.295,617.395 569.161,617.333 569.019,617.333L564.273,617.333C564.012,617.333 563.8,617.121 563.8,616.86L563.8,615.333L567.979,615.333C569.163,615.333 570.125,614.371 570.125,613.188ZM567.908,615.259L562.822,615.259L562.822,616.86C562.822,617.661 563.473,618.312 564.273,618.312L568.796,618.312L570.082,619.79C570.176,619.899 570.312,619.958 570.451,619.958C570.514,619.958 570.578,619.946 570.639,619.92C570.834,619.839 570.955,619.642 570.938,619.431L570.85,618.312L573.174,618.312C573.974,618.312 574.625,617.661 574.625,616.86L574.625,611.125C574.625,610.325 573.974,609.675 573.174,609.675L570.008,609.675L570.008,613.159C570.008,614.316 569.065,615.259 567.908,615.259Z" style="fill:rgb(255,87,51);fill-rule:nonzero;"/>
            <path d="M551.375,604.78C551.375,604.243 551.813,603.806 552.349,603.806L567.908,603.806C568.445,603.806 568.881,604.243 568.881,604.78L568.881,613.159C568.881,613.695 568.445,614.132 567.908,614.132L560.685,614.132C560.521,614.132 560.366,614.203 560.259,614.326L559.092,615.668L559.165,614.739C559.177,614.583 559.124,614.428 559.017,614.313C558.91,614.198 558.76,614.132 558.603,614.132L552.349,614.132C551.813,614.132 551.375,613.695 551.375,613.159L551.375,604.78ZM550.249,613.159C550.249,614.316 551.191,615.259 552.349,615.259L557.994,615.259L557.835,617.283C557.816,617.525 557.955,617.753 558.179,617.847C558.25,617.876 558.324,617.891 558.397,617.891C558.556,617.891 558.712,617.822 558.822,617.697L560.941,615.259L567.908,615.259C569.065,615.259 570.008,614.316 570.008,613.159L570.008,609.675L570.008,604.78C570.008,603.622 569.065,602.679 567.908,602.679L552.349,602.679C551.191,602.679 550.249,603.622 550.249,604.78L550.249,613.159Z" style="fill:rgb(255,87,51);fill-rule:nonzero;"/>
            <path d="M562.475,628.175C561.562,629.089 560.348,629.593 559.059,629.593L559.058,629.593C556.392,629.593 554.223,627.425 554.222,624.76C554.222,623.471 554.725,622.256 555.64,621.342C556.554,620.427 557.768,619.923 559.058,619.923C561.722,619.923 563.892,622.091 563.893,624.757C563.894,626.046 563.39,627.26 562.475,628.175ZM566.748,625.446C567.35,624.844 568.149,624.512 568.998,624.512C570.752,624.512 572.181,625.939 572.181,627.694C572.182,628.542 571.85,629.341 571.248,629.944C570.646,630.546 569.848,630.878 569,630.878L568.998,630.878C567.244,630.878 565.815,629.451 565.815,627.697C565.815,626.848 566.146,626.048 566.748,625.446ZM568.998,632.182L569,632.182C570.196,632.182 571.323,631.715 572.17,630.866C573.019,630.017 573.486,628.891 573.486,627.694C573.484,625.22 571.471,623.208 568.998,623.208C567.801,623.208 566.674,623.675 565.826,624.524C565.569,624.78 565.353,625.065 565.167,625.367C565.188,625.165 565.198,624.961 565.198,624.756C565.196,621.372 562.441,618.618 559.058,618.618C557.419,618.618 555.877,619.258 554.717,620.42C553.557,621.581 552.917,623.122 552.917,624.761C552.919,628.145 555.673,630.897 559.058,630.897L559.059,630.897C560.697,630.897 562.238,630.258 563.398,629.097C563.856,628.639 564.229,628.12 564.518,627.561C564.516,627.606 564.51,627.651 564.51,627.697C564.512,630.17 566.525,632.182 568.998,632.182Z" style="fill:rgb(255,87,51);fill-rule:nonzero;"/>
        </g>
    </g>
</svg>
