<?xml version="1.0" encoding="UTF-8" standalone="no"?>
<!DOCTYPE svg PUBLIC "-//W3C//DTD SVG 1.1//EN" "http://www.w3.org/Graphics/SVG/1.1/DTD/svg11.dtd">
<svg width="100%" height="100%" viewBox="0 0 162 162" version="1.1" xmlns="http://www.w3.org/2000/svg" xmlns:xlink="http://www.w3.org/1999/xlink" xml:space="preserve" xmlns:serif="http://www.serif.com/" style="fill-rule:evenodd;clip-rule:evenodd;stroke-linejoin:round;stroke-miterlimit:2;">
    <g transform="matrix(1,0,0,1,-3876,-913)">
        <g transform="matrix(4.16667,0,0,4.16667,0,0)">
            <path d="M948.13,238.783C947.432,238.273 946.575,237.968 945.646,237.968C943.317,237.968 941.423,239.861 941.423,242.189C941.423,244.519 943.317,246.412 945.646,246.412C947.974,246.412 949.869,244.519 949.869,242.189C949.869,241.261 949.563,240.403 949.052,239.705L952.16,236.598C953.453,238.102 954.237,240.056 954.237,242.189C954.237,246.928 950.383,250.781 945.646,250.781C940.908,250.781 937.054,246.928 937.054,242.189C937.054,237.453 940.908,233.599 945.646,233.599C947.78,233.599 949.734,234.383 951.237,235.676L948.13,238.783ZM945.185,242.65C945.312,242.778 945.479,242.842 945.646,242.842C945.813,242.842 945.979,242.778 946.106,242.65L948.115,240.643C948.398,241.092 948.564,241.621 948.564,242.189C948.564,243.799 947.255,245.107 945.646,245.107C944.037,245.107 942.728,243.799 942.728,242.189C942.728,240.581 944.037,239.272 945.646,239.272C946.214,239.272 946.744,239.438 947.193,239.721L945.185,241.729C944.93,241.983 944.93,242.396 945.185,242.65ZM959.887,242.189C959.887,250.042 953.498,256.432 945.646,256.432C937.793,256.432 931.404,250.042 931.404,242.189C931.404,234.337 937.793,227.948 945.646,227.948C949.338,227.948 952.706,229.361 955.239,231.674L952.162,234.752C950.42,233.224 948.14,232.294 945.646,232.294C940.189,232.294 935.75,236.733 935.75,242.189C935.75,247.646 940.189,252.086 945.646,252.086C951.103,252.086 955.542,247.646 955.542,242.189C955.542,239.695 954.612,237.416 953.084,235.674L956.162,232.597C958.474,235.129 959.887,238.498 959.887,242.189ZM961.147,219.677C961.018,219.341 960.64,219.174 960.304,219.304C959.968,219.434 959.801,219.812 959.931,220.147L961.818,225.019C961.825,225.036 961.838,225.05 961.846,225.067L960.458,226.456L958.753,221.916C958.627,221.579 958.252,221.408 957.913,221.534C957.576,221.661 957.405,222.037 957.532,222.374L959.418,227.398C959.427,227.421 959.442,227.438 959.453,227.46L956.161,230.752C953.391,228.203 949.697,226.644 945.646,226.644C937.074,226.644 930.1,233.617 930.1,242.189C930.1,250.762 937.074,257.735 945.646,257.735C954.218,257.735 961.191,250.762 961.191,242.189C961.191,238.138 959.632,234.444 957.083,231.675L960.009,228.748C960.113,228.895 960.275,228.999 960.468,229.021L966.592,229.693C966.616,229.696 966.64,229.697 966.664,229.697C966.992,229.697 967.275,229.45 967.312,229.116C967.351,228.759 967.092,228.437 966.734,228.396L960.992,227.766L962.675,226.082C962.703,226.09 962.73,226.098 962.759,226.101L968.883,226.773C968.907,226.775 968.931,226.777 968.955,226.777C969.283,226.777 969.565,226.53 969.602,226.196C969.642,225.838 969.383,225.516 969.025,225.477L963.85,224.908L966.994,221.765C967.248,221.51 967.248,221.097 966.994,220.842C966.739,220.588 966.326,220.588 966.071,220.842L962.848,224.066L961.147,219.677Z" style="fill:rgb(255,87,51);fill-rule:nonzero;"/>
        </g>
    </g>
</svg>
