<?xml version="1.0" encoding="UTF-8" standalone="no"?>
<!DOCTYPE svg PUBLIC "-//W3C//DTD SVG 1.1//EN" "http://www.w3.org/Graphics/SVG/1.1/DTD/svg11.dtd">
<svg width="100%" height="100%" viewBox="0 0 157 157" version="1.1" xmlns="http://www.w3.org/2000/svg" xmlns:xlink="http://www.w3.org/1999/xlink" xml:space="preserve" xmlns:serif="http://www.serif.com/" style="fill-rule:evenodd;clip-rule:evenodd;stroke-linejoin:round;stroke-miterlimit:2;">
    <g transform="matrix(1,0,0,1,-3072,-647)">
        <g transform="matrix(4.16667,0,0,4.16667,0,0)">
            <path d="M756.622,165.212C760.654,165.212 763.935,168.493 763.935,172.525C763.935,173.535 763.872,174.42 763.561,175.711C762.984,178.059 761.522,181.4 761.021,182.513L752.223,182.513C751.721,181.4 750.26,178.061 749.683,175.714C749.371,174.42 749.309,173.535 749.309,172.525C749.309,168.493 752.589,165.212 756.622,165.212ZM761.395,189.823C761.229,189.984 760.988,190.085 760.729,190.072L753.004,189.97C752.532,189.964 752.15,189.648 752.154,189.266C752.157,188.973 752.392,188.713 752.738,188.621C753.035,188.542 753.236,188.266 753.222,187.959C753.208,187.653 752.98,187.398 752.678,187.347C752.28,187.281 751.982,186.985 751.986,186.658C751.989,186.38 752.208,186.126 752.533,186.025C752.805,185.941 752.991,185.69 752.992,185.405C752.993,185.121 752.81,184.868 752.539,184.781C752.206,184.674 751.983,184.411 751.986,184.125C751.987,184 752.031,183.899 752.083,183.818L761.229,183.818C761.348,183.939 761.422,184.09 761.42,184.253C761.418,184.531 761.199,184.785 760.875,184.885C760.603,184.969 760.417,185.22 760.415,185.504C760.414,185.789 760.598,186.042 760.869,186.129C761.202,186.236 761.424,186.5 761.42,186.786C761.418,187.079 761.184,187.338 760.838,187.43C760.542,187.509 760.34,187.784 760.355,188.091C760.369,188.397 760.595,188.652 760.898,188.704C761.295,188.77 761.592,189.066 761.589,189.393C761.587,189.593 761.482,189.737 761.395,189.823ZM748.004,172.525C748.004,173.63 748.073,174.601 748.415,176.022C749.025,178.501 750.51,181.892 751.03,183.044C750.808,183.359 750.686,183.728 750.682,184.112C750.677,184.593 750.858,185.045 751.172,185.4C750.867,185.743 750.687,186.179 750.682,186.645C750.676,187.19 750.906,187.691 751.291,188.058C751.015,188.391 750.854,188.806 750.85,189.253C750.839,190.352 751.798,191.259 752.987,191.275L760.712,191.376L760.743,191.376C761.333,191.376 761.901,191.151 762.306,190.755C762.68,190.391 762.888,189.911 762.894,189.406C762.899,188.861 762.669,188.36 762.284,187.993C762.561,187.66 762.721,187.245 762.725,186.798C762.73,186.317 762.549,185.865 762.235,185.511C762.541,185.167 762.721,184.731 762.725,184.266C762.73,183.782 762.547,183.335 762.24,182.985C762.782,181.78 764.228,178.46 764.828,176.02C765.17,174.601 765.239,173.63 765.239,172.525C765.239,167.774 761.373,163.908 756.622,163.908C751.87,163.908 748.004,167.774 748.004,172.525Z" style="fill:rgb(255,87,51);fill-rule:nonzero;"/>
            <path d="M750.953,162.993C750.934,163.007 750.913,163.015 750.889,163.016C750.856,163.021 750.822,163.002 750.8,162.975L746.912,158.036C746.889,158.007 746.887,157.977 746.889,157.957C746.891,157.94 746.899,157.908 746.93,157.884C746.953,157.866 746.977,157.861 746.996,157.861L747.009,157.861C747.025,157.864 747.057,157.872 747.082,157.902L750.971,162.84C750.994,162.87 750.996,162.9 750.994,162.92C750.992,162.937 750.983,162.968 750.953,162.993ZM747.594,157.499C747.468,157.339 747.288,157.238 747.086,157.214C746.886,157.189 746.686,157.246 746.526,157.372C746.366,157.498 746.265,157.678 746.242,157.88C746.217,158.082 746.274,158.281 746.399,158.44L750.289,163.378C750.433,163.561 750.655,163.668 750.886,163.668L750.913,163.668C751.075,163.662 751.228,163.605 751.356,163.505C751.516,163.379 751.617,163.199 751.641,162.997C751.665,162.795 751.609,162.596 751.483,162.437L747.594,157.499Z" style="fill:rgb(255,87,51);fill-rule:nonzero;"/>
            <path d="M762.016,162.791L765.223,157.965C765.245,157.933 765.275,157.923 765.292,157.919C765.308,157.917 765.34,157.914 765.373,157.935C765.405,157.958 765.416,157.988 765.419,158.005C765.423,158.025 765.424,158.055 765.403,158.086L762.195,162.911C762.167,162.953 762.125,162.958 762.108,162.959C762.087,162.959 762.065,162.954 762.046,162.941C762.013,162.919 762.003,162.888 762,162.872C761.997,162.856 761.994,162.824 762.016,162.791ZM761.684,163.484L761.685,163.484C761.811,163.568 761.955,163.611 762.104,163.611L762.131,163.611C762.376,163.603 762.604,163.476 762.739,163.272L765.946,158.447C766.059,158.278 766.099,158.075 766.059,157.875C766.019,157.677 765.903,157.505 765.734,157.393C765.565,157.28 765.362,157.24 765.163,157.28C764.963,157.321 764.792,157.436 764.68,157.605L761.473,162.43C761.36,162.599 761.32,162.802 761.36,163.001C761.4,163.2 761.516,163.372 761.684,163.484Z" style="fill:rgb(255,87,51);fill-rule:nonzero;"/>
            <path d="M756.387,161.592L756.657,155.184C756.659,155.144 756.68,155.119 756.692,155.108C756.707,155.094 756.733,155.08 756.77,155.08C756.807,155.082 756.832,155.1 756.845,155.115C756.857,155.127 756.875,155.154 756.874,155.193L756.604,161.601C756.602,161.658 756.556,161.704 756.496,161.706L756.491,161.706C756.454,161.704 756.429,161.686 756.416,161.67C756.404,161.658 756.386,161.632 756.387,161.592ZM756.464,162.357C756.475,162.357 756.485,162.358 756.495,162.358C756.504,162.358 756.514,162.357 756.521,162.357C756.916,162.344 757.238,162.025 757.255,161.629L757.526,155.22C757.534,155.017 757.463,154.823 757.326,154.674C757.188,154.524 757,154.437 756.799,154.429C756.595,154.421 756.402,154.49 756.252,154.626C756.102,154.764 756.014,154.952 756.006,155.157L755.736,161.565C755.727,161.768 755.798,161.962 755.935,162.112C756.073,162.261 756.26,162.349 756.463,162.357L756.464,162.357Z" style="fill:rgb(255,87,51);fill-rule:nonzero;"/>
            <path d="M752.002,171.307C752.393,171.331 752.737,171.034 752.764,170.641C752.776,170.452 752.805,170.272 752.85,170.093C753.149,168.911 754.106,168.449 754.856,168.268C755.208,168.184 755.467,168.174 755.494,168.173C755.888,168.164 756.201,167.836 756.192,167.443C756.184,167.056 755.864,166.742 755.462,166.742C754.121,166.771 751.532,167.603 751.335,170.546C751.309,170.939 751.608,171.281 752.002,171.307Z" style="fill:rgb(255,87,51);fill-rule:nonzero;"/>
        </g>
    </g>
</svg>
