<?xml version="1.0" encoding="UTF-8" standalone="no"?>
<!DOCTYPE svg PUBLIC "-//W3C//DTD SVG 1.1//EN" "http://www.w3.org/Graphics/SVG/1.1/DTD/svg11.dtd">
<svg width="100%" height="100%" viewBox="0 0 180 180" version="1.1" xmlns="http://www.w3.org/2000/svg" xmlns:xlink="http://www.w3.org/1999/xlink" xml:space="preserve" xmlns:serif="http://www.serif.com/" style="fill-rule:evenodd;clip-rule:evenodd;stroke-linejoin:round;stroke-miterlimit:2;">
    <g transform="matrix(1,0,0,1,-1716,-3589)">
        <g transform="matrix(4.16667,0,0,4.16667,0,0)">
            <path d="M425.836,883.949C426.163,883.85 426.515,883.76 426.876,883.675L427.335,887.762C426.803,887.651 426.299,887.526 425.836,887.385C423.854,886.779 423.148,886.101 423.148,885.667C423.148,885.233 423.854,884.555 425.836,883.949ZM429.795,873.159L431.487,888.232C430.875,888.202 430.206,888.153 429.401,888.082C429.285,888.054 429.169,888.04 429.055,888.04C429.029,888.04 429.004,888.04 428.979,888.042L428.737,888.02C428.632,888.011 428.527,888.001 428.431,887.992L426.803,873.495L429.795,873.159ZM427.474,870.061L428.38,869.959L429.188,871.74L427.081,871.978L427.474,870.061ZM433.325,889.462C437.321,889.462 441.002,888.797 442.994,887.722L442.988,900.43C442.896,901.021 441.832,901.668 440.139,902.16C438.25,902.71 435.798,903.013 433.235,903.013C430.673,903.013 428.221,902.71 426.332,902.16C424.64,901.668 423.574,901.021 423.483,900.428L423.477,887.619C425.404,888.741 429.24,889.462 433.325,889.462ZM433.325,883.014C433.341,883.014 433.356,883.015 433.372,883.015L433.372,888.319C433.356,888.319 433.341,888.32 433.325,888.32C433.069,888.32 432.818,888.314 432.565,888.31L431.974,883.042C432.419,883.024 432.868,883.014 433.325,883.014ZM434.249,863.428C434.249,863.07 434.54,862.779 434.898,862.779L440.889,862.779C441.247,862.779 441.538,863.07 441.538,863.428L441.538,867.916L439.122,867.916C439.009,867.916 438.913,867.958 438.845,868.037C438.786,868.105 438.754,868.197 438.754,868.295C438.754,868.482 438.88,868.674 439.122,868.674L441.538,868.674L441.538,870.215L439.122,870.215C439.009,870.215 438.913,870.257 438.845,870.336C438.786,870.405 438.754,870.496 438.754,870.594C438.754,870.782 438.88,870.973 439.122,870.973L441.538,870.973L441.538,872.514L439.122,872.514C439.009,872.514 438.913,872.556 438.845,872.636C438.786,872.704 438.754,872.796 438.754,872.893C438.754,873.081 438.88,873.271 439.122,873.271L441.538,873.271L441.538,874.813L437.378,874.813C437.265,874.813 437.169,874.855 437.101,874.935C437.042,875.003 437.009,875.095 437.009,875.192C437.009,875.381 437.136,875.571 437.378,875.571L441.538,875.571L441.538,877.112L439.122,877.112C439.009,877.112 438.913,877.154 438.845,877.233C438.786,877.303 438.754,877.395 438.754,877.491C438.754,877.68 438.88,877.87 439.122,877.87L441.538,877.87L441.538,879.412L439.122,879.412C439.009,879.412 438.913,879.454 438.845,879.533C438.786,879.602 438.754,879.693 438.754,879.791C438.754,879.979 438.88,880.169 439.122,880.169L441.538,880.169L441.538,881.711L439.122,881.711C439.009,881.711 438.913,881.753 438.845,881.832C438.786,881.901 438.754,881.992 438.754,882.09C438.754,882.278 438.88,882.469 439.122,882.469L441.538,882.469L441.538,884.01L437.378,884.01C437.265,884.01 437.169,884.052 437.101,884.132C437.042,884.2 437.009,884.292 437.009,884.39C437.009,884.577 437.136,884.768 437.378,884.768L441.538,884.768L441.538,886.31L439.122,886.31C439.009,886.31 438.913,886.352 438.845,886.431C438.786,886.499 438.754,886.591 438.754,886.688C438.754,886.877 438.88,887.066 439.122,887.066L441.538,887.066L441.538,887.156C441.33,887.215 441.123,887.279 440.915,887.343C440.362,887.514 439.79,887.69 439.191,887.77C439.024,887.792 438.867,887.835 438.728,887.896C437.284,888.122 435.818,888.246 434.249,888.274L434.249,863.428ZM442.415,884.581C443.191,884.989 443.501,885.382 443.501,885.667C443.501,885.952 443.191,886.345 442.415,886.753L442.415,884.581ZM422.351,901.088L422.506,901.088C423.516,903.193 428.759,904.153 433.235,904.153C437.712,904.153 442.955,903.193 443.964,901.088L444.135,901.088L444.135,886.866C444.472,886.49 444.643,886.087 444.643,885.667C444.643,884.722 443.783,883.943 442.415,883.343L442.415,863.428C442.415,862.587 441.73,861.902 440.889,861.902L434.898,861.902C434.057,861.902 433.372,862.587 433.372,863.428L433.372,881.872L433.325,881.872C432.833,881.872 432.339,881.883 431.847,881.904L430.781,872.414C430.756,872.189 430.625,871.99 430.444,871.897L428.065,866.656C427.945,866.393 427.732,866.244 427.507,866.271C427.282,866.295 427.107,866.487 427.048,866.771L425.893,872.399C425.854,872.431 425.818,872.473 425.782,872.527L425.769,872.547C425.689,872.668 425.658,872.819 425.676,872.986L426.75,882.548C424,883.175 422.007,884.227 422.007,885.667C422.007,886.002 422.118,886.329 422.335,886.641L422.335,900.52L422.351,901.088Z" style="fill:rgb(255,87,51);fill-rule:nonzero;"/>
            <path d="M437.894,864.99C438.104,864.99 438.275,865.161 438.275,865.372C438.275,865.582 438.104,865.753 437.894,865.753C437.683,865.753 437.512,865.582 437.512,865.372C437.512,865.161 437.683,864.99 437.894,864.99ZM437.894,866.63C438.587,866.63 439.151,866.065 439.151,865.372C439.151,864.678 438.587,864.113 437.894,864.113C437.2,864.113 436.636,864.678 436.636,865.372C436.636,865.892 436.953,866.34 437.404,866.53C437.555,866.594 437.72,866.63 437.894,866.63Z" style="fill:rgb(255,87,51);fill-rule:nonzero;"/>
        </g>
    </g>
</svg>
